<svg width="1422" height="175" viewBox="0 0 1422 175" fill="none" xmlns="http://www.w3.org/2000/svg">
<path d="M1208.65 172.713C1204.7 172.814 1206.13 173.795 1205.53 174.021C1212.22 173.468 1208.44 172.462 1208.65 172.713Z" fill="black"/>
<path d="M1264.25 144.144L1263.82 145.275C1264.73 143.993 1265.68 142.76 1266.54 141.453L1268.9 137.404C1267.44 139.717 1266.01 142.056 1264.25 144.144Z" fill="black"/>
<path d="M1284.37 89.9969C1284.07 91.4053 1283.69 93.4173 1283.52 95.8316C1283.44 97.0388 1283.36 98.3465 1283.29 99.7046C1283.11 101.063 1282.94 102.496 1282.76 103.98C1282.21 109.89 1280.5 116.328 1278.31 121.107C1277.98 121.585 1277.68 122.087 1277.28 122.54L1276.52 127.444C1277.18 125.986 1277.88 124.452 1278.59 122.892C1279.21 121.308 1279.72 119.623 1280.27 117.938L1281.1 115.423C1281.35 114.568 1281.5 113.688 1281.7 112.833C1282.08 111.122 1282.46 109.387 1282.84 107.702C1283.06 105.992 1283.29 104.307 1283.49 102.672C1283.69 101.038 1283.97 99.4782 1283.97 97.9693C1284.04 94.9514 1284.42 92.2352 1284.35 89.9718L1284.37 89.9969Z" fill="black"/>
<path d="M1281.1 57.831C1281.23 58.8873 1280.32 57.3531 1280.22 57.1771C1280.07 57.0513 1281.08 58.1328 1283.69 65.074C1283.52 64.3447 1283.46 64.1183 1283.39 63.6908C1282.86 62.4585 1282.43 60.6477 1281.1 57.8058V57.831Z" fill="black"/>
<path d="M1283.39 63.7162C1282.48 59.4911 1285.68 69.8526 1283.39 63.7162V63.7162Z" fill="black"/>
<path d="M1268.02 38.0131C1270.11 39.9748 1271.85 42.2634 1273.78 44.4262C1273.05 42.7412 1268.48 36.5042 1270.44 38.6167C1264.23 32.1533 1265.18 33.8887 1268.02 38.0131Z" fill="black"/>
<path d="M1261.54 33.0841C1262.72 33.9643 1263.75 34.9955 1264.78 36.0266C1264.35 35.3727 1263.72 34.3416 1261.54 33.0841Z" fill="black"/>
<path d="M1271.17 42.8171C1270.14 41.635 1269.18 40.4027 1268.1 39.2961L1264.75 36.0267C1265.38 37.1333 1265.01 37.586 1267.77 39.0447C1267.32 38.9441 1267.5 39.1453 1268.15 39.6985C1268.78 40.3021 1269.81 41.3332 1271.14 42.7919L1271.17 42.8171Z" fill="black"/>
<path d="M1273.98 47.2935C1276.15 51.594 1279.04 56.8754 1274.16 49.9844C1276.4 53.3041 1277.61 55.8945 1278.54 57.4286C1279.44 58.9627 1279.92 59.5412 1279.92 59.2142C1279.92 58.8873 1279.49 57.655 1278.61 55.5676C1278.13 54.5616 1277.66 53.2539 1276.83 51.8958C1276.02 50.5377 1275.07 48.9785 1273.98 47.2683V47.2935Z" fill="black"/>
<path d="M1282.36 87.105C1282.23 89.117 1282.36 91.1038 1281.98 93.0906L1282.31 98.2965C1282.23 96.9887 1282.48 94.0966 1282.71 91.5816C1282.69 89.0667 1282.61 86.9038 1282.36 87.105Z" fill="black"/>
<path d="M1223.21 10.1982C1222.6 10.4497 1225.8 11.9084 1226.28 12.5371C1228.34 12.8892 1230.43 13.2916 1232.44 13.9455C1231.68 13.6186 1230.78 13.191 1229.82 12.8138C1228.84 12.4868 1227.78 12.1347 1226.85 11.8078C1224.94 11.1539 1223.38 10.5503 1223.23 10.2234L1223.21 10.1982Z" fill="black"/>
<path d="M1226.28 12.5371C1224.72 12.2605 1223.18 11.9335 1221.65 11.7323L1216.97 11.3551C1219.03 11.682 1220.67 11.9335 1221.95 12.1347C1223.23 12.4365 1224.16 12.6126 1224.84 12.7383C1226.2 12.9647 1226.48 12.8389 1226.28 12.5874V12.5371Z" fill="black"/>
<path d="M1259.07 33.537C1260.05 34.3166 1261.11 35.0208 1262.04 35.8507L1264.83 38.3908C1265.73 39.2459 1266.72 40.0758 1267.6 40.9812L1270.14 43.7979C1269.13 42.6662 1268.17 41.5093 1267.12 40.4027L1263.82 37.3094C1261.74 35.1717 1259.25 33.4615 1256.91 31.6005L1259.04 33.5118L1259.07 33.537Z" fill="black"/>
<path d="M1188.6 8.23667L1193.51 7.35645L1184.78 8.68936L1188.6 8.23667Z" fill="black"/>
<path d="M1166.7 8.38752C1170.32 7.65819 1161.72 7.1552 1165.56 6.70251C1159.63 6.82826 1154.55 7.45699 1149.97 8.03543C1154.83 7.70849 1160.01 7.80909 1166.7 8.41267V8.38752Z" fill="black"/>
<path d="M1142.3 8.84018C1144.72 8.66414 1147.23 8.36234 1149.97 8.01025C1147.38 8.1863 1144.84 8.41264 1142.3 8.84018Z" fill="black"/>
<path d="M1201.45 10.2485C1200.77 10.0222 1199.49 9.41861 1194.66 9.16711L1198.06 10.2485C1199.09 10.2485 1200.27 10.2485 1201.45 10.2485Z" fill="black"/>
<path d="M1198.18 10.2737H1198.06C1194.36 10.1982 1191.82 10.1982 1190.71 10.1731C1191.65 10.1731 1193.91 10.2234 1198.18 10.2737Z" fill="black"/>
<path d="M1202.31 10.2738C1201.98 10.2738 1201.75 10.2738 1201.45 10.2738C1201.78 10.3744 1201.98 10.4247 1202.31 10.2738Z" fill="black"/>
<path d="M1239.83 19.3528C1237.32 18.3217 1233.29 17.2151 1231.2 16.8379C1229.12 16.4606 1228.94 16.7876 1233.77 19.051C1235.68 19.3528 1235.25 18.875 1235.33 18.548C1235.4 18.2211 1236.01 17.9444 1239.83 19.3528Z" fill="black"/>
<path d="M1206.61 11.6569L1211.46 12.0342C1212.27 12.1096 1213.07 12.1348 1213.88 12.2354L1216.27 12.6629C1216.12 12.3611 1214.4 11.6821 1217.12 11.7827C1213.6 11.3551 1210.05 11.6318 1206.58 11.6569H1206.61Z" fill="black"/>
<path d="M1202.03 11.9589C1203.57 11.8583 1204.97 11.6823 1206.58 11.6571C1205.35 11.5314 1204.27 11.5565 1203.11 11.5062L1202.03 11.9338V11.9589Z" fill="black"/>
<path d="M1158.02 9.84623C1154.05 10.3241 1149.72 10.3492 1144.82 10.4247C1150.07 10.6259 1155.51 10.7516 1160.66 10.7516C1161.39 10.4247 1163.65 9.79593 1158.02 9.84623Z" fill="black"/>
<path d="M1177.54 10.1479C1177.26 10.1479 1176.91 10.1982 1176.66 10.1982C1177.21 10.2988 1177.64 10.324 1177.54 10.1479Z" fill="black"/>
<path d="M1096.58 10.4246C1096.86 10.5 1097.08 10.5503 1097.36 10.6258C1097.41 10.5503 1097.46 10.5 1097.54 10.4497H1096.58V10.4246Z" fill="black"/>
<path d="M1161.54 10.9526C1165.49 11.1538 1167.85 10.9023 1170.09 10.5753C1167.15 10.6759 1164.01 10.7514 1160.66 10.7514C1160.33 10.9023 1160.28 11.0029 1161.54 10.9526Z" fill="black"/>
<path d="M1128.82 9.34307C1130.88 9.56941 1133.2 9.74546 1135.66 9.92151C1133.65 9.56941 1129.55 9.04128 1128.82 9.34307Z" fill="black"/>
<path d="M1175.32 9.92152C1175.52 9.92152 1175.7 9.89637 1175.9 9.87122C1174.62 9.64487 1174.77 9.74547 1175.32 9.92152Z" fill="black"/>
<path d="M1175.32 9.92163C1173.29 10.0725 1171.7 10.3492 1170.09 10.5755C1172.51 10.5001 1174.72 10.3743 1176.66 10.2234C1176.18 10.148 1175.67 10.0222 1175.32 9.92163Z" fill="black"/>
<path d="M1081.97 17.3405C1082.67 16.3345 1093.03 15.4291 1102.01 16.4854C1110.84 15.7309 1105.06 12.4615 1097.36 10.6256C1097.08 11.0531 1097.08 11.4555 1088 12.0591C1091.17 12.6124 1108.12 13.3417 1100.48 14.222C1088.46 14.725 1090.62 13.8699 1084.79 13.3417C1089.74 14.5741 1069.49 15.1525 1072.11 16.9632L1082.65 16.3094C1082.85 16.586 1079.03 17.0387 1081.94 17.3153L1081.97 17.3405Z" fill="black"/>
<path d="M1114.64 10.7264L1118.36 10.6006C1114.11 10.4246 1111.07 10.0222 1105.46 9.24255C1099.25 9.72039 1097.96 10.0976 1097.54 10.4246L1115.92 10.5755L1114.64 10.7264Z" fill="black"/>
<path d="M1135.13 10.6004C1132.22 11.6818 1123.26 12.1345 1128.75 13.3165C1139.71 13.2411 1136.42 12.4112 1142.96 11.9333C1125.28 12.21 1148.04 11.3297 1135.26 10.7262C1138.73 10.5501 1141.85 10.4747 1144.82 10.4495C1141.62 10.3238 1138.56 10.1477 1135.66 9.94653C1135.81 9.97168 1135.94 9.99683 1136.07 10.022H1136.14C1136.9 10.1477 1137.15 10.2483 1136.29 10.1729C1136.24 10.1729 1136.01 10.1729 1135.91 10.1729C1135.79 10.3238 1135.46 10.4495 1135.11 10.5753C1129.98 10.3489 1134.3 10.2986 1135.91 10.1729C1135.96 10.1226 1136.12 10.0723 1136.14 10.022C1136.14 10.022 1136.09 10.022 1136.07 10.022L1118.36 10.6256C1122.11 10.7765 1126.81 10.7513 1135.11 10.6256L1135.13 10.6004Z" fill="black"/>
<path d="M1223.89 18.3717C1223.38 18.1453 1223.41 18.0699 1223.38 17.9945C1222.23 17.8436 1221.8 17.8184 1223.89 18.3717Z" fill="black"/>
<path d="M1216.82 16.3096C1217.47 16.3096 1218.1 16.3096 1219.06 16.3096C1219.54 16.3096 1220.14 16.3599 1220.84 16.4605C1221.55 16.5862 1222.4 16.8126 1223.43 17.1144C1226.93 18.3467 1223.28 17.6174 1223.41 18.0197C1225.92 18.3718 1232.34 19.5036 1224.62 16.9886L1223.33 16.8126C1222.45 16.5611 1221.57 16.209 1220.64 15.9826C1219.71 15.7563 1218.78 15.53 1217.85 15.3036C1215.99 14.8761 1214.23 14.2725 1212.67 13.9958C1209.58 13.4426 1207.51 12.9647 1208.17 12.9144C1209.25 13.4677 1210.23 13.9204 1211.56 14.3982C1212.9 14.8258 1214.51 15.4797 1216.82 16.3347V16.3096Z" fill="black"/>
<path d="M1175.4 13.2665L1160.66 13.7946L1168.18 14.7251L1167.8 14.1719C1176.18 14.3982 1174.37 13.694 1175.42 13.2665H1175.4Z" fill="black"/>
<path d="M1094.9 9.89637L1096.83 8.7395L1088.33 10.3742L1094.9 9.89637Z" fill="black"/>
<path d="M1075.73 10.0223L1076.44 9.0415L1071.38 9.64509L1075.73 10.0223Z" fill="black"/>
<path d="M181.673 156.744C182.956 157.096 184.213 157.548 185.521 157.724C183.66 157.423 182.553 156.894 181.673 156.744Z" fill="black"/>
<path d="M157.278 141.704L156.423 141.578C157.605 142.283 158.133 142.509 157.278 141.704Z" fill="black"/>
<path d="M605.062 10.148C598.749 9.21747 591.708 7.78396 592.462 8.89053L594.399 9.97195C598.8 9.77075 602.195 9.8965 605.062 10.1228V10.148Z" fill="black"/>
<path d="M282.723 16.6618C283.326 16.7624 283.955 16.8882 284.559 16.9888C286.093 16.6115 287.526 16.2594 288.834 15.9576C286.998 16.184 284.911 16.4103 282.723 16.6618Z" fill="black"/>
<path d="M278.272 21.1633L269.947 20.4591C271.808 20.7106 274.499 20.9369 278.272 21.1633Z" fill="black"/>
<path d="M350.476 159.61L355.531 158.504C347.609 158.504 351.104 159.082 350.476 159.61Z" fill="black"/>
<path d="M879.441 10.4245C873.984 9.99697 869.658 9.82093 865.86 9.77063C872.424 10.3994 877.706 11.3299 879.441 10.4245Z" fill="black"/>
<path d="M165.678 162.251C168.268 163.433 169.501 163.685 169.526 163.458C168.168 162.905 167.112 162.503 166.407 162.276C165.753 162 165.477 161.974 165.678 162.276V162.251Z" fill="black"/>
<path d="M850.117 9.7709C851.073 9.84635 852.028 9.94695 852.984 10.0224C856.958 9.84635 860.981 9.69545 865.835 9.7709C860.981 9.29307 855.449 9.01642 850.117 9.7709Z" fill="black"/>
<path d="M971.865 160.516C972.318 160.566 972.871 160.616 973.273 160.641C973.399 160.49 972.796 160.49 971.865 160.516Z" fill="black"/>
<path d="M1152.89 171.531C1151.1 171.607 1148.21 171.607 1145.45 171.607C1146.78 171.682 1149.02 171.682 1152.89 171.531Z" fill="black"/>
<path d="M998.624 9.54424C999.278 9.4185 1002.7 9.4688 998.624 9.54424V9.54424Z" fill="black"/>
<path d="M1018.39 13.8701C1017.54 13.9959 1016.88 14.1468 1016.76 14.3983C1017.08 14.1468 1017.66 13.9707 1018.39 13.8701Z" fill="black"/>
<path d="M809.652 16.5612C809.652 16.5612 809.425 16.5612 809.3 16.5612C810.507 16.7624 810.305 16.7372 809.652 16.5612Z" fill="black"/>
<path d="M1004.73 10.0476C1003.2 9.9219 1001.44 9.79615 999.529 9.7207C1000.36 9.79615 1001.94 9.9219 1004.73 10.0476Z" fill="black"/>
<path d="M1003.91 9.54438C1005.31 9.59467 1006.42 9.61982 1007.45 9.64497C1007.95 9.46893 1007.5 9.34318 1003.91 9.54438Z" fill="black"/>
<path d="M992.965 9.61988C995.279 9.61988 997.467 9.64503 999.554 9.74563C998.75 9.67018 998.423 9.61988 998.649 9.56958C997.467 9.56958 995.782 9.59473 992.99 9.61988H992.965Z" fill="black"/>
<path d="M638.913 163.458C639.189 163.483 639.491 163.534 639.793 163.559C643.892 163.106 642.082 163.182 638.913 163.458Z" fill="black"/>
<path d="M499.284 21.4651C499.485 21.4651 499.586 21.4399 499.737 21.4148C499.535 21.4148 499.309 21.3897 499.133 21.3645L499.259 21.4651H499.284Z" fill="black"/>
<path d="M484.697 22.295C490.909 20.9369 494.455 21.113 499.158 21.3896L494.33 18.246L484.697 22.295Z" fill="black"/>
<path d="M254.279 160.466L244.018 159.485C256.392 157.875 265.345 158.429 255.713 157.045C254.254 160.466 215.876 157.398 214.443 160.818L207.678 160.088C209.614 160.114 209.916 159.912 211.827 159.963C208.558 159.56 206.269 159.51 204.509 159.636C202.874 159.686 201.667 159.988 200.284 160.29C198.926 160.617 197.417 160.994 195.304 160.893C193.192 160.868 190.375 160.717 186.577 159.485C183.911 158.781 181.799 157.699 180.768 157.096C179.737 156.492 179.812 156.291 181.623 156.718C177.7 155.713 173.927 154.178 170.205 152.468C167.187 150.557 168.269 150.507 171.211 152.393C168.57 150.783 165.804 149.375 163.39 147.438C162.157 146.483 160.824 145.703 159.693 144.647L156.197 141.579H156.373C154.084 140.17 149.356 136.197 147.395 133.883C144.905 129.733 149.13 135.593 148.728 134.361C147.621 133.028 146.338 131.795 145.332 130.362L142.239 126.087C141.635 123.974 142.44 124.804 144.05 126.791C144.829 127.797 145.785 129.105 146.741 130.538C147.822 131.896 148.979 133.355 150.035 134.813C149.281 132.349 148.526 130.815 147.747 129.457C147.043 128.073 146.187 126.967 145.131 125.584C143.17 122.792 139.976 118.617 138.291 108.432C139.095 111.525 140.403 114.442 141.635 117.36C141.56 115.725 141.308 114.141 140.931 112.456C140.529 110.796 140.353 108.985 139.925 107.099C139.447 105.213 139.322 103.125 139.095 100.887C138.768 98.6738 138.919 96.2343 139.095 93.6188C138.97 94.2476 138.794 95.8571 138.542 97.8187C138.391 99.7552 138.441 101.994 138.291 103.88C138.089 105.791 138.265 107.225 137.913 107.577C137.687 107.929 137.008 107.199 136.329 104.483C136.228 102.899 136.052 101.088 135.675 98.9505C135.499 96.7876 135.247 94.2727 134.77 91.2296C136.103 91.1793 135.625 85.3195 136.932 78.1268L138.441 78.9064C139.724 71.3114 138.819 71.6383 139.749 67.036C143.195 58.8624 145.508 58.0325 147.42 56.8505C149.18 53.9332 149.834 53.0278 149.708 52.9021C149.583 52.8015 148.627 53.4805 147.898 54.235C147.118 54.9643 146.363 55.6433 146.313 55.2158C146.313 54.8134 146.816 53.2038 149.356 49.859C153.053 45.2818 156.7 41.8615 160.497 38.1897C164.546 34.8448 168.797 31.0473 175.159 27.7276C177.071 26.9228 178.001 26.6713 178.353 26.7216C178.68 26.7216 178.404 26.9731 177.976 27.2497C177.121 27.8533 175.738 28.8341 177.121 28.3815C179.158 26.9982 181.346 25.8917 183.509 24.5839C185.244 24.1061 184.817 24.6594 184.565 24.9108C187.483 23.9049 187.508 23.4773 187.986 22.9492C188.463 22.4714 189.319 21.5911 194.248 20.7361C194.851 20.2582 196.436 19.7552 198.699 19.8055C199.831 19.8055 201.114 19.8558 202.522 19.9313C203.226 19.9564 203.955 20.0067 204.685 20.0319C205.464 20.1073 206.269 20.1828 207.099 20.2582C213.739 20.887 221.661 21.4654 228.149 20.4594C231.343 20.9121 226.615 21.4402 227.571 22.069C245.376 20.7612 242.836 21.1133 257.423 19.3277L269.872 20.384C260.717 19.1768 272.412 17.7433 282.648 16.5613C279.403 15.9828 276.637 15.4547 274.776 15.2284L291.098 14.3733C293.06 14.6248 291.425 15.1781 288.759 15.8571C289.866 15.7062 290.922 15.5804 291.752 15.4798C297.586 16.0834 294.568 17.014 290.369 17.8942C288.382 17.5672 286.395 17.2152 284.484 16.9134C280.46 17.8942 276.687 18.9756 277.517 19.9061C278.574 19.7301 280.611 19.554 282.874 19.4786C281.818 19.7552 281.139 19.9816 281.642 20.1325C282.195 20.3085 283.905 19.9564 286.571 19.5289L290.293 21.3145L291.198 20.6103L312.575 21.742C327.866 19.9313 341.17 17.2906 365.439 16.5361C359.429 17.8439 364.157 18.6738 363.83 20.2331C357.215 18.5732 345.043 20.9373 332.469 20.6103C339.032 20.7864 337.599 21.5157 335.914 21.7923L358.347 20.2834C357.844 21.566 363.1 21.239 368.96 21.7672C364.534 19.2522 385.685 20.0822 394.814 19.3277C395.392 20.1828 393.204 21.0378 382.063 20.8367C394.361 22.7229 397.932 17.869 410.004 19.4786C407.288 19.4786 405.829 19.378 404.748 19.8055C411.11 19.0511 426.628 19.6546 422.981 20.384H420.265C438.322 20.7109 475.216 20.4091 477.907 18.2714C478.083 18.5481 475.543 20.8618 474.462 21.2893L506.678 14.0966C503.836 15.9325 514.726 20.3085 499.762 21.3396C504.062 21.5911 509.369 21.9181 518.448 21.2642C515.505 21.0127 511.129 18.5984 515.153 18.4475C526.144 20.4846 522.799 19.5289 536.354 21.2893C531.953 20.887 536.832 18.0199 543.798 18.0954C542.717 18.5229 544.377 20.9373 541.837 21.239L559.114 18.4223C554.789 18.9253 558.36 20.8115 562.208 21.6163C560.422 21.063 577.146 21.6666 581.749 21.3899L574.43 20.7361C593.946 21.1636 593.72 16.7625 613.06 16.9134C610.721 17.4918 607.275 20.5097 617.109 20.8618C621.61 19.4031 637.102 13.8954 654.229 12.7889L657.524 13.6188L670.677 12.6631C662.503 14.8511 639.517 19.4283 626.992 21.2139C634.286 21.8678 629.029 22.1947 639.969 22.1193C643.842 22.8989 634.009 23.3013 630.79 23.3516L656.266 23.8546C655.134 22.1696 675.732 22.1696 674.776 20.7612L647.112 22.5217C645.98 20.8367 663.107 17.7181 681.139 18.0199C685.741 18.699 677.719 21.0378 678.071 21.5911C680.409 21.0127 695.197 20.4846 696.857 20.887L689.212 21.7923C699.246 22.4211 705.609 19.554 717.681 21.1636C721.856 21.2642 730.13 23.3516 730.834 22.3456C724.044 20.4091 722.711 14.4487 727.238 12.9901C728.696 13.1158 749.117 14.826 753.871 15.7816C760.736 17.2906 743.585 19.378 749.419 20.6858C749.671 20.2331 753.468 19.6546 755.028 19.4786C759.404 19.881 753.217 20.9121 762.723 20.7109C764.308 19.0008 782.063 20.8618 767.225 19.2522C776.53 18.7744 777.109 19.6043 788.023 19.5289C784.553 18.4223 797.832 15.7565 807.137 15.2787C806.584 15.7062 808.671 16.2846 809.702 16.5361C828.765 16.687 839.001 17.4666 856.782 17.4918C858.416 17.8942 866.992 18.3972 863.346 19.1516C865.911 18.8499 868.25 18.2714 873.732 18.2211C884.345 19.7049 861.51 18.4475 869.608 20.2331C870.287 19.2271 883.792 18.8499 891.588 18.2463C889.174 16.7122 873.556 17.9445 865.735 18.5732C865.71 16.4607 879.316 14.2224 897.901 13.2416C912.664 12.7134 904.314 14.6248 906.854 14.323C934.594 14.7002 930.494 10.626 953.506 12.1601C962.635 13.5182 953.909 14.8511 955.946 15.8319C943.924 16.3349 937.486 14.9769 929.338 15.0272L939.372 15.6559C935.549 16.1086 927.527 16.4355 923.151 16.0583C930.821 17.2655 970.004 16.2846 991.406 17.4163C995.204 16.9637 1001.77 16.4858 998.674 15.9577L991.909 16.1589C985.697 15.0775 1004.66 14.6499 996.084 14.1469C1005.16 13.3925 1015.35 12.1853 1028.12 12.7889L1030.54 14.323C1030.26 13.8703 1022.19 13.3925 1018.59 13.8703C1023.92 13.1913 1038.21 15.9577 1044.04 13.9457L1035.09 12.8895C1044.22 12.1098 1055.49 10.4751 1066.8 10.953C1061.65 9.41886 1064.19 11.129 1056.14 9.34341C1063.13 11.5566 1027.14 9.24281 1038.36 11.5817C1030.09 9.51946 1024.05 10.7015 1013.26 8.94102C1013.59 9.44401 1017.08 9.92185 1007.58 9.67035C1007.15 9.82125 1006.14 9.99729 1005.49 10.123C1005.19 10.123 1005.09 10.123 1004.84 10.0727C1005.04 10.0727 1005.16 10.123 1005.36 10.123C1004.96 10.1985 1004.91 10.2236 1005.57 10.123C1007.83 10.3494 1009.66 10.6009 1010.42 10.9027C1005.69 12.0595 990.576 12.0344 985.446 12.638C979.812 12.3865 987.81 12.0595 984.716 11.5063L977.071 12.4116C976.317 11.2799 962.082 10.5254 975.361 9.87155L963.39 9.82125C956.348 9.19252 946.64 8.94102 940.68 9.41886C935.047 9.16737 926.42 10.6763 931.35 9.7961L912.588 10.5003L912.412 10.2236C893.902 10.0727 874.286 12.0847 853.11 10.0476C846.873 10.3242 840.435 10.6763 829.998 10.3494L827.961 9.36856C819.963 9.72065 803.918 8.38774 800.472 9.41886C791.846 6.77818 761.617 8.84042 747.533 8.38774L747.005 9.67035C737.322 9.5949 728.017 9.97214 715.996 10.4751L716.725 11.6069C706.364 12.5374 690.067 10.8021 673.669 10.9278C674.776 10.5003 678.951 10.6009 681.893 10.8775C662.302 8.33744 640.548 12.7386 622.767 10.8775C618.341 11.2799 615.122 11.1542 612.028 10.8775C612.431 10.8775 612.808 10.8775 613.135 10.8272C612.682 10.8272 612.003 10.8272 611.324 10.8272C609.363 10.626 607.351 10.45 605.163 10.2236C607.024 10.5003 608.784 10.7266 610.343 10.8272C606.923 10.8272 601.742 10.9781 596.662 11.2799L594.499 10.0727C594.097 10.0727 593.745 10.0727 593.317 10.0979C588.338 9.6452 589.319 10.6763 591.959 11.5817C589.394 11.7829 587.055 12.0092 585.244 12.311C581.195 10.3494 571.915 12.9649 566.408 10.8775C562.987 11.8835 540.881 11.632 538.165 13.7697C537.989 13.4931 536.505 13.3673 539.246 13.3422C533.588 13.0907 527.929 12.8643 522.849 13.4679L520.435 11.9338L508.061 13.996C500.541 13.0655 497.448 12.5122 504.892 11.3302C486.885 13.141 490.281 12.0092 474.965 13.82L475.719 12.814C470.237 12.8643 461.485 14.1972 458.19 13.3673C445.942 11.4811 397.605 13.1158 366.169 11.3554C372.255 14.2978 351.557 10.0476 350.325 12.311C348.489 11.6069 344.113 11.2296 349.193 10.626C333.148 11.3051 325.1 9.51946 314.009 11.4308C312.173 10.7266 317.429 10.4248 315.82 9.99729C314.537 10.1482 310.714 10.6009 309.054 10.1985C307.42 9.7961 311.393 9.62005 313.933 9.31826C297.536 9.44401 295.901 11.5817 294.694 13.5685C286.395 12.6128 282.245 12.7637 276.26 14.0715C273.368 13.4176 268.539 12.7386 278.724 12.4871C272.99 12.3865 243.742 11.5314 243.163 13.141C241.378 12.7386 235.166 13.0152 233.657 13.2164C220.806 13.1158 219.674 12.9649 207.049 13.1158L210.545 13.3673C208.03 14.3733 205.49 14.3481 202.094 14.4739C200.409 14.5242 198.548 14.4739 196.461 14.5745C194.399 14.8008 192.085 15.1026 189.495 15.5553L189.746 15.3038C186.753 15.7565 184.389 16.3349 182.428 16.7373C180.491 17.19 179.058 17.7936 177.85 18.1708C175.486 19.0259 174.279 19.4786 173.173 20.1576C170.96 21.5408 168.419 22.0438 158.133 28.3312L159.894 28.5323C159.818 29.3874 158.712 30.5191 156.901 31.8772C155.115 33.2856 152.777 35.1215 150.161 37.1837C145.106 41.5345 139.397 47.671 136.455 54.0338L139.623 50.1356C138.869 51.8709 137.486 53.6565 136.153 55.7188C134.87 57.8062 133.135 59.9187 131.727 62.2324C130.394 64.5713 128.734 66.8599 127.703 69.224C126.646 71.5629 125.691 73.776 125.188 75.6873C124.961 76.5173 124.911 75.8131 125.112 74.6311C125.339 73.4491 125.666 71.764 125.892 70.5569C124.081 75.4861 123.779 78.3029 123.603 79.7615C123.452 81.2453 123.704 81.4465 124.006 81.4717C124.308 81.522 124.71 81.3962 124.911 82.2262C125.037 83.0561 125.238 84.8165 125.137 88.6141C124.634 89.9973 124.157 89.0919 123.679 89.0919C123.452 89.0919 123.226 89.3434 123.025 90.2236C122.773 91.129 122.723 92.6631 122.824 95.3038C122.773 95.9577 122.799 96.9385 122.899 98.1457C122.949 98.7493 123 99.4283 123.075 100.158C123.226 100.862 123.377 101.641 123.553 102.471C123.905 104.081 124.308 105.892 124.76 107.828C125.339 109.74 126.043 111.726 126.697 113.789C129.564 122.012 134.267 130.463 137.511 136.775C136.455 133.707 135.373 130.89 139.548 136.524C140.378 137.58 141.233 138.762 142.113 140.019C142.541 140.648 142.993 141.302 143.471 141.981C143.949 142.635 144.502 143.264 145.031 143.917C146.087 145.25 147.193 146.608 148.3 147.992C149.532 149.274 150.79 150.557 152.047 151.865C152.676 152.493 153.305 153.172 153.959 153.751C154.663 154.304 155.342 154.883 156.021 155.436C157.404 156.517 158.737 157.599 160.095 158.529C162.937 160.164 165.552 161.698 167.992 162.276C169.149 163.031 169.526 163.408 169.526 163.584C171.463 164.364 173.927 165.496 176.794 166.3C178.203 166.753 179.686 167.206 181.195 167.684C182.729 168.011 184.289 168.337 185.823 168.664C188.866 169.419 191.909 169.545 194.449 169.771C196.964 170.048 199.076 169.771 200.284 169.595C201.189 170.173 202.673 170.601 204.584 170.928C206.42 171.179 208.608 171.28 211.048 171.33C215.927 171.406 221.736 171.129 227.319 170.852C238.485 170.299 248.746 169.721 248.646 171.632L272.563 171.431L271.934 171.833C287.225 172.085 292.632 171.154 298.014 170.249C301.56 170.5 298.97 170.878 298.668 171.079C321.026 171.858 323.239 171.682 341.975 169.771L343.911 171.028C348.992 170.299 376.228 172.99 398.133 171.531C397.907 171.682 397.454 171.909 395.719 172.085C420.391 170.626 454.745 175.555 463.798 171.003L480.07 169.897C459.02 169.545 483.214 167.935 474.537 167.181C482.811 166.904 495.939 168.539 485.779 168.79L484.194 168.564C480.447 170.928 510.35 169.394 509.796 171.003C551.217 170.878 591.607 172.185 630.413 172.286L625.936 170.45L639.466 170.551C643.012 170.978 644.245 171.984 634.587 171.909C639.668 172.94 650.784 171.028 651.06 170.626C669.973 171.381 643.666 172.764 649.476 172.814L657.348 172.688L655.562 172.462C661.95 171.707 662.503 170.903 674.122 171.003C681.466 171.381 677.895 172.135 680.787 172.21C680.787 172.336 681.742 172.412 685.213 172.261L702.264 172.412L695.449 170.953C703.019 170.249 711.494 171.028 703.622 169.394C715.166 171.934 767.225 170.299 774.317 171.104C784.905 170.048 795.342 170.073 808.294 170.199C805.075 169.897 803.138 168.262 814.305 168.463C810.23 171.833 834.751 169.922 843.78 172.361C835.707 170.752 875.518 171.959 862.868 169.67C872.173 169.947 863.446 170.928 870.513 171.733C892.695 170.425 919.378 172.588 946.791 172.135C947.219 171.682 942.616 171.028 948.501 170.349L962.962 172.563C968.369 172.336 967.942 169.997 977.825 171.557C976.417 171.179 974.355 170.626 977.976 170.475C1031.67 172.638 1087.7 168.715 1142.23 172.764C1134.83 171.909 1139.76 171.833 1145.4 171.783C1141.72 171.582 1145.47 170.702 1144.77 170.098L1167.6 171.758C1171.75 170.098 1192.07 171.657 1194.46 170.048L1187.24 170.324C1196.85 168.438 1173.79 166.149 1175.2 163.735C1164.43 165.873 1146.8 160.566 1129.15 163.635C1125.25 163.132 1132.47 162.855 1130.38 162.302C1125.9 163.333 1120.5 163.559 1110.49 163.081L1111.62 162.83C1083.48 163.081 1071.41 162.075 1039.79 161.396L1042.13 162.578C1035.34 162.427 1033.91 162.05 1030.71 161.748C1022.92 163.559 1049.8 161.849 1042.69 163.836C1033.68 161.421 994.776 163.811 988.665 161.044C978.203 161.044 991.733 162.427 981.271 162.402L978.505 161.648L975.864 162.603C968.998 162.453 965.553 161.522 965.301 160.893C966.961 160.969 970.029 160.717 971.815 160.667C962.937 159.787 946.766 160.969 943.698 160.667L953.732 161.12C925.213 161.824 890.381 160.843 862.818 162.352L864.905 162.905C843.855 163.936 848.055 162.276 824.943 162.779L825.773 162.654C821.145 163.207 814.984 163.509 808.646 163.433C814.481 162.779 797.656 162.151 805.326 161.421C782.491 162.528 794.034 162.302 778.97 164.389L775.499 163.458C770.369 164.314 769.941 164.741 758.398 164.993C767.854 164.188 751.029 163.584 761.642 162.503C737.423 160.466 725.678 164.565 714.562 161.572C703.446 164.163 735.512 163.006 729.3 163.559C734.506 164.414 720.12 165.496 712.525 165.219C704.779 165.169 699.372 161.924 679.906 161.975C681.843 161.975 681.969 161.799 683.905 161.799C676.612 161.145 669.646 162.679 660.692 161.623C655.688 163.182 649.099 161.522 647.64 163.534L665.496 163.081C655.386 163.609 645.879 165.923 629.205 164.791C630.513 164.389 635.468 163.861 638.863 163.559C633.984 162.981 629.482 163.936 624.427 163.358C625.861 161.371 646.131 162.93 656.97 161.396C651.739 160.566 636.448 162.83 641.906 160.692C634.084 163.433 622.742 160.34 609.564 162.453L610.444 161.271C608.357 161.447 604.031 162.025 600.208 162L607.15 160.441C596.486 161.748 586.577 159.284 576.342 160.013C597.769 159.988 581.145 161.447 590.224 162.327C563.792 163.936 575.034 159.208 545.433 159.787C549.432 159.611 560.472 160.516 554.21 161.044C548.577 160.793 541.132 160.34 537.687 159.711C518.071 159.963 540.705 160.944 532.355 161.673C525.691 160.214 522.723 162.276 514.122 162.729L514.072 161.522C491.739 160.742 508.137 164.062 488.042 163.106L496.543 161.421L486.055 161.849L488.218 160.466C476.801 161.497 473.254 161.22 462.088 160.843C464.679 161.698 460.629 163.056 450.721 163.081C443.981 162.352 454.493 161.924 440.485 162.1C443.654 161.346 447.124 160.39 453.236 161.497C453.864 161.094 456.354 160.742 457.008 160.34C449.74 159.51 438.75 160.139 433.669 160.164C435.631 160.214 437.97 160.265 439.152 160.441L418.831 162.126C415.637 161.673 418.177 161.296 420.692 160.944C416.568 161.069 413.726 161.623 407.665 161.748C409.224 160.768 408.847 159.736 417.423 159.284L398.058 160.39C396.775 159.963 388.124 159.208 390.639 158.856C379.9 158.278 364.282 160.768 350.048 160.013C349.319 160.214 347.835 160.39 344.792 160.516C331.412 160.29 319.542 159.083 303.698 160.441L294.694 158.68C282.27 159.083 306.867 160.918 286.194 161.572C271.557 162.126 280.736 160.063 275.581 159.56C268.287 160.441 255.637 162.276 242.182 160.818C246.634 160.491 250.13 160.742 254.279 160.617V160.466ZM136.404 104.785C136.706 106.118 137.612 108.029 138.165 109.89C138.718 111.777 139.397 113.487 139.397 114.543C138.794 113.914 138.341 113.311 137.964 112.632C137.612 111.953 137.435 111.223 137.234 110.469C136.907 108.91 136.606 107.124 136.379 104.785H136.404ZM305.282 19.0008C303.069 19.4031 299.674 19.2019 295.801 18.7493C298.592 18.6487 301.761 18.699 305.282 19.0008ZM954.059 10.5506C953.934 10.5506 953.833 10.6009 953.732 10.6009C947.118 10.123 949.457 10.3242 954.059 10.5506ZM967.816 11.0787C969.199 10.9027 969.099 10.7518 968.52 10.5757C967.565 10.8775 964.471 10.9027 960.95 10.8272C961.931 11.1542 963.717 11.3554 967.816 11.1039V11.0787ZM682.346 171.632L679.68 171.305C685.716 170.953 684.031 171.28 682.346 171.632Z" fill="black"/>
<path d="M278.875 20.6602C278.045 20.459 277.794 20.2327 277.618 20.0063C276.461 20.2075 276.436 20.4339 278.875 20.6602Z" fill="black"/>
<path d="M349.545 159.837H350.023C350.274 159.787 350.425 159.711 350.501 159.636L349.57 159.837H349.545Z" fill="black"/>
<path d="M754.801 21.3645C751.959 21.1884 750.4 20.9621 749.344 20.7357C749.193 21.0375 750.475 21.289 754.801 21.3645Z" fill="black"/>
<path d="M1040.67 9.01636L1031.87 9.3433C1036.12 9.293 1037.66 9.54449 1039.79 9.74569C1039.59 9.46905 1037.91 9.04151 1040.67 9.04151V9.01636Z" fill="black"/>
<path d="M1117.13 16.5108C1118.41 16.3599 1119.87 16.5108 1121.13 16.3348L1120.77 15.7815C1115.29 15.8066 1111.47 16.2845 1117.13 16.5108Z" fill="black"/>
<path d="M1048.85 13.0401C1049.55 14.0712 1055.06 13.7191 1061.25 13.5179H1060.16C1061.97 12.0844 1055.41 12.5623 1048.87 13.0401H1048.85Z" fill="black"/>
<path d="M1062.65 13.493C1064.57 13.4427 1066.5 13.4176 1068.36 13.4679C1069.09 12.8894 1066.05 13.3421 1062.65 13.493Z" fill="black"/>
<path d="M985.27 10.3993C988.187 10.6508 987.105 9.09157 988.765 9.51911C992.035 8.21134 969.249 11.0784 985.27 10.3993Z" fill="black"/>
<path d="M1053.83 16.4102L1051.61 15.1276L1048.17 16.1587L1053.83 16.4102Z" fill="black"/>
<path d="M1005.11 15.4797L1014.97 15.8317C1014.82 15.6305 1016.08 15.5048 1017.61 15.4042C1011.53 15.3539 1004.89 15.1024 1005.11 15.4797Z" fill="black"/>
<path d="M1017.61 15.4042C1020.78 15.4042 1023.8 15.4042 1025.56 15.203C1023.85 15.203 1020.15 15.2533 1017.61 15.4042Z" fill="black"/>
<path d="M1040.35 16.7874L1037.45 16.5108L1030.49 16.4353L1040.35 16.7874Z" fill="black"/>
<path d="M899.133 15.2283L888.369 15.5804C887.263 16.0079 890.205 16.2845 894.204 16.1085C896.769 15.8067 900.768 15.6307 899.133 15.2283Z" fill="black"/>
<path d="M931.676 18.6736C928.759 18.4221 928.583 18.1203 926.923 17.7179L926.596 19.2772L931.676 18.6736Z" fill="black"/>
<path d="M900.29 19.0509C899.208 19.4784 884.672 20.2832 898.303 20.2078C899.384 19.7802 910.173 19.4281 900.29 19.0509Z" fill="black"/>
<path d="M738.177 17.064H740.919L740.516 14.4988L738.177 17.064Z" fill="black"/>
<path d="M595.279 23.2005C608.03 23.8041 598.297 21.6161 609.84 22.3958C612.833 21.7922 600.435 21.767 603.503 21.2389C595.807 21.8676 591.758 21.5155 595.304 23.2005H595.279Z" fill="black"/>
<path d="M603.478 21.2388C604.71 21.1382 606.018 21.0125 607.401 20.8616C605.163 21.0125 604.131 21.1382 603.478 21.2388Z" fill="black"/>
<path d="M1182.92 172.914L1191.12 173.442L1185.84 172.587L1182.92 172.914Z" fill="black"/>
<path d="M1198.66 171.003L1200.6 172.638L1205.53 171.154C1203.67 171.229 1200.07 171.355 1198.66 171.003Z" fill="black"/>
<path d="M138.844 84.137L138.542 83.5334C137.863 84.5897 137.863 86.325 137.586 89.7453C138.039 87.834 138.316 85.9478 138.844 84.1119V84.137Z" fill="black"/>
<path d="M191.104 157.8L189.444 157.322C190.375 158.101 191.305 158.831 192.311 159.434L191.104 157.8Z" fill="black"/>
<path d="M282.799 157.297C279.001 157.246 274.525 157.573 270.677 157.498C278.976 157.221 283.83 159.133 282.799 157.297Z" fill="black"/>
<path d="M1255.98 31.852C1254.93 31.9023 1255.46 32.8831 1255.31 33.1095C1257.02 32.6568 1255.88 31.6005 1255.98 31.852Z" fill="black"/>
<path d="M1272.81 27.1994L1272.56 27.6521L1274.95 26.294L1272.81 27.1994Z" fill="black"/>
<path d="M1288.83 25.087C1287.07 23.5026 1283.07 26.1432 1280.13 25.8918L1279.6 25.5397L1278.49 27.1492C1281.94 26.4702 1286.31 24.9109 1288.83 25.087Z" fill="black"/>
<path d="M1297.88 27.8032C1297.25 27.1744 1299.64 26.9732 1295.87 27.8535C1296.07 27.9038 1296.15 27.9289 1296.25 27.9792C1296.6 27.9289 1297.08 27.8535 1297.88 27.8032Z" fill="black"/>
<path d="M1296.25 27.9792C1294.56 28.2558 1297.43 28.4067 1296.25 27.9792V27.9792Z" fill="black"/>
<path d="M1303.99 26.5457L1301.86 27.4511C1302.39 27.8032 1304.37 27.6272 1303.67 28.0295C1305.91 27.3757 1305.38 27.0487 1303.99 26.5457Z" fill="black"/>
<path d="M1305.93 24.9613L1304.82 25.3637C1305.05 25.5146 1305.35 25.5398 1305.93 24.9613Z" fill="black"/>
<path d="M1302.44 26.2438L1304.8 25.3636C1304.45 25.1121 1304.32 24.5588 1303.69 25.7157C1303.82 25.1624 1303.42 25.7157 1302.41 26.2438H1302.44Z" fill="black"/>
<path d="M1301.03 26.1682C1299.72 25.9419 1298.08 25.9167 1300.22 25.0114C1296 25.8161 1296.8 26.9982 1301.03 26.1682Z" fill="black"/>
<path d="M1289.41 23.1252L1287.67 22.8234L1286.31 23.603C1286.99 23.2006 1289.58 23.6533 1289.41 23.1252Z" fill="black"/>
<path d="M1317.98 25.6151C1318.08 25.2127 1317.1 24.7097 1316.87 24.2319L1315.29 24.8858C1316.17 25.0367 1317.8 25.0618 1317.98 25.6151Z" fill="black"/>
<path d="M1316.87 24.257L1319.24 23.2762C1317.02 23.5025 1316.67 23.8546 1316.87 24.257Z" fill="black"/>
<path d="M1306.06 22.924L1302.21 24.8353L1306.84 22.8234L1306.06 22.924Z" fill="black"/>
<path d="M1327.36 24.433L1326.08 25.4893L1328.39 23.8294L1327.36 24.433Z" fill="black"/>
<path d="M1333.57 23.4522C1332.64 24.3072 1335.15 24.4833 1334.12 25.0869C1335.81 24.7348 1337.17 23.9048 1338.37 23.1755C1337.04 23.6785 1335.56 23.7791 1333.57 23.4522Z" fill="black"/>
<path d="M1340.44 22.0691C1339.76 22.3457 1339.1 22.748 1338.37 23.1755C1339.08 22.8989 1339.78 22.5721 1340.44 22.0691Z" fill="black"/>
<path d="M1323.44 22.8988C1323.66 23.1 1324.09 23.6533 1325.52 23.7287L1324.42 22.7982C1324.11 22.8234 1323.79 22.8737 1323.44 22.8988Z" fill="black"/>
<path d="M1324.37 22.748H1324.42C1325.47 22.6725 1326.2 22.5971 1326.5 22.5719C1326.23 22.5719 1325.6 22.6474 1324.37 22.748Z" fill="black"/>
<path d="M1323.18 22.9241C1323.18 22.9241 1323.33 22.924 1323.44 22.8988C1323.33 22.7982 1323.26 22.7732 1323.18 22.9241Z" fill="black"/>
<path d="M1312.65 23.0498C1314 22.2702 1316.95 21.2139 1313.9 20.7109C1312.97 21.566 1314.71 21.8678 1312.65 23.0498Z" fill="black"/>
<path d="M1321.83 21.7673L1319.18 21.8679C1319.29 22.1445 1319.79 22.4966 1319.13 22.8739L1321.85 21.7673H1321.83Z" fill="black"/>
<path d="M1323.06 21.239L1321.83 21.7673L1322.81 21.7168L1323.06 21.239Z" fill="black"/>
<path d="M1335.83 21.6665C1336.89 21.0629 1338.12 20.8617 1339.51 20.5851C1338 20.5851 1336.44 20.6605 1334.95 20.8617C1334.8 21.2138 1334.22 21.918 1335.83 21.6665Z" fill="black"/>
<path d="M1330.25 22.0942C1330.25 22.0942 1330.43 22.0187 1330.5 21.9936C1330.33 21.9181 1330.2 21.9181 1330.25 22.0942Z" fill="black"/>
<path d="M1353.24 18.7745L1352.99 18.5985L1352.96 18.7997L1353.24 18.7745Z" fill="black"/>
<path d="M1334.7 20.6857C1333.55 20.6354 1332.92 20.9874 1332.31 21.3898C1333.14 21.1635 1334.02 20.9874 1334.98 20.8365C1335.05 20.6857 1335.05 20.5599 1334.7 20.6605V20.6857Z" fill="black"/>
<path d="M1344.21 21.063C1343.61 20.9121 1342.9 20.8115 1342.2 20.7361C1342.8 20.9876 1344.06 21.3648 1344.21 21.063Z" fill="black"/>
<path d="M1330.9 22.245L1330.75 22.3204C1331.16 22.4965 1331.08 22.3959 1330.9 22.245Z" fill="black"/>
<path d="M1330.9 22.245C1331.46 22.0187 1331.89 21.6916 1332.31 21.3898C1331.63 21.5659 1331.03 21.7672 1330.5 21.9936C1330.65 22.0439 1330.8 22.1445 1330.93 22.2451L1330.9 22.245Z" fill="black"/>
<path d="M1356.48 11.3806C1356.41 12.3866 1353.59 13.6944 1350.9 12.9902C1348.48 14.0716 1350.57 17.0895 1352.99 18.6236C1352.99 18.1709 1352.96 17.7937 1355.45 16.8632C1354.47 16.4356 1349.57 16.3602 1351.63 15.1782C1354.97 14.2225 1354.47 15.1782 1356.2 15.4548C1354.62 14.4237 1360.3 13.0908 1359.32 11.3806L1356.41 12.4117C1356.31 12.1351 1357.34 11.5567 1356.48 11.4058V11.3806Z" fill="black"/>
<path d="M1348.06 19.1516L1347 19.4031C1348.23 19.4031 1349.16 19.7049 1350.85 20.2582C1352.56 19.554 1352.86 19.1265 1352.94 18.7744L1347.68 19.3277L1348.03 19.1265L1348.06 19.1516Z" fill="black"/>
<path d="M1342.25 20.0572C1342.93 18.8752 1345.42 18.0704 1343.71 17.1147C1340.61 17.5926 1341.64 18.2968 1339.83 19.0261C1344.81 18.0956 1338.47 19.8057 1342.17 19.9315C1341.22 20.2333 1340.34 20.409 1339.51 20.5851C1340.44 20.5851 1341.32 20.6356 1342.17 20.7362C1342.12 20.7362 1342.1 20.7111 1342.05 20.6859C1341.82 20.5853 1341.72 20.5099 1342 20.5602C1342 20.5602 1342.07 20.535 1342.1 20.535C1342.1 20.3842 1342.2 20.2333 1342.27 20.1075C1343.76 20.1327 1342.55 20.359 1342.1 20.535C1342.1 20.5853 1342.05 20.6356 1342.05 20.7111L1347 19.4536C1345.92 19.4536 1344.59 19.6548 1342.25 20.0824V20.0572Z" fill="black"/>
<path d="M1316.27 18.0198C1316.44 18.0953 1316.44 18.1707 1316.47 18.2462C1316.77 18.0701 1316.9 17.9695 1316.27 18.0198Z" fill="black"/>
<path d="M1318.43 18.3972C1318.08 18.5984 1317.83 19.0763 1316.62 19.1014C1315.54 18.9254 1316.54 18.5984 1316.44 18.2463C1315.76 18.6236 1314.03 19.3529 1316.34 19.5793L1316.67 19.3781C1318.76 19.4787 1321.52 20.4595 1321.2 20.6607C1320.47 19.7804 1319.86 19.1517 1318.38 18.3721L1318.43 18.3972Z" fill="black"/>
<path d="M1330.45 18.9253L1334.58 17.8438L1332.31 17.19L1332.49 17.7432C1330.07 17.8438 1330.68 18.4726 1330.45 18.9253Z" fill="black"/>
<path d="M1353.79 19.2271L1353.39 20.4343L1355.58 18.5229L1353.79 19.2271Z" fill="black"/>
<path d="M1359.22 18.3722L1359.15 19.4033L1360.51 18.5986L1359.22 18.3722Z" fill="black"/>
<path d="M1365.38 90.123L1367.55 89.4943C1366.54 89.7458 1365.86 89.9218 1365.38 90.123Z" fill="black"/>
<path d="M1352.33 92.0345L1352.18 92.5626C1352.56 92.2357 1352.68 92.0093 1352.33 92.0345Z" fill="black"/>
<path d="M1359.42 41.8114C1358.47 41.4844 1357.41 41.0317 1356.68 40.8054C1356.1 40.5539 1354.97 40.6293 1355.35 41.1575C1355.7 41.4593 1356.2 41.7611 1356.38 42.1132C1357.61 41.7359 1358.57 41.7108 1359.42 41.8114Z" fill="black"/>
<path d="M1379.44 77.825C1379.62 77.7244 1379.82 77.6489 1380 77.5483C1379.92 76.9699 1379.85 76.4418 1379.72 75.9639C1379.67 76.5424 1379.54 77.146 1379.42 77.825H1379.44Z" fill="black"/>
<path d="M1382.41 81.5221C1381.71 82.1509 1380.93 82.7042 1380.17 83.2575C1380.73 82.9305 1381.51 82.4275 1382.41 81.5221Z" fill="black"/>
<path d="M1361.31 132.097L1360.78 134.185C1362.87 132.148 1361.54 132.651 1361.31 132.097Z" fill="black"/>
<path d="M1404.72 11.9337C1404.69 12.1097 1404.67 12.2355 1404.67 12.3361C1404.26 12.7888 1404.04 13.0654 1403.89 13.2918C1404.47 12.7636 1405.17 12.1349 1405.65 11.6319C1405.8 11.3301 1405.62 11.2798 1404.72 11.9337Z" fill="black"/>
<path d="M1357.64 103.025C1357.99 102.773 1358.22 102.522 1358.27 102.245C1357.84 102.497 1357.61 102.748 1357.64 103.025Z" fill="black"/>
<path d="M1403.23 14.5495C1403.41 14.3986 1403.56 14.2728 1403.74 14.1471C1403.64 13.9207 1403.56 13.7444 1403.89 13.2918C1402.91 14.1971 1402.35 14.6249 1403.23 14.5746V14.5495Z" fill="black"/>
<path d="M1282.82 81.3962C1282.82 81.3962 1282.87 81.1196 1282.92 81.019C1282.77 81.019 1282.77 81.1699 1282.82 81.3962Z" fill="black"/>
<path d="M1269.54 31.7012C1269.97 32.0281 1270.6 32.6568 1271.23 33.2353C1271 32.9083 1270.5 32.4305 1269.54 31.7012Z" fill="black"/>
<path d="M1381.2 15.9325C1380.05 16.1588 1381.03 16.0834 1381.2 15.9325V15.9325Z" fill="black"/>
<path d="M1375.02 12.4116C1375.24 12.2607 1375.42 12.0846 1375.42 11.8331C1375.37 12.1098 1375.22 12.2858 1375.02 12.4116Z" fill="black"/>
<path d="M1407.66 20.8366C1407.66 20.8366 1407.64 20.8869 1407.61 20.9372C1407.96 20.7109 1407.89 20.7612 1407.66 20.8366Z" fill="black"/>
<path d="M1379.39 15.6811C1379.85 15.7565 1380.35 15.8068 1380.9 15.8068C1380.65 15.7565 1380.2 15.7062 1379.39 15.6811Z" fill="black"/>
<path d="M1379.69 16.1591C1379.29 16.1591 1378.96 16.1591 1378.66 16.1842C1378.54 16.3854 1378.66 16.486 1379.69 16.1591Z" fill="black"/>
<path d="M1382.79 15.6559C1382.13 15.7565 1381.51 15.7816 1380.9 15.7816C1381.13 15.8319 1381.25 15.8822 1381.18 15.9074C1381.51 15.8571 1381.98 15.7565 1382.79 15.6307V15.6559Z" fill="black"/>
<path d="M1273.66 150.381C1273.66 150.381 1273.49 150.356 1273.44 150.305C1271.43 151.11 1272.18 150.909 1273.66 150.381Z" fill="black"/>
<path d="M1362.22 49.2302C1362.22 49.2302 1362.14 49.2805 1362.09 49.3056C1362.14 49.3056 1362.22 49.3056 1362.27 49.3056L1362.22 49.2302Z" fill="black"/>
<path d="M1366.26 47.8471C1364.68 49.4315 1363.65 49.4064 1362.29 49.3058L1364.1 52.2231L1366.29 47.822L1366.26 47.8471Z" fill="black"/>
<path d="M1378.21 100.635L1381.86 95.6559C1381.33 100.233 1378.11 105.338 1382.39 99.9564C1380.88 100.132 1381.73 97.6176 1383.16 94.4739C1384.6 91.3554 1386.71 87.3818 1387.39 85.2441C1385 85.8477 1382.96 86.6273 1381.48 87.7087C1380.83 87.5578 1380.12 87.4321 1379.37 87.3063C1380.25 87.2057 1380.68 86.9291 1381.56 86.8285C1379.54 86.3004 1377.36 87.256 1375.17 88.3626C1372.9 89.4692 1370.62 90.7518 1367.27 91.0033C1364.98 91.0787 1363.32 90.8272 1365.36 90.1231L1359.2 91.9087C1357.56 92.0847 1357.99 91.4308 1359.7 91.2296L1355.2 92.0596L1352.16 92.6631V92.5625C1351.45 93.2164 1349.74 94.323 1348.89 94.8008C1347.38 94.5242 1349.57 94.323 1349.11 93.9709L1346.09 95.2787C1344.69 94.5996 1347.15 93.3422 1349.36 93.141C1345.92 90.2237 1346.87 94.3984 1340.23 93.3925L1343.15 92.5122C1340.94 90.8775 1338.73 91.9338 1335.18 91.2548C1336.06 91.7578 1342.37 93.2416 1339.08 94.5996C1338.07 94.499 1336.79 94.5745 1335.05 95.5302C1334.93 94.826 1334.3 94.7254 1333.34 94.8511L1340.11 102.849C1340.23 102.547 1340.29 102.144 1340.41 101.717L1341.82 102.597C1341.67 101.566 1340.99 101.038 1340.64 99.8055C1340.69 99.6798 1340.76 99.5792 1340.81 99.5038C1341.92 99.6546 1342.62 100.661 1343.13 101.516C1343.5 101.591 1343.3 101.113 1342.93 100.585C1342.57 100.057 1341.97 99.5289 1342.98 99.202C1343.05 99.2774 1343.58 99.2271 1344.01 99.202C1344.43 99.1768 1344.86 99.1265 1345.26 99.0511C1346.07 98.9253 1346.85 98.7493 1347.65 98.4978C1349.24 98.0199 1350.9 97.3409 1352.96 96.511C1355.58 96.6367 1352.68 97.5673 1353.66 97.869L1355.7 96.2343C1356.26 96.184 1356.15 96.5864 1356.08 96.8128C1357.89 96.008 1355.98 95.2032 1358.87 94.2727C1359 93.7949 1359.47 93.6691 1360.15 93.6691C1360.88 93.6691 1361.91 93.82 1363.02 93.82C1365.26 93.9206 1368.05 93.5182 1369.53 91.6572C1370.69 91.5817 1369.53 92.7637 1370.06 93.1913C1372.5 91.2296 1373.38 90.2991 1374.14 89.4189C1374.89 88.5387 1375.52 87.6333 1376.65 85.4453C1377.86 84.8165 1379.04 84.0872 1380.17 83.2824C1377.28 84.6656 1378.91 80.9687 1379.44 77.8502C1378.44 78.328 1377.56 78.6298 1377.08 78.9064C1377.73 77.5232 1378.34 76.14 1378.74 74.7065C1379.22 74.3796 1379.52 75.0083 1379.74 75.9891C1379.77 75.637 1379.79 75.3353 1379.82 75.0586C1381.1 73.8766 1381.58 75.0083 1381.76 76.5424C1381.2 76.9197 1380.62 77.2717 1380.02 77.5484C1380.25 79.0825 1380.4 80.6418 1381.33 80.9938C1381.38 80.5915 1381.66 79.9879 1381.93 79.334C1381.98 79.7615 1382.06 80.0885 1382.28 80.0382C1382.51 79.9879 1382.54 79.3088 1382.61 78.3783C1383.34 78.3532 1384.05 78.2777 1384.77 78.2023L1384.3 77.5987L1388.12 72.5688C1388.22 71.3868 1388.24 70.2048 1388.27 69.0228V68.1174L1388.45 66.9605C1388.55 66.2312 1388.62 65.5019 1388.72 64.7474C1389.07 61.8804 1389.38 59.4157 1390.46 56.4984C1391.46 57.4289 1393.22 55.7691 1395.39 54.9643C1393.65 56.5738 1393.12 57.9822 1392.55 59.8433C1391.99 61.654 1391.36 64.018 1390.01 66.3318C1391.41 63.9677 1391.94 64.5713 1391.84 65.3007C1392.85 62.2073 1393.7 59.4157 1394.43 56.9259C1396.02 56.6241 1396.59 54.7631 1398.53 52.1224C1394.56 54.9894 1398.15 48.8782 1399.13 45.9608C1398.56 46.0866 1398.03 46.2375 1397.55 46.3884C1398.28 45.7848 1399.36 45.1058 1401.1 44.5776C1401.07 45.0555 1400.64 46.1117 1399.66 47.847C1401.35 45.8351 1401.88 44.6531 1401.83 44.0495C1399.96 44.6531 1397.83 45.6339 1396.09 46.3129C1394.33 47.0171 1392.97 47.4195 1392.12 46.9668C1393.17 46.7908 1393.53 46.8914 1394.53 46.3129C1392.8 46.9417 1390.76 47.2686 1389.3 47.3189C1387.87 47.3692 1386.96 47.168 1387.99 46.6399L1389.1 46.4638C1385.63 46.7908 1379.87 47.5955 1375.17 48.5512C1374.51 48.677 1374.19 48.7776 1373.78 48.8782C1373.38 48.9787 1373 49.1045 1372.65 49.2051C1371.92 49.4314 1371.27 49.6578 1370.72 49.8841C1369.58 50.362 1368.85 50.8901 1368.73 51.4434C1368.63 51.1667 1369.06 48.8027 1369.31 48.3249L1361.16 56.7247C1361.71 54.7882 1358.02 50.8901 1362.11 49.2805C1360.86 49.1799 1359.3 49.1045 1356.83 50.1105C1357.71 50.2614 1359.27 52.4494 1358.17 52.7763C1354.77 51.1919 1355.85 51.9967 1351.75 50.8146C1353.06 51.041 1352.06 54.0841 1350.09 54.2601C1350.34 53.7823 1349.54 51.4685 1350.22 51.0661L1348.56 52.3488L1352.76 57.4038C1352.41 56.5487 1352.11 55.5427 1351.88 54.3859C1352 55.6182 1353.97 55.7439 1354.8 55.7439C1354.44 55.6936 1354.85 54.7882 1355.2 53.9583C1355.7 53.908 1356.15 53.8577 1356.33 53.732C1355.88 53.5811 1355.4 53.4302 1354.87 53.2793C1356.46 53.2793 1356.71 52.223 1357.61 51.041C1358.8 49.8338 1360 48.5512 1362.77 48.2243C1362.19 48.9033 1361.66 52.0218 1364.5 51.9464C1365.56 50.3117 1369.13 44.2004 1373.83 42.3645L1374.89 43.0435L1378.49 41.5597C1376.5 44.0746 1370.67 49.5823 1367.37 51.8709C1369.53 52.1979 1368.1 52.7511 1371.19 52.1979C1372.4 52.8014 1369.68 53.6062 1368.78 53.8074L1376.07 53.2038C1375.49 51.5691 1381.35 50.6889 1380.85 49.356L1373.28 52.2733C1372.73 50.6386 1377.08 46.8411 1382.28 46.3632C1383.79 46.7908 1381.71 49.5069 1381.93 50.035C1382.16 49.7081 1383.54 49.2051 1384.87 48.7524C1386.21 48.2997 1387.47 47.8722 1387.79 47.9728C1387.09 48.5261 1386.33 49.0542 1385.55 49.532C1387.31 49.4566 1388.5 48.4506 1389.68 47.5201C1390.89 46.5896 1392.07 45.7093 1394.21 45.4075C1395.44 44.8794 1398.98 44.9297 1398.58 43.9237C1395.49 43.8231 1392.09 38.8184 1392.19 37.0077C1392.39 36.9574 1393.78 36.5298 1395.31 35.9011C1396.85 35.2724 1398.51 34.4424 1399.29 34.2161C1400.47 33.9394 1400.74 35.046 1400.87 36.2783C1400.97 37.4604 1400.97 38.743 1402.08 38.4663C1401.8 38.0891 1402.18 36.8065 1402.33 36.3035C1403.49 35.4233 1403.13 37.7118 1404.79 35.046C1403.76 33.7131 1408.14 29.7898 1404.39 33.0341C1405.5 30.2676 1406.23 30.494 1407.58 27.6773C1406.15 28.0545 1405.5 23.4522 1406.28 20.8618C1406.6 21.1887 1407.36 20.9372 1407.74 20.7863C1410.35 16.008 1412.77 12.9649 1415.41 7.80929C1416.24 7.07996 1418.42 3.93629 1419.03 4.33868C1418.98 3.7854 1418.37 3.6848 1419.13 2.10039C1419.13 2.10039 1419.13 2.10039 1419.1 2.10039C1418.63 1.49681 1419.43 1.27047 1420.66 1.01897C1420.26 2.02495 1419.48 3.6848 1421.95 1.01897C1421.44 1.29561 1421.29 1.06927 1421.29 0.566284C1418.73 1.37106 1415.41 2.12554 1413.09 2.88002C1412.34 4.08719 1415.28 3.35786 1418.7 2.40219C1418.63 3.05607 1418.55 3.65965 1418.47 4.13749C1416.89 5.14346 1415.68 5.29436 1414.75 5.19376C1411.41 6.70272 1408.19 8.03564 1405.72 8.91586C1402.45 9.87154 1405.6 7.5578 1404.84 7.96019C1401.78 8.18653 1400.09 9.3434 1399.16 10.2488L1398.48 10.8775C1398.48 10.8775 1398.28 11.0536 1398.15 11.129C1397.95 11.2296 1397.73 11.305 1397.5 11.3805C1396.59 11.6571 1395.44 11.7829 1393.75 11.632C1390.99 10.626 1393.27 8.99131 1392.57 8.08593C1395.89 7.13026 1398.08 8.21168 1399.89 7.93504C1399.08 7.83444 1398.28 7.70869 1397.3 7.63325C1398.25 7.05481 1400.59 6.40093 1401.7 6.65242C1400.87 6.14944 1397.3 6.57697 1393.53 7.02966C1389.7 7.48235 1385.4 8.03564 1382.28 7.88474C1381.25 8.48832 1379.47 9.1925 1380.42 9.62004L1382.33 9.16736C1384.25 10.0224 1378.91 11.1542 1381.4 11.3302C1378.91 12.4368 1376.2 14.0212 1372.48 13.8954L1371.6 12.4619C1371.72 12.8895 1374.09 13.0655 1375.04 12.4619C1373.61 13.3421 1369.18 11.129 1367.8 13.3673L1370.49 14.0966C1368 15.2032 1365.01 17.2654 1361.74 17.2151C1363.4 18.5229 1362.47 16.9385 1364.98 18.3972C1362.69 16.4607 1373.23 17.3912 1369.74 15.505C1372.35 17.2403 1373.91 15.8319 1377.23 17.1648C1377.08 16.6619 1376.02 16.3349 1378.74 16.2343C1378.84 16.0583 1379.12 15.8571 1379.27 15.7062C1379.34 15.7062 1379.39 15.7062 1379.44 15.7062L1379.29 15.6559C1379.29 15.6559 1379.42 15.5553 1379.24 15.6559C1378.56 15.5301 1378.01 15.3289 1377.76 15.0774C1378.94 13.7445 1383.24 13.2164 1384.62 12.4116C1386.26 12.4368 1384.02 13.0907 1384.98 13.493L1387.04 12.311C1387.39 13.3924 1391.54 13.5936 1387.87 14.7505L1391.29 14.3481C1393.38 14.7002 1396.17 14.5996 1397.8 13.8954C1398 13.8954 1398.23 13.8954 1398.43 13.82C1398.66 13.7697 1398.58 13.7445 1398.68 13.6942C1398.81 13.5936 1398.93 13.4427 1399.03 13.2918C1399.26 13.0152 1399.36 12.8643 1399.08 13.3421C1399.66 13.0404 1400.37 12.6883 1401.22 12.3613L1401.07 12.6631C1401.67 12.638 1402.45 12.3362 1403.41 12.0092C1404.37 11.6823 1405.52 11.305 1406.35 11.2045C1405.95 11.9589 1405.15 13.0404 1403.81 14.1469C1403.96 14.4487 1404.06 15.0774 1403.16 16.1337C1402.76 16.2343 1402.33 16.3098 1401.95 16.3601C1402 16.6367 1401.5 17.0894 1401.17 17.366C1401.07 17.4918 1401.1 17.366 1400.9 17.7181C1400.72 18.0199 1400.54 18.3217 1400.42 18.5984C1400.17 19.1516 1400.04 19.6295 1400.17 19.9564C1398.43 20.4594 1397.02 22.8989 1395.81 25.5647C1394.96 27.5012 1393.88 29.6138 1392.67 30.494L1393.53 31.4497C1391.99 32.9335 1390.66 34.4927 1388.52 36.3035L1389.23 37.2089C1388.37 38.2148 1386.79 38.743 1385 39.0196C1384.12 39.1454 1383.16 39.2208 1382.23 39.2963C1381.76 39.2963 1381.33 39.3466 1380.78 39.3969C1380.2 39.4472 1379.62 39.5226 1379.04 39.6232C1379.27 39.1454 1380.57 39.0951 1381.28 39.2208C1375.49 37.5358 1369.89 42.8172 1364.6 41.7357C1363.4 42.3393 1362.47 42.3393 1361.56 42.1884C1361.69 42.1884 1361.79 42.1381 1361.86 42.0878C1361.74 42.0878 1361.54 42.113 1361.34 42.1633C1360.76 42.0627 1360.15 41.9118 1359.5 41.8363C1360.08 42.0375 1360.61 42.1633 1361.06 42.2136C1360.1 42.3896 1358.64 42.7417 1357.24 43.2447L1356.43 42.1381C1356.28 42.1633 1356.13 42.2136 1355.98 42.2387C1353.49 42.1633 1354.32 43.0687 1355.65 43.798C1354.6 44.1501 1353.69 44.5273 1353.09 44.9297C1351.48 43.8986 1349.62 44.8291 1347.78 45.156C1347.48 46.1369 1347.08 46.8914 1346.22 47.1428C1346.45 48.4255 1345.42 51.9967 1344.99 54.8637L1343.78 62.8109L1349.69 60.5223C1351.02 60.0193 1352.13 59.3906 1352.31 58.4852C1352.38 58.7618 1352.83 58.8373 1352.06 58.963C1353.69 58.963 1355.35 58.9882 1356.71 58.2085L1357.61 59.6421L1360.83 57.102C1363.1 57.7307 1364.05 58.1583 1362.09 59.6169C1366.94 57.102 1366.14 58.3594 1370.24 55.9703L1370.16 56.9762C1371.72 56.7247 1374.01 55.0649 1375.07 55.7439C1376.42 56.2721 1377.76 56.2972 1379.74 56.1212C1381.63 55.9451 1384.07 55.5427 1385.93 55.4924C1385.08 56.9008 1384.07 58.3594 1382.99 59.5415C1385.3 58.2337 1384.55 58.9882 1383.64 59.8433C1382.74 60.6983 1381.83 61.3774 1383.16 61.3019C1382.18 61.7295 1381.5 62.1821 1381.08 61.7043C1381.05 62.5091 1380.4 63.1881 1380.02 63.666L1379.9 63.842C1379.9 63.842 1379.82 63.9678 1379.72 64.1689C1379.54 64.4959 1379.42 64.848 1379.29 65.2001C1379.07 65.9043 1378.94 66.6839 1379.02 67.6144C1378.16 67.7653 1378.56 66.2815 1377.98 66.5078C1377.96 66.9102 1377.86 68.0922 1377.28 68.3186C1376.7 68.5449 1377.08 67.4635 1377.13 66.6587C1375.09 70.909 1376.8 72.2922 1378.41 73.4993C1376.53 75.0335 1376.2 75.8131 1376.3 77.8753C1375.29 78.1017 1374.06 78.5795 1375.39 76.4418C1374.97 77.0202 1373.46 78.5544 1372 79.8873C1370.56 81.2453 1369.16 82.4022 1369.53 83.1064C1368.96 83.0561 1367.77 84.0872 1367.52 84.4393C1364.55 85.8225 1364.25 85.7974 1361.23 86.8285H1362.17C1361.39 89.0919 1359.68 87.9099 1356.81 88.5889L1356.86 88.3878C1350.02 88.1111 1354.12 89.5195 1347.35 89.0416L1347.91 90.1734C1347.8 91.5063 1346.32 91.3554 1344.38 91.1039C1343.91 91.0284 1343.38 90.9781 1342.88 90.9027C1342.35 90.8524 1341.89 90.7769 1341.14 90.8021C1339.78 90.8021 1338.35 90.9781 1337.24 91.4308L1339.28 91.7829C1338.27 92.3613 1336.44 91.9338 1333.9 91.4057C1332.46 92.3362 1330.58 93.7446 1329.87 95.329C1329.45 95.8822 1329.9 94.0715 1330.07 93.0152C1326.33 99.881 1330.28 95.8068 1329.82 99.5038L1328.67 108.935L1335.1 105.741C1335.31 105.64 1335.58 105.54 1335.93 105.464C1336.81 106.193 1335.31 107.753 1338.05 107.501C1339.51 107.979 1345.54 103.553 1349.52 104.609C1348.58 104.081 1347.68 103.553 1349.52 102.798C1350.95 102.471 1352.99 102.798 1354.95 102.874C1355.43 102.899 1355.95 102.899 1356.38 102.874C1356.61 102.874 1356.81 102.874 1357.01 102.823C1357.41 102.723 1357.79 102.446 1358.27 101.843C1358.42 101.994 1358.44 102.17 1358.39 102.346C1359.6 101.616 1362.59 100.812 1364.91 99.3277C1363.55 101.264 1364.58 101.063 1366.72 100.359C1366.77 101.415 1367.12 103.402 1364 104.584L1362.64 107.728L1362.27 107.627C1361.96 108.105 1361.76 108.482 1361.66 108.859C1361.61 109.035 1361.56 109.211 1361.54 109.387V109.639C1361.49 109.79 1361.44 109.941 1361.41 110.066C1361.18 111.223 1361.23 112.104 1361.31 113.009C1360.61 113.789 1360.63 112.984 1360.48 112.808C1358.69 115.448 1357.71 117.058 1357.19 118.441C1356.71 119.749 1356.51 121.082 1355.75 123.572L1354.49 123.144C1354.34 123.848 1352.66 125.081 1350.47 126.237C1348.28 127.445 1345.67 128.526 1343.4 130.035C1343.4 129.884 1343.43 129.633 1343.76 129.331C1342.47 130.186 1340.99 130.538 1339.18 130.664C1337.22 130.815 1335.21 130.815 1333.37 130.89C1329.67 131.041 1326.58 131.494 1325.7 133.933L1321.3 135.845C1327.31 135.166 1320.74 137.932 1323.33 138.259C1321.05 138.938 1317.05 137.957 1319.89 137.228L1320.37 137.379C1321.02 134.864 1312.82 137.831 1312.72 136.222C1306.89 137.303 1301.05 138.007 1295.32 138.661C1292.48 138.988 1289.66 139.315 1286.87 139.642C1285.51 139.743 1284.33 139.843 1283.12 140.019C1282.87 140.673 1282.72 141.327 1282.64 141.981L1280.3 142.283C1280.08 141.88 1281.08 140.698 1282.29 140.547C1282.37 139.994 1281.74 140.346 1280.81 140.9C1279.9 141.453 1278.67 142.258 1278.37 142.509C1277.21 142.333 1278.49 141.553 1279.57 140.925C1280.71 140.271 1281.69 139.743 1281.39 139.768L1280.3 140.095L1280.2 140.321C1278.34 141.403 1276.83 142.484 1275.1 142.685C1274.67 142.383 1276.88 141.227 1276.63 141.201C1276.91 141.025 1276.93 140.95 1276.18 141.201L1275.3 141.277H1274.87L1274.77 141.327L1275.15 141.025L1272.91 142.333L1271.5 143.314C1269.41 144.194 1270.7 143.389 1270.6 143.364C1270.62 143.289 1270.17 143.49 1267.43 145.15C1269.59 143.842 1271.35 142.761 1272.71 141.704C1274.72 140.195 1276.08 138.837 1277.24 137.454C1278.39 136.121 1279.25 134.864 1279.85 134.562C1279.73 133.807 1280.08 132.902 1280.56 131.972C1280.61 131.821 1280.83 131.443 1281.06 131.066C1281.28 130.689 1281.51 130.337 1281.74 129.96C1282.22 129.205 1282.69 128.425 1283.17 127.596C1282.44 128.3 1280.76 127.973 1282.49 125.206C1284.96 127.872 1286.57 120.478 1289.68 118.768C1288.45 119.623 1289.33 117.36 1289.84 115.172C1290.41 113.009 1290.67 110.972 1289.08 112.456C1290.09 109.865 1290.34 112.657 1291.67 110.821C1292 107.401 1292.88 103.829 1293.73 100.007C1294.54 96.1589 1295.24 92.0092 1294.89 87.8093C1294.44 87.7087 1293.81 89.0919 1293.11 87.3315C1293.78 85.8728 1294.51 84.3639 1295.07 82.8297C1294.66 81.1699 1292.43 81.5723 1293.56 78.4035C1293.26 78.8813 1292.8 79.5603 1292.48 78.5041C1292.38 70.3305 1289.51 62.2576 1285.69 54.914C1281.76 47.5452 1277.14 40.7801 1272.76 33.3359C1273.69 35.5742 1272.63 34.4927 1271.38 33.3359C1272.03 34.2664 1270.57 34.0903 1270.32 34.6688L1268.46 31.676L1266.4 28.7587C1264.43 29.1359 1260.49 24.2067 1258.93 25.1623C1259.58 25.4893 1260.26 25.7911 1260.86 26.1683C1257.54 25.9923 1261.52 31.9275 1259.61 33.4868C1261.44 33.5874 1262.42 35.5239 1263.58 37.4604C1264.69 39.4723 1265.92 41.4842 1268.63 42.3142C1268.99 43.4207 1267.45 42.1633 1267.4 42.9429C1269.01 43.119 1270.12 44.1752 1271.43 46.6147L1271.02 46.5393C1272.26 47.9979 1273.11 49.4063 1273.94 50.6638C1274.7 51.9715 1275.3 53.2541 1275.9 54.5368C1276.48 55.8445 1276.93 57.2277 1277.54 58.7115C1278.04 60.2456 1278.64 61.9558 1279.25 63.9678L1280.13 62.9366C1280.61 64.7222 1280.4 65.2001 1280.43 66.1054C1282.87 67.4635 1278.72 61.2516 1281.26 62.3079C1280.56 63.9426 1281.79 66.9102 1282.54 69.9533C1283.02 71.4371 1283.27 72.9712 1283.37 74.2287C1283.47 75.4861 1283.3 76.4921 1282.67 77.0202C1283.1 79.7615 1283.9 75.964 1284.33 78.7304L1283.72 79.5855L1284.78 80.1639C1284.83 82.025 1283.98 83.0561 1283.35 83.1567C1283.37 82.704 1283.05 81.9244 1282.94 81.4717C1282.59 82.6789 1282.89 84.2884 1283.1 85.7471C1283.3 87.1806 1283.55 88.4632 1283.42 88.8656L1283.8 86.1998C1284.38 89.9722 1284.1 94.1972 1283.67 98.372C1283.2 102.547 1282.37 106.571 1282.06 110.368L1282.77 109.991C1281.94 115.75 1280.83 114.166 1278.74 120.051V119.799C1278.74 121.182 1278.22 122.817 1277.29 124.301C1277.46 122.591 1274.75 126.288 1275.1 124.1C1274.6 125.558 1274.22 126.439 1274.04 127.093C1273.99 127.243 1273.97 127.394 1273.92 127.52C1273.84 127.721 1273.79 127.897 1273.74 128.048C1273.64 128.375 1273.59 128.551 1273.56 128.778C1273.49 129.532 1273.51 130.161 1273.01 132.676L1271.15 133.581C1270.92 135.266 1271.23 135.392 1268.84 138.536C1269.31 137.328 1268.33 137.907 1267.15 138.536C1266.6 138.862 1265.94 139.189 1265.54 139.265C1265.19 139.315 1265.06 139.089 1265.52 138.234C1264.11 139.315 1262.83 140.296 1261.62 141.226C1260.34 142.232 1259.2 143.163 1258.22 144.018C1256.31 145.703 1254.73 147.212 1253.62 148.394C1251.28 150.859 1250.78 151.89 1246 154.983C1245.57 155.411 1244.84 155.989 1243.84 156.744C1246.5 155.713 1247.66 155.084 1248.64 154.505C1249.67 153.927 1249.7 153.525 1249.7 153.172C1252.82 150.783 1255.26 148.444 1254.93 149.149C1256.84 147.941 1257.64 147.765 1257.97 147.941C1258.27 148.117 1258.1 148.646 1257.47 149.35C1257.59 149.526 1257.62 149.802 1257.12 150.18C1256.51 150.783 1253.34 152.669 1251.03 154.354C1250.8 154.53 1250.33 154.832 1250.33 154.933C1250.33 155.033 1250.33 155.134 1250.33 155.235C1250.38 155.411 1250.55 155.562 1250.88 155.662C1251.51 155.863 1252.77 155.838 1254.88 155.461C1254.07 155.587 1253.6 155.863 1252.79 155.989C1253.62 156.19 1255.71 155.587 1257.64 155.084C1259.61 154.581 1261.42 154.128 1262.5 154.48C1264.81 153.298 1265.92 153.122 1266.97 152.896C1268.03 152.669 1268.99 152.418 1270.45 151.16L1262.88 152.946C1265.34 152.267 1268.28 151.01 1270.92 150.054C1273.61 149.073 1275.85 148.369 1278.29 148.52C1277.61 149.048 1275.4 149.953 1273.82 150.532C1275.2 150.884 1277.64 149.475 1279.17 149.828C1278.39 150.984 1276.03 151.487 1273.24 152.041C1270.4 152.594 1267.28 153.122 1263.78 154.48C1264.33 154.807 1267.18 153.952 1269.04 153.424C1270.9 152.896 1272.03 152.669 1269.69 154.178C1272.88 152.242 1274.67 152.016 1276.93 151.789C1279.12 151.588 1281.94 151.337 1284.81 149.777L1284.3 151.085C1285.26 150.733 1287.19 149.828 1288.7 149.601C1287.9 150.255 1286.84 150.959 1285.76 151.689C1286.39 151.412 1286.99 151.211 1287.6 151.035C1288.15 150.884 1288.91 150.733 1289.16 150.708C1289.89 150.607 1290.64 150.658 1291.39 150.708C1292.9 150.808 1294.39 151.01 1295.77 150.406C1289.71 151.487 1294.16 149.224 1291.45 148.822C1298.64 145.955 1296.27 151.16 1304.55 149.149C1303.44 149.501 1300.17 149.174 1301.86 148.319C1303.49 148.293 1305.68 148.369 1306.76 148.822C1312.27 147.614 1305.7 147.765 1307.94 146.634C1310.08 147.74 1310.56 145.577 1312.92 144.697L1313.15 145.879C1319.59 145.552 1314.38 143.088 1320.24 143.037L1318.13 145.099L1321.02 144.169L1320.64 145.628C1323.69 144.068 1324.74 144.144 1327.96 143.993C1327.08 143.289 1327.99 141.755 1330.78 141.226C1332.82 141.604 1329.9 142.559 1333.85 141.679C1333.09 142.585 1332.26 143.691 1330.35 142.886C1330.25 143.314 1329.6 143.792 1329.47 144.194C1331.66 144.647 1334.65 143.49 1336.09 143.238C1335.53 143.289 1334.85 143.339 1334.48 143.238L1339.93 140.598C1340.91 140.9 1340.26 141.377 1339.61 141.855C1340.74 141.528 1341.39 140.874 1343.45 140.321C1343.3 140.849 1343.33 141.377 1343 141.88C1342.72 142.383 1341.89 142.937 1340.81 143.339L1343.86 142.182C1344.94 141.729 1345.99 141.252 1347 140.698C1347.55 141.025 1350.72 140.522 1350.04 141.201C1351.98 140.673 1353.97 139.139 1355.8 137.354C1357.66 135.568 1359.37 133.581 1361.41 132.022C1361.46 131.695 1361.69 131.192 1362.29 130.312C1363.9 128.627 1365.48 126.992 1366.82 125.03C1367.14 124.527 1367.45 124.024 1367.75 123.496C1367.97 123.069 1368.2 122.616 1368.4 122.138C1368.8 121.208 1369.13 120.177 1369.33 118.994L1372.07 117.486C1372.7 115.801 1371.82 116.329 1371.02 116.58C1370.62 116.706 1370.26 116.756 1370.11 116.429C1370.04 116.278 1370.04 116.002 1370.11 115.624C1370.14 115.423 1370.21 115.197 1370.29 114.92C1370.39 114.619 1370.41 114.442 1370.69 113.839C1373.08 107.878 1373.28 112.053 1374.92 109.916C1375.29 108.205 1375.62 106.068 1376.32 103.804C1377.05 101.516 1378.16 99.1517 1380.65 95.832C1380.2 97.4667 1379.07 99.1014 1378.36 100.786L1378.21 100.635ZM1339.18 94.5745C1339.98 94.1972 1341.54 93.1661 1342.27 93.7697C1341.52 95.2787 1340.69 94.7505 1339.18 94.5745ZM1384.62 73.1724C1384.7 73.9269 1384.07 74.7065 1383.16 75.4861C1383.44 74.7317 1383.89 73.9269 1384.62 73.1724ZM1393.73 13.2667C1393.73 13.2667 1393.78 13.2164 1393.8 13.1912C1395.74 13.4176 1395.06 13.317 1393.73 13.2667ZM1389.75 13.2667C1389.38 13.493 1389.43 13.6439 1389.63 13.7948C1389.85 13.4427 1390.73 13.317 1391.74 13.2667C1391.41 12.9901 1390.89 12.8392 1389.75 13.2667ZM1275.27 141.805L1274.97 142.182C1273.29 142.836 1274.24 142.333 1275.27 141.805Z" fill="black"/>
<path d="M1382.08 81.0441C1381.76 81.1447 1381.53 81.0692 1381.3 80.9938C1381.25 81.4213 1381.43 81.5722 1382.08 81.0441Z" fill="black"/>
<path d="M1361.39 131.72L1361.26 131.821C1361.26 131.821 1361.26 132.022 1361.31 132.097L1361.41 131.72H1361.39Z" fill="black"/>
<path d="M1403.66 37.5609C1402.93 38.1896 1402.4 38.4159 1402 38.5417C1402.18 38.768 1402.71 38.6674 1403.66 37.5609Z" fill="black"/>
<path d="M1369.31 18.0703L1371.77 17.4164C1370.56 17.6428 1370.11 17.4164 1369.46 17.3158C1369.56 17.5925 1370.09 17.9446 1369.31 18.0452V18.0703Z" fill="black"/>
<path d="M1346.57 13.5183C1346.22 13.7194 1345.79 13.644 1345.47 13.8452L1345.64 14.3985C1347.2 14.147 1348.23 13.5685 1346.57 13.5434V13.5183Z" fill="black"/>
<path d="M1366.47 14.3733C1366.14 13.3925 1364.6 13.9458 1362.87 14.3733C1362.97 14.3733 1363.07 14.323 1363.17 14.323C1362.84 15.8068 1364.65 15.1027 1366.44 14.3733H1366.47Z" fill="black"/>
<path d="M1362.47 14.4488C1361.94 14.5745 1361.39 14.6751 1360.86 14.7003C1360.73 15.3038 1361.54 14.7254 1362.47 14.4488Z" fill="black"/>
<path d="M1384.88 14.5996C1384.02 14.4487 1384.52 15.9576 1383.99 15.6055C1383.24 17.0139 1389.33 13.317 1384.88 14.5996Z" fill="black"/>
<path d="M1364.6 11.2296L1365.38 12.4116L1366.24 11.2547L1364.6 11.2296Z" fill="black"/>
<path d="M1378.56 10.2991H1375.72C1375.8 10.5254 1375.44 10.7015 1375.02 10.8523C1376.75 10.6763 1378.66 10.6512 1378.56 10.2991Z" fill="black"/>
<path d="M1375.02 10.8523C1374.11 10.9529 1373.26 11.0786 1372.78 11.3553C1373.26 11.2798 1374.31 11.1038 1375.02 10.8523Z" fill="black"/>
<path d="M1368.38 10.3494L1369.23 10.5003L1371.22 10.3242L1368.38 10.3494Z" fill="black"/>
<path d="M1407.38 6.72799L1410.55 5.94836C1411.43 5.39508 1410.95 5.19388 1409.62 5.54598C1408.57 5.99866 1407.36 6.32561 1407.38 6.72799Z" fill="black"/>
<path d="M1399.44 4.28842C1400.44 4.41417 1400.47 4.69081 1400.92 5.06805L1401.35 3.43334L1399.44 4.28842Z" fill="black"/>
<path d="M1410.8 2.42747C1411.48 1.89934 1418.17 0.189182 1412.69 1.01911C1411.73 1.5724 1407.48 2.50292 1410.8 2.42747Z" fill="black"/>
<path d="M1396.95 38.3656C1397.15 38.1896 1397.35 38.0136 1397.52 37.8124L1395.71 36.0016C1396.14 36.7812 1396.54 37.5609 1396.95 38.3405V38.3656Z" fill="black"/>
<path d="M1358.59 55.1404C1362.29 55.1907 1359.22 53.4554 1362.59 53.7069C1363.35 52.9776 1359.83 53.4806 1360.63 52.8518C1358.54 53.8075 1357.34 53.6315 1358.59 55.1404Z" fill="black"/>
<path d="M1360.61 52.8267C1360.93 52.6758 1361.28 52.4998 1361.66 52.2735C1361.06 52.5249 1360.78 52.701 1360.61 52.8267Z" fill="black"/>
<path d="M1263.38 24.6846C1262.8 24.0308 1262.27 23.3266 1261.64 22.723C1261.95 23.2511 1262.2 23.8296 1262.47 24.3828L1263.38 24.6595V24.6846Z" fill="black"/>
<path d="M1258.35 23.4523L1258.75 21.7673L1256.69 22.1697C1257.19 22.4212 1258.17 22.9242 1258.32 23.4523H1258.35Z" fill="black"/>
<path d="M1342.67 103.503L1342.32 103.301C1342.07 103.251 1341.95 103.301 1341.84 103.402L1333.07 93.0154C1333.34 93.0154 1333.72 92.9903 1334.17 92.94L1332.99 92.5627L1342.27 103.528C1342.4 103.528 1342.55 103.503 1342.67 103.478V103.503Z" fill="black"/>
<path d="M1371.45 87.5829L1370.51 87.6835C1370.74 88.1362 1370.89 88.614 1371.02 89.0918C1371.19 88.5889 1371.34 88.0607 1371.47 87.5577L1371.45 87.5829Z" fill="black"/>
<path d="M1375.09 113.713C1376.15 111.802 1376.95 109.488 1377.98 107.602C1376.1 111.903 1373.08 113.613 1375.09 113.713Z" fill="black"/>
<path d="M166.015 31.852C167.072 31.9023 166.543 32.8831 166.694 33.1095C164.984 32.6568 166.116 31.6005 166.015 31.852Z" fill="black"/>
<path d="M149.19 27.1994L149.442 27.6521L147.053 26.294L149.19 27.1994Z" fill="black"/>
<path d="M133.17 25.087C134.931 23.5026 138.929 26.1432 141.872 25.8918L142.4 25.5397L143.507 27.1492C140.061 26.4702 135.685 24.9109 133.17 25.087Z" fill="black"/>
<path d="M124.116 27.8032C124.745 27.1744 122.356 26.9732 126.128 27.8535C125.927 27.9038 125.852 27.9289 125.751 27.9792C125.399 27.9289 124.921 27.8535 124.116 27.8032Z" fill="black"/>
<path d="M125.751 27.9792C127.436 28.2558 124.569 28.4067 125.751 27.9792V27.9792Z" fill="black"/>
<path d="M118.005 26.5457L120.143 27.4511C119.615 27.8032 117.628 27.6272 118.332 28.0295C116.094 27.3757 116.622 27.0487 118.005 26.5457Z" fill="black"/>
<path d="M116.069 24.9613L117.175 25.3637C116.949 25.5146 116.647 25.5398 116.069 24.9613Z" fill="black"/>
<path d="M119.564 26.2438L117.2 25.3636C117.553 25.1121 117.678 24.5588 118.307 25.7157C118.181 25.1624 118.584 25.7157 119.59 26.2438H119.564Z" fill="black"/>
<path d="M120.973 26.1682C122.281 25.9419 123.915 25.9167 121.778 25.0114C126.003 25.8161 125.198 26.9982 120.973 26.1682Z" fill="black"/>
<path d="M132.592 23.1252L134.327 22.8234L135.685 23.603C135.006 23.2006 132.416 23.6533 132.592 23.1252Z" fill="black"/>
<path d="M104.022 25.6151C103.922 25.2127 104.902 24.7097 105.129 24.2319L106.713 24.8858C105.833 25.0367 104.198 25.0618 104.022 25.6151Z" fill="black"/>
<path d="M105.129 24.257L102.765 23.2762C104.978 23.5025 105.33 23.8546 105.129 24.257Z" fill="black"/>
<path d="M115.943 22.924L119.791 24.8353L115.163 22.8234L115.943 22.924Z" fill="black"/>
<path d="M94.6414 24.433L95.924 25.4893L93.6103 23.8294L94.6414 24.433Z" fill="black"/>
<path d="M88.4295 23.4522C89.36 24.3072 86.8451 24.4833 87.8762 25.0869C86.1912 24.7348 84.8331 23.9048 83.6259 23.1755C84.9589 23.6785 86.4427 23.7791 88.4295 23.4522Z" fill="black"/>
<path d="M81.5637 22.0691C82.2427 22.3457 82.8966 22.748 83.6259 23.1755C82.9218 22.8989 82.2176 22.5721 81.5637 22.0691Z" fill="black"/>
<path d="M98.5647 22.8988C98.3383 23.1 97.9108 23.6533 96.4773 23.7287L97.5838 22.7982C97.8856 22.8234 98.2126 22.8737 98.5647 22.8988Z" fill="black"/>
<path d="M97.6342 22.748H97.5839C96.5276 22.6725 95.7983 22.5971 95.4965 22.5719C95.7731 22.5719 96.4018 22.6474 97.6342 22.748Z" fill="black"/>
<path d="M98.8163 22.9241C98.8163 22.9241 98.6653 22.924 98.5647 22.8988C98.6653 22.7982 98.7408 22.7732 98.8163 22.9241Z" fill="black"/>
<path d="M109.354 23.0498C107.996 22.2702 105.053 21.2139 108.096 20.7109C109.027 21.566 107.292 21.8678 109.354 23.0498Z" fill="black"/>
<path d="M100.174 21.7673L102.815 21.8679C102.714 22.1445 102.211 22.4966 102.865 22.8739L100.149 21.7673H100.174Z" fill="black"/>
<path d="M98.9419 21.239L100.174 21.7673L99.1934 21.7168L98.9419 21.239Z" fill="black"/>
<path d="M86.1662 21.6665C85.1099 21.0629 83.8776 20.8617 82.4944 20.5851C84.0034 20.5851 85.5626 20.6605 87.0464 20.8617C87.1973 21.2138 87.7758 21.918 86.1662 21.6665Z" fill="black"/>
<path d="M91.7493 22.0942C91.7493 22.0942 91.5733 22.0187 91.4978 21.9936C91.6739 21.9181 91.7996 21.9181 91.7493 22.0942Z" fill="black"/>
<path d="M68.7629 18.7745L69.0144 18.5985L69.0395 18.7997L68.7629 18.7745Z" fill="black"/>
<path d="M87.2979 20.6857C88.4547 20.6354 89.0835 20.9874 89.687 21.3898C88.8571 21.1635 87.9769 20.9874 87.0212 20.8365C86.9458 20.6857 86.9458 20.5599 87.2979 20.6605V20.6857Z" fill="black"/>
<path d="M77.7913 21.063C78.3948 20.9121 79.099 20.8115 79.8032 20.7361C79.1996 20.9876 77.9422 21.3648 77.7913 21.063Z" fill="black"/>
<path d="M91.0954 22.245L91.2463 22.3204C90.8439 22.4965 90.9193 22.3959 91.0954 22.245Z" fill="black"/>
<path d="M91.0954 22.245C90.5421 22.0187 90.1146 21.6916 89.687 21.3898C90.3661 21.5659 90.9697 21.7672 91.4978 21.9936C91.3469 22.0439 91.1959 22.1445 91.0702 22.2451L91.0954 22.245Z" fill="black"/>
<path d="M65.5185 11.3806C65.594 12.3866 68.4107 13.6944 71.1017 12.9902C73.516 14.0716 71.4286 17.0895 69.0143 18.6236C69.0143 18.1709 69.0395 17.7937 66.5497 16.8632C67.5305 16.4356 72.4346 16.3602 70.3724 15.1782C67.0275 14.2225 67.5305 15.1782 65.7952 15.4548C67.3796 14.4237 61.6958 13.0908 62.6767 11.3806L65.594 12.4117C65.6946 12.1351 64.6635 11.5567 65.5185 11.4058V11.3806Z" fill="black"/>
<path d="M73.9436 19.1516L74.9999 19.4031C73.7676 19.4031 72.8371 19.7049 71.1521 20.2582C69.4419 19.554 69.1401 19.1265 69.0647 18.7744L74.3209 19.3277L73.9688 19.1265L73.9436 19.1516Z" fill="black"/>
<path d="M79.7531 20.0572C79.0741 18.8752 76.5843 18.0704 78.2944 17.1147C81.3878 17.5926 80.3567 18.2968 82.1674 19.0261C77.1879 18.0956 83.5255 19.8057 79.8285 19.9315C80.7842 20.2333 81.6645 20.409 82.4944 20.5851C81.5639 20.5851 80.6836 20.6356 79.8285 20.7362C79.8788 20.7362 79.904 20.7111 79.9543 20.6859C80.1806 20.5853 80.2812 20.5099 80.0046 20.5602C80.0046 20.5602 79.9291 20.535 79.904 20.535C79.904 20.3842 79.8034 20.2333 79.7279 20.1075C78.2441 20.1327 79.4513 20.359 79.904 20.535C79.904 20.5853 79.9543 20.6356 79.9543 20.7111L74.9999 19.4536C76.0813 19.4536 77.4142 19.6548 79.7531 20.0824V20.0572Z" fill="black"/>
<path d="M105.732 18.0198C105.556 18.0953 105.556 18.1707 105.531 18.2462C105.229 18.0701 105.104 17.9695 105.732 18.0198Z" fill="black"/>
<path d="M103.569 18.3972C103.921 18.5984 104.173 19.0763 105.38 19.1014C106.462 18.9254 105.456 18.5984 105.556 18.2463C106.235 18.6236 107.971 19.3529 105.657 19.5793L105.33 19.3781C103.242 19.4787 100.476 20.4595 100.803 20.6607C101.532 19.7804 102.136 19.1517 103.62 18.3721L103.569 18.3972Z" fill="black"/>
<path d="M91.5481 18.9253L87.4236 17.8438L89.687 17.19L89.511 17.7432C91.9253 17.8438 91.3217 18.4726 91.5481 18.9253Z" fill="black"/>
<path d="M68.2095 19.2271L68.6119 20.4343L66.4239 18.5229L68.2095 19.2271Z" fill="black"/>
<path d="M62.7771 18.3722L62.8526 19.4033L61.4945 18.5986L62.7771 18.3722Z" fill="black"/>
<path d="M56.6156 90.123L54.4528 89.4943C55.4587 89.7458 56.1378 89.9218 56.6156 90.123Z" fill="black"/>
<path d="M69.6681 92.0345L69.819 92.5626C69.4418 92.2357 69.316 92.0093 69.6681 92.0345Z" fill="black"/>
<path d="M62.5761 41.8114C63.5318 41.4844 64.5881 41.0317 65.3174 40.8054C65.8958 40.5539 67.0275 40.6293 66.6503 41.1575C66.2982 41.4593 65.7952 41.7611 65.6192 42.1132C64.3869 41.7359 63.4312 41.7108 62.5761 41.8114Z" fill="black"/>
<path d="M42.5573 77.825C42.3812 77.7244 42.18 77.6489 42.004 77.5483C42.0794 76.9699 42.1549 76.4418 42.2806 75.9639C42.3309 76.5424 42.4566 77.146 42.5824 77.825H42.5573Z" fill="black"/>
<path d="M39.5895 81.5221C40.2937 82.1509 41.0733 82.7042 41.8278 83.2575C41.2745 82.9305 40.4949 82.4275 39.5895 81.5221Z" fill="black"/>
<path d="M60.6897 132.097L61.2178 134.185C59.1304 132.148 60.4633 132.651 60.6897 132.097Z" fill="black"/>
<path d="M17.2822 11.9337C17.3074 12.1097 17.3325 12.2355 17.3325 12.3361C17.7349 12.7888 17.9612 13.0654 18.1121 13.2918C17.5337 12.7636 16.8295 12.1349 16.3517 11.6319C16.2008 11.3301 16.3768 11.2798 17.2822 11.9337Z" fill="black"/>
<path d="M64.3617 103.025C64.0097 102.773 63.7833 102.522 63.733 102.245C64.1606 102.497 64.3869 102.748 64.3617 103.025Z" fill="black"/>
<path d="M18.766 14.5495C18.59 14.3986 18.4391 14.2728 18.263 14.1471C18.3636 13.9207 18.4391 13.7444 18.1121 13.2918C19.093 14.1971 19.6463 14.6249 18.766 14.5746V14.5495Z" fill="black"/>
<path d="M139.181 81.3962C139.181 81.3962 139.131 81.1196 139.08 81.019C139.231 81.019 139.231 81.1699 139.181 81.3962Z" fill="black"/>
<path d="M152.46 31.7012C152.032 32.0281 151.403 32.6568 150.775 33.2353C151.001 32.9083 151.504 32.4305 152.46 31.7012Z" fill="black"/>
<path d="M40.7967 15.9325C41.9535 16.1588 40.9727 16.0834 40.7967 15.9325V15.9325Z" fill="black"/>
<path d="M46.9835 12.4116C46.7572 12.2607 46.5811 12.0846 46.5811 11.8331C46.6314 12.1098 46.7823 12.2858 46.9835 12.4116Z" fill="black"/>
<path d="M14.3395 20.8366C14.3395 20.8366 14.3646 20.8869 14.3898 20.9372C14.0377 20.7109 14.1131 20.7612 14.3395 20.8366Z" fill="black"/>
<path d="M42.6076 15.6811C42.1549 15.7565 41.6519 15.8068 41.0986 15.8068C41.3501 15.7565 41.8028 15.7062 42.6076 15.6811Z" fill="black"/>
<path d="M42.3057 16.1591C42.7081 16.1591 43.0351 16.1591 43.3369 16.1842C43.4626 16.3854 43.3369 16.486 42.3057 16.1591Z" fill="black"/>
<path d="M39.2122 15.6559C39.866 15.7565 40.4948 15.7816 41.0984 15.7816C40.872 15.8319 40.7463 15.8822 40.8217 15.9074C40.4948 15.8571 40.0169 15.7565 39.2122 15.6307V15.6559Z" fill="black"/>
<path d="M148.335 150.381C148.335 150.381 148.511 150.356 148.562 150.305C150.574 151.11 149.819 150.909 148.335 150.381Z" fill="black"/>
<path d="M59.7846 49.2302C59.7846 49.2302 59.86 49.2805 59.9103 49.3056C59.86 49.3056 59.7846 49.3056 59.7343 49.3056L59.7846 49.2302Z" fill="black"/>
<path d="M55.7353 47.8471C57.3197 49.4315 58.3509 49.4064 59.7089 49.3058L57.8982 52.2231L55.7102 47.822L55.7353 47.8471Z" fill="black"/>
<path d="M43.7895 100.635L40.1428 95.6559C40.671 100.233 43.8901 105.338 39.6147 99.9564C41.1237 100.132 40.2686 97.6176 38.8351 94.4739C37.4016 91.3554 35.289 87.3818 34.61 85.2441C36.9992 85.8477 39.0363 86.6273 40.5201 87.7087C41.174 87.5578 41.8781 87.4321 42.6326 87.3063C41.7524 87.2057 41.3249 86.9291 40.4446 86.8285C42.4566 86.3004 44.6446 87.256 46.8326 88.3626C49.096 89.4692 51.3846 90.7518 54.7295 91.0033C57.018 91.0787 58.6779 90.8272 56.6408 90.1231L62.8024 91.9087C64.4371 92.0847 64.0096 91.4308 62.2994 91.2296L66.8011 92.0596L69.8442 92.6631V92.5625C70.5484 93.2164 72.2585 94.323 73.1136 94.8008C74.6226 94.5242 72.4346 94.323 72.8873 93.9709L75.9052 95.2787C77.3135 94.5996 74.8489 93.3422 72.6358 93.141C76.0812 90.2237 75.1256 94.3984 81.765 93.3925L78.8477 92.5122C81.0608 90.8775 83.2739 91.9338 86.82 91.2548C85.9398 91.7578 79.6273 93.2416 82.9219 94.5996C83.9278 94.499 85.2104 94.5745 86.9457 95.5302C87.0715 94.826 87.7002 94.7254 88.6559 94.8511L81.8907 102.849C81.765 102.547 81.7147 102.144 81.5889 101.717L80.1806 102.597C80.3315 101.566 81.0105 101.038 81.3626 99.8055C81.3123 99.6798 81.2368 99.5792 81.1865 99.5038C80.08 99.6546 79.3758 100.661 78.8728 101.516C78.4956 101.591 78.6968 101.113 79.074 100.585C79.4261 100.057 80.0297 99.5289 79.0237 99.202C78.9483 99.2774 78.4201 99.2271 77.9926 99.202C77.565 99.1768 77.1375 99.1265 76.7351 99.0511C75.9303 98.9253 75.1507 98.7493 74.3459 98.4978C72.7615 98.0199 71.1017 97.3409 69.0394 96.511C66.4239 96.6367 69.3161 97.5673 68.3352 97.869L66.2981 96.2343C65.7449 96.184 65.8455 96.5864 65.9209 96.8128C64.1102 96.008 66.0215 95.2032 63.1293 94.2727C63.0036 93.7949 62.5257 93.6691 61.8467 93.6691C61.1174 93.6691 60.0863 93.82 58.9797 93.82C56.7414 93.9206 53.9498 93.5182 52.466 91.6572C51.3091 91.5817 52.466 92.7637 51.9379 93.1913C49.4984 91.2296 48.6182 90.2991 47.8637 89.4189C47.1092 88.5387 46.4805 87.6333 45.3488 85.4453C44.1416 84.8165 42.9596 84.0872 41.8279 83.2824C44.72 84.6656 43.0853 80.9687 42.5572 77.8502C43.5632 78.328 44.4434 78.6298 44.9212 78.9064C44.2673 77.5232 43.6637 76.14 43.2614 74.7065C42.7835 74.3796 42.4817 75.0083 42.2554 75.9891C42.2302 75.637 42.2051 75.3353 42.1799 75.0586C40.8973 73.8766 40.4195 75.0083 40.2434 76.5424C40.7967 76.9197 41.3752 77.2717 41.9787 77.5484C41.7524 79.0825 41.6015 80.6418 40.671 80.9938C40.6207 80.5915 40.344 79.9879 40.0674 79.334C40.0171 79.7615 39.9417 80.0885 39.7153 80.0382C39.489 79.9879 39.4638 79.3088 39.3884 78.3783C38.659 78.3532 37.9548 78.2777 37.2255 78.2023L37.7034 77.5987L33.8807 72.5688C33.7801 71.3868 33.7549 70.2048 33.7298 69.0228V68.1174L33.5537 66.9605C33.4531 66.2312 33.3777 65.5019 33.2771 64.7474C32.925 61.8804 32.6232 59.4157 31.5418 56.4984C30.5358 57.4289 28.7753 55.7691 26.6125 54.9643C28.3478 56.5738 28.8759 57.9822 29.4544 59.8433C30.0077 61.654 30.6364 64.018 31.9945 66.3318C30.5861 63.9677 30.058 64.5713 30.1586 65.3007C29.1526 62.2073 28.2975 59.4157 27.5682 56.9259C25.9838 56.6241 25.4053 54.7631 23.4688 52.1224C27.4424 54.9894 23.8461 48.8782 22.8652 45.9608C23.4437 46.0866 23.9718 46.2375 24.4497 46.3884C23.7203 45.7848 22.6389 45.1058 20.9036 44.5776C20.9288 45.0555 21.3563 46.1117 22.3371 47.847C20.6521 45.8351 20.124 44.6531 20.1743 44.0495C22.0353 44.6531 24.173 45.6339 25.9083 46.3129C27.6688 47.0171 29.0268 47.4195 29.8819 46.9668C28.8256 46.7908 28.4736 46.8914 27.4676 46.3129C29.2029 46.9417 31.24 47.2686 32.6986 47.3189C34.1321 47.3692 35.0375 47.168 34.0064 46.6399L32.8998 46.4638C36.3704 46.7908 42.1296 47.5955 46.8326 48.5512C47.4865 48.677 47.8134 48.7776 48.2158 48.8782C48.6182 48.9787 48.9954 49.1045 49.3475 49.2051C50.0768 49.4314 50.7307 49.6578 51.284 49.8841C52.4157 50.362 53.145 50.8901 53.2708 51.4434C53.3714 51.1667 52.9438 48.8027 52.6924 48.3249L60.8407 56.7247C60.2875 54.7882 63.9844 50.8901 59.8851 49.2805C61.1425 49.1799 62.7018 49.1045 65.1664 50.1105C64.2862 50.2614 62.7269 52.4494 63.8335 52.7763C67.2287 51.1919 66.1472 51.9967 70.2466 50.8146C68.9388 51.041 69.9448 54.0841 71.9064 54.2601C71.6549 53.7823 72.4597 51.4685 71.7807 51.0661L73.4406 52.3488L69.2406 57.4038C69.5927 56.5487 69.8945 55.5427 70.1208 54.3859C69.9951 55.6182 68.0334 55.7439 67.2035 55.7439C67.5556 55.6936 67.1532 54.7882 66.8011 53.9583C66.2981 53.908 65.8455 53.8577 65.6694 53.732C66.1221 53.5811 66.5999 53.4302 67.1281 53.2793C65.5437 53.2793 65.2922 52.223 64.3868 51.041C63.2048 49.8338 61.9976 48.5512 59.2312 48.2243C59.8096 48.9033 60.3378 52.0218 57.4959 51.9464C56.4396 50.3117 52.8684 44.2004 48.1655 42.3645L47.1092 43.0435L43.5128 41.5597C45.4996 44.0746 51.3343 49.5823 54.6289 51.8709C52.466 52.1979 53.8995 52.7511 50.8062 52.1979C49.599 52.8014 52.3151 53.6062 53.2205 53.8074L45.9272 53.2038C46.5056 51.5691 40.6458 50.6889 41.1488 49.356L48.7188 52.2733C49.272 50.6386 44.9212 46.8411 39.7153 46.3632C38.2063 46.7908 40.2937 49.5069 40.0674 50.035C39.841 49.7081 38.4578 49.2051 37.1249 48.7524C35.792 48.2997 34.5345 47.8722 34.2076 47.9728C34.9118 48.5261 35.6663 49.0542 36.4459 49.532C34.6854 49.4566 33.5034 48.4506 32.3214 47.5201C31.1142 46.5896 29.9322 45.7093 27.7945 45.4075C26.5622 44.8794 23.0161 44.9297 23.4185 43.9237C26.5119 43.8231 29.9071 38.8184 29.8065 37.0077C29.6053 36.9574 28.2221 36.5298 26.6879 35.9011C25.1538 35.2724 23.494 34.4424 22.7144 34.2161C21.5323 33.9394 21.2557 35.046 21.1299 36.2783C21.0294 37.4604 21.0294 38.743 19.9228 38.4663C20.1994 38.0891 19.8222 36.8065 19.6713 36.3035C18.5144 35.4233 18.8665 37.7118 17.2067 35.046C18.2378 33.7131 13.8618 29.7898 17.609 33.0341C16.5025 30.2676 15.7731 30.494 14.4151 27.6773C15.8486 28.0545 16.5025 23.4522 15.7228 20.8618C15.3959 21.1887 14.6414 20.9372 14.2642 20.7863C11.6486 16.008 9.23431 12.9649 6.59363 7.80929C5.7637 7.07996 3.5757 3.93629 2.97212 4.33868C3.02242 3.7854 3.62601 3.6848 2.87152 2.10039C2.87152 2.10039 2.87152 2.10039 2.89668 2.10039C3.37451 1.49681 2.56973 1.27047 1.33742 1.01897C1.73981 2.02495 2.51944 3.6848 0.0548096 1.01897C0.5578 1.29561 0.708679 1.06927 0.708679 0.566284C3.27391 1.37106 6.59363 2.12554 8.90736 2.88002C9.66185 4.08719 6.71938 3.35786 3.29907 2.40219C3.37453 3.05607 3.44997 3.65965 3.52541 4.13749C5.10982 5.14346 6.31699 5.29436 7.24751 5.19376C10.5924 6.70272 13.8115 8.03564 16.2761 8.91586C19.5455 9.87154 16.4019 7.5578 17.1563 7.96019C20.2246 8.18653 21.9096 9.3434 22.8401 10.2488L23.5191 10.8775C23.5191 10.8775 23.7203 11.0536 23.8461 11.129C24.0473 11.2296 24.2736 11.305 24.5 11.3805C25.4053 11.6571 26.5622 11.7829 28.2472 11.632C31.0136 10.626 28.725 8.99131 29.4292 8.08593C26.1095 7.13026 23.9215 8.21168 22.1108 7.93504C22.9155 7.83444 23.7203 7.70869 24.7011 7.63325C23.7455 7.05481 21.4066 6.40093 20.3 6.65242C21.1299 6.14944 24.7011 6.57697 28.4735 7.02966C32.2962 7.48235 36.5968 8.03564 39.7153 7.88474C40.7464 8.48832 42.532 9.1925 41.5764 9.62004L39.665 9.16736C37.7536 10.0224 43.0853 11.1542 40.5955 11.3302C43.0853 12.4368 45.8014 14.0212 49.5235 13.8954L50.4038 12.4619C50.278 12.8895 47.914 13.0655 46.9583 12.4619C48.3918 13.3421 52.8181 11.129 54.2013 13.3673L51.5103 14.0966C54.0001 15.2032 56.9929 17.2654 60.2623 17.2151C58.6025 18.5229 59.533 16.9385 57.018 18.3972C59.3066 16.4607 48.7691 17.3912 52.2648 15.505C49.6493 17.2403 48.09 15.8319 44.7703 17.1648C44.9212 16.6619 45.9775 16.3349 43.2614 16.2343C43.1608 16.0583 42.8841 15.8571 42.7332 15.7062C42.6578 15.7062 42.6075 15.7062 42.5572 15.7062L42.7081 15.6559C42.7081 15.6559 42.5823 15.5553 42.7584 15.6559C43.4374 15.5301 43.9907 15.3289 44.2422 15.0774C43.0602 13.7445 38.7596 13.2164 37.3764 12.4116C35.7417 12.4368 37.98 13.0907 37.0243 13.493L34.9621 12.311C34.61 13.3924 30.4603 13.5936 34.1321 14.7505L30.7119 14.3481C28.6245 14.7002 25.8329 14.5996 24.1982 13.8954C23.997 13.8954 23.7706 13.8954 23.5694 13.82C23.3431 13.7697 23.4185 13.7445 23.3179 13.6942C23.1922 13.5936 23.0665 13.4427 22.9659 13.2918C22.7395 13.0152 22.6389 12.8643 22.9155 13.3421C22.3371 13.0404 21.6329 12.6883 20.7779 12.3613L20.9288 12.6631C20.3252 12.638 19.5455 12.3362 18.5899 12.0092C17.6342 11.6823 16.4773 11.305 15.6474 11.2045C16.0498 11.9589 16.8546 13.0404 18.1875 14.1469C18.0366 14.4487 17.936 15.0774 18.8414 16.1337C19.2437 16.2343 19.6713 16.3098 20.0485 16.3601C19.9982 16.6367 20.5012 17.0894 20.8282 17.366C20.9288 17.4918 20.9036 17.366 21.1048 17.7181C21.2809 18.0199 21.4569 18.3217 21.5826 18.5984C21.8341 19.1516 21.9599 19.6295 21.8341 19.9564C23.5694 20.4594 24.9778 22.8989 26.185 25.5647C27.04 27.5012 28.1215 29.6138 29.3286 30.494L28.4735 31.4497C30.0077 32.9335 31.3406 34.4927 33.4783 36.3035L32.7741 37.2089C33.6292 38.2148 35.2136 38.743 36.9992 39.0196C37.8794 39.1454 38.8351 39.2208 39.7656 39.2963C40.2434 39.2963 40.671 39.3466 41.2243 39.3969C41.8027 39.4472 42.3811 39.5226 42.9596 39.6232C42.7332 39.1454 41.4255 39.0951 40.7213 39.2208C46.5056 37.5358 52.1139 42.8172 57.3953 41.7357C58.6024 42.3393 59.533 42.3393 60.4384 42.1884C60.3126 42.1884 60.212 42.1381 60.1366 42.0878C60.2623 42.0878 60.4635 42.113 60.6647 42.1633C61.2431 42.0627 61.8467 41.9118 62.5006 41.8363C61.9222 42.0375 61.394 42.1633 60.9413 42.2136C61.897 42.3896 63.3557 42.7417 64.764 43.2447L65.5688 42.1381C65.7197 42.1633 65.8706 42.2136 66.0215 42.2387C68.5113 42.1633 67.6814 43.0687 66.3484 43.798C67.4047 44.1501 68.3101 44.5273 68.9137 44.9297C70.5232 43.8986 72.3843 44.8291 74.2202 45.156C74.522 46.1369 74.9244 46.8914 75.7794 47.1428C75.5531 48.4255 76.5842 51.9967 77.0118 54.8637L78.2189 62.8109L72.3088 60.5223C70.9759 60.0193 69.8694 59.3906 69.6933 58.4852C69.6179 58.7618 69.1652 58.8373 69.9448 58.963C68.3101 58.963 66.6502 58.9882 65.2922 58.2085L64.3868 59.6421L61.1677 57.102C58.9042 57.7307 57.9486 58.1583 59.9102 59.6169C55.0564 57.102 55.8612 58.3594 51.7618 55.9703L51.8373 56.9762C50.278 56.7247 47.9894 55.0649 46.9332 55.7439C45.5751 56.2721 44.2422 56.2972 42.2554 56.1212C40.3692 55.9451 37.9297 55.5427 36.0686 55.4924C36.9237 56.9008 37.9297 58.3594 39.0111 59.5415C36.6974 58.2337 37.4519 58.9882 38.3572 59.8433C39.2626 60.6983 40.168 61.3774 38.8351 61.3019C39.8159 61.7295 40.4949 62.1821 40.9225 61.7043C40.9476 62.5091 41.6015 63.1881 41.9787 63.666L42.1045 63.842C42.1045 63.842 42.1799 63.9678 42.2805 64.1689C42.4566 64.4959 42.5823 64.848 42.7081 65.2001C42.9344 65.9043 43.0602 66.6839 42.9847 67.6144C43.8398 67.7653 43.4374 66.2815 44.0158 66.5078C44.041 66.9102 44.1416 68.0922 44.72 68.3186C45.2985 68.5449 44.9212 67.4635 44.8709 66.6587C46.908 70.909 45.1979 72.2922 43.5883 73.4993C45.4745 75.0335 45.8014 75.8131 45.7009 77.8753C46.7068 78.1017 47.9391 78.5795 46.6062 76.4418C47.0338 77.0202 48.5427 78.5544 50.0014 79.8873C51.4349 81.2453 52.8432 82.4022 52.466 83.1064C53.0444 83.0561 54.2265 84.0872 54.478 84.4393C57.4456 85.8225 57.7474 85.7974 60.7653 86.8285H59.8348C60.6144 89.0919 62.3245 87.9099 65.1916 88.5889L65.1413 88.3878C71.9819 88.1111 67.8825 89.5195 74.6477 89.0416L74.0944 90.1734C74.195 91.5063 75.6788 91.3554 77.6153 91.1039C78.0932 91.0284 78.6213 90.9781 79.1243 90.9027C79.6524 90.8524 80.1051 90.7769 80.8596 90.8021C82.2177 90.8021 83.6512 90.9781 84.7578 91.4308L82.7207 91.7829C83.7266 92.3613 85.5625 91.9338 88.1026 91.4057C89.5361 92.3362 91.4223 93.7446 92.1265 95.329C92.554 95.8822 92.1014 94.0715 91.9253 93.0152C95.6726 99.881 91.7241 95.8068 92.1768 99.5038L93.3337 108.935L86.8954 105.741C86.6943 105.64 86.4176 105.54 86.0655 105.464C85.1853 106.193 86.6942 107.753 83.953 107.501C82.4943 107.979 76.4585 103.553 72.4849 104.609C73.4154 104.081 74.3208 103.553 72.4849 102.798C71.0514 102.471 69.0143 102.798 67.0526 102.874C66.5748 102.899 66.0466 102.899 65.6191 102.874C65.3928 102.874 65.1916 102.874 64.9904 102.823C64.588 102.723 64.2107 102.446 63.7329 101.843C63.582 101.994 63.5569 102.17 63.6072 102.346C62.4 101.616 59.4072 100.812 57.0935 99.3277C58.4516 101.264 57.4204 101.063 55.2827 100.359C55.2324 101.415 54.8803 103.402 57.9989 104.584L59.3569 107.728L59.7342 107.627C60.036 108.105 60.2372 108.482 60.3378 108.859C60.3881 109.035 60.4383 109.211 60.4635 109.387V109.639C60.5138 109.79 60.5641 109.941 60.5892 110.066C60.8156 111.223 60.7653 112.104 60.6898 113.009C61.394 113.789 61.3689 112.984 61.5198 112.808C63.3054 115.448 64.2862 117.058 64.8143 118.441C65.2922 119.749 65.4934 121.082 66.2478 123.572L67.5053 123.144C67.6562 123.848 69.3412 125.081 71.5292 126.237C73.7172 127.445 76.3327 128.526 78.5962 130.035C78.5962 129.884 78.571 129.633 78.2441 129.331C79.5267 130.186 81.0105 130.538 82.8213 130.664C84.7829 130.815 86.7948 130.815 88.6307 130.89C92.3277 131.041 95.4211 131.494 96.3013 133.933L100.702 135.845C94.6917 135.166 101.256 137.932 98.6653 138.259C100.954 138.938 104.953 137.957 102.111 137.228L101.633 137.379C100.979 134.864 109.178 137.831 109.278 136.222C115.113 137.303 120.948 138.007 126.682 138.661C129.524 138.988 132.34 139.315 135.132 139.642C136.49 139.743 137.672 139.843 138.879 140.019C139.131 140.673 139.281 141.327 139.357 141.981L141.696 142.283C141.922 141.88 140.916 140.698 139.709 140.547C139.634 139.994 140.262 140.346 141.193 140.9C142.098 141.453 143.331 142.258 143.632 142.509C144.789 142.333 143.507 141.553 142.425 140.925C141.293 140.271 140.313 139.743 140.614 139.768L141.696 140.095L141.796 140.321C143.657 141.403 145.166 142.484 146.902 142.685C147.329 142.383 145.116 141.227 145.368 141.201C145.091 141.025 145.066 140.95 145.82 141.201L146.701 141.277H147.128L147.229 141.327L146.851 141.025L149.09 142.333L150.498 143.314C152.585 144.194 151.303 143.389 151.403 143.364C151.378 143.289 151.831 143.49 154.572 145.15C152.409 143.842 150.649 142.761 149.291 141.704C147.279 140.195 145.921 138.837 144.764 137.454C143.607 136.121 142.752 134.864 142.149 134.562C142.274 133.807 141.922 132.902 141.444 131.972C141.394 131.821 141.168 131.443 140.941 131.066C140.715 130.689 140.489 130.337 140.262 129.96C139.784 129.205 139.307 128.425 138.829 127.596C139.558 128.3 141.243 127.973 139.508 125.206C137.043 127.872 135.434 120.478 132.315 118.768C133.547 119.623 132.667 117.36 132.164 115.172C131.586 113.009 131.334 110.972 132.919 112.456C131.913 109.865 131.661 112.657 130.328 110.821C130.001 107.401 129.121 103.829 128.266 100.007C127.461 96.1589 126.757 92.0092 127.109 87.8093C127.562 87.7087 128.191 89.0919 128.895 87.3315C128.216 85.8728 127.486 84.3639 126.933 82.8297C127.336 81.1699 129.574 81.5723 128.442 78.4035C128.744 78.8813 129.197 79.5603 129.524 78.5041C129.624 70.3305 132.491 62.2576 136.314 54.914C140.237 47.5452 144.865 40.7801 149.241 33.3359C148.31 35.5742 149.366 34.4927 150.624 33.3359C149.97 34.2664 151.429 34.0903 151.68 34.6688L153.541 31.676L155.603 28.7587C157.565 29.1359 161.513 24.2067 163.073 25.1623C162.419 25.4893 161.74 25.7911 161.136 26.1683C164.456 25.9923 160.482 31.9275 162.394 33.4868C160.558 33.5874 159.577 35.5239 158.42 37.4604C157.314 39.4723 156.081 41.4842 153.365 42.3142C153.013 43.4207 154.547 42.1633 154.597 42.9429C152.988 43.119 151.881 44.1752 150.574 46.6147L150.976 46.5393C149.744 47.9979 148.889 49.4063 148.059 50.6638C147.304 51.9715 146.701 53.2541 146.097 54.5368C145.519 55.8445 145.066 57.2277 144.462 58.7115C143.959 60.2456 143.356 61.9558 142.752 63.9678L141.872 62.9366C141.394 64.7222 141.595 65.2001 141.57 66.1054C139.131 67.4635 143.28 61.2516 140.74 62.3079C141.444 63.9426 140.212 66.9102 139.458 69.9533C138.98 71.4371 138.728 72.9712 138.628 74.2287C138.527 75.4861 138.703 76.4921 139.332 77.0202C138.904 79.7615 138.099 75.964 137.672 78.7304L138.276 79.5855L137.219 80.1639C137.169 82.025 138.024 83.0561 138.653 83.1567C138.628 82.704 138.955 81.9244 139.055 81.4717C139.407 82.6789 139.105 84.2884 138.904 85.7471C138.703 87.1806 138.452 88.4632 138.577 88.8656L138.2 86.1998C137.622 89.9722 137.898 94.1972 138.326 98.372C138.804 102.547 139.634 106.571 139.935 110.368L139.231 109.991C140.061 115.75 141.168 114.166 143.255 120.051V119.799C143.255 121.182 143.783 122.817 144.714 124.301C144.538 122.591 147.254 126.288 146.902 124.1C147.405 125.558 147.782 126.439 147.958 127.093C148.008 127.243 148.033 127.394 148.084 127.52C148.159 127.721 148.21 127.897 148.26 128.048C148.36 128.375 148.411 128.551 148.436 128.778C148.511 129.532 148.486 130.161 148.989 132.676L150.85 133.581C151.077 135.266 150.775 135.392 153.164 138.536C152.686 137.328 153.667 137.907 154.849 138.536C155.402 138.862 156.056 139.189 156.458 139.265C156.811 139.315 156.936 139.089 156.484 138.234C157.892 139.315 159.175 140.296 160.382 141.226C161.664 142.232 162.796 143.163 163.777 144.018C165.688 145.703 167.273 147.212 168.379 148.394C170.718 150.859 171.221 151.89 176 154.983C176.427 155.411 177.156 155.989 178.162 156.744C175.497 155.713 174.34 155.084 173.359 154.505C172.328 153.927 172.303 153.525 172.303 153.172C169.184 150.783 166.745 148.444 167.071 149.149C165.16 147.941 164.355 147.765 164.028 147.941C163.727 148.117 163.903 148.646 164.531 149.35C164.406 149.526 164.381 149.802 164.884 150.18C165.487 150.783 168.656 152.669 170.97 154.354C171.196 154.53 171.674 154.832 171.674 154.933C171.674 155.033 171.674 155.134 171.674 155.235C171.624 155.411 171.447 155.562 171.121 155.662C170.492 155.863 169.234 155.838 167.122 155.461C167.927 155.587 168.404 155.863 169.209 155.989C168.379 156.19 166.292 155.587 164.355 155.084C162.394 154.581 160.583 154.128 159.502 154.48C157.188 153.298 156.081 153.122 155.025 152.896C153.969 152.669 153.013 152.418 151.554 151.16L159.124 152.946C156.66 152.267 153.717 151.01 151.077 150.054C148.386 149.073 146.147 148.369 143.708 148.52C144.387 149.048 146.6 149.953 148.184 150.532C146.801 150.884 144.362 149.475 142.828 149.828C143.607 150.984 145.971 151.487 148.763 152.041C151.605 152.594 154.723 153.122 158.219 154.48C157.666 154.807 154.824 153.952 152.963 153.424C151.102 152.896 149.97 152.669 152.309 154.178C149.115 152.242 147.329 152.016 145.066 151.789C142.878 151.588 140.061 151.337 137.194 149.777L137.697 151.085C136.741 150.733 134.805 149.828 133.296 149.601C134.101 150.255 135.157 150.959 136.238 151.689C135.61 151.412 135.006 151.211 134.403 151.035C133.849 150.884 133.095 150.733 132.843 150.708C132.114 150.607 131.359 150.658 130.605 150.708C129.096 150.808 127.612 151.01 126.229 150.406C132.29 151.487 127.839 149.224 130.555 148.822C123.362 145.955 125.726 151.16 117.452 149.149C118.558 149.501 121.828 149.174 120.143 148.319C118.508 148.293 116.32 148.369 115.239 148.822C109.731 147.614 116.295 147.765 114.057 146.634C111.919 147.74 111.441 145.577 109.077 144.697L108.851 145.879C102.413 145.552 107.618 143.088 101.759 143.037L103.871 145.099L100.979 144.169L101.356 145.628C98.3132 144.068 97.257 144.144 94.0379 143.993C94.9181 143.289 94.0127 141.755 91.2211 141.226C89.184 141.604 92.1014 142.559 88.1529 141.679C88.9074 142.585 89.7373 143.691 91.6487 142.886C91.7493 143.314 92.4031 143.792 92.5289 144.194C90.3409 144.647 87.3481 143.49 85.9146 143.238C86.4679 143.289 87.1469 143.339 87.5242 143.238L82.0668 140.598C81.0859 140.9 81.7398 141.377 82.3937 141.855C81.262 141.528 80.6081 140.874 78.5459 140.321C78.6968 140.849 78.6716 141.377 78.9986 141.88C79.2752 142.383 80.1051 142.937 81.1865 143.339L78.1435 142.182C77.062 141.729 76.0058 141.252 74.9998 140.698C74.4465 141.025 71.2777 140.522 71.9567 141.201C70.0202 140.673 68.0334 139.139 66.1975 137.354C64.3365 135.568 62.6263 133.581 60.5892 132.022C60.5389 131.695 60.3126 131.192 59.709 130.312C58.0995 128.627 56.5151 126.992 55.1821 125.03C54.8552 124.527 54.5534 124.024 54.2516 123.496C54.0253 123.069 53.7989 122.616 53.5977 122.138C53.1953 121.208 52.8684 120.177 52.6672 118.994L49.9259 117.486C49.2972 115.801 50.1774 116.329 50.9822 116.58C51.3846 116.706 51.7367 116.756 51.8876 116.429C51.963 116.278 51.963 116.002 51.8876 115.624C51.8624 115.423 51.787 115.197 51.7115 114.92C51.6109 114.619 51.5858 114.442 51.3091 113.839C48.92 107.878 48.7188 112.053 47.0841 109.916C46.7068 108.205 46.3799 106.068 45.6757 103.804C44.9464 101.516 43.8398 99.1517 41.35 95.832C41.8027 97.4667 42.9344 99.1014 43.6386 100.786L43.7895 100.635ZM82.8213 94.5745C82.0165 94.1972 80.4572 93.1661 79.7279 93.7697C80.4824 95.2787 81.3123 94.7505 82.8213 94.5745ZM37.3764 73.1724C37.301 73.9269 37.9297 74.7065 38.8351 75.4861C38.5584 74.7317 38.1057 73.9269 37.3764 73.1724ZM28.2724 13.2667C28.2724 13.2667 28.2221 13.2164 28.1969 13.1912C26.2604 13.4176 26.9394 13.317 28.2724 13.2667ZM32.2459 13.2667C32.6232 13.493 32.5729 13.6439 32.3717 13.7948C32.1454 13.4427 31.2651 13.317 30.2592 13.2667C30.5861 12.9901 31.1142 12.8392 32.2459 13.2667ZM146.726 141.805L147.027 142.182C148.712 142.836 147.757 142.333 146.726 141.805Z" fill="black"/>
<path d="M39.9165 81.0441C40.2434 81.1447 40.4698 81.0692 40.6961 80.9938C40.7464 81.4213 40.5704 81.5722 39.9165 81.0441Z" fill="black"/>
<path d="M60.6144 131.72L60.7401 131.821C60.7401 131.821 60.74 132.022 60.6897 132.097L60.5892 131.72H60.6144Z" fill="black"/>
<path d="M18.3385 37.5609C19.0678 38.1896 19.5959 38.4159 19.9983 38.5417C19.8223 38.768 19.2942 38.6674 18.3385 37.5609Z" fill="black"/>
<path d="M52.6925 18.0703L50.2278 17.4164C51.435 17.6428 51.8877 17.4164 52.5416 17.3158C52.441 17.5925 51.9128 17.9446 52.6925 18.0452V18.0703Z" fill="black"/>
<path d="M75.4274 13.5183C75.7795 13.7194 76.207 13.644 76.534 13.8452L76.3579 14.3985C74.7987 14.147 73.7676 13.5685 75.4274 13.5434V13.5183Z" fill="black"/>
<path d="M55.5342 14.3733C55.8611 13.3925 57.3952 13.9458 59.1305 14.3733C59.0299 14.3733 58.9293 14.323 58.8288 14.323C59.1557 15.8068 57.3449 15.1027 55.5593 14.3733H55.5342Z" fill="black"/>
<path d="M59.5329 14.4488C60.0611 14.5745 60.6144 14.6751 61.1425 14.7003C61.2682 15.3038 60.4635 14.7254 59.5329 14.4488Z" fill="black"/>
<path d="M37.1248 14.5996C37.9799 14.4487 37.4769 15.9576 38.0051 15.6055C38.7595 17.0139 32.6734 13.317 37.1248 14.5996Z" fill="black"/>
<path d="M57.3954 11.2296L56.6158 12.4116L55.7607 11.2547L57.3954 11.2296Z" fill="black"/>
<path d="M43.4375 10.2991H46.2793C46.2039 10.5254 46.556 10.7015 46.9835 10.8523C45.2482 10.6763 43.3369 10.6512 43.4375 10.2991Z" fill="black"/>
<path d="M46.9835 10.8523C47.8889 10.9529 48.744 11.0786 49.2218 11.3553C48.744 11.2798 47.6877 11.1038 46.9835 10.8523Z" fill="black"/>
<path d="M53.623 10.3494L52.7679 10.5003L50.7811 10.3242L53.623 10.3494Z" fill="black"/>
<path d="M14.6163 6.72799L11.4474 5.94836C10.5672 5.39508 11.045 5.19388 12.378 5.54598C13.4342 5.99866 14.6414 6.32561 14.6163 6.72799Z" fill="black"/>
<path d="M22.5633 4.28842C21.5573 4.41417 21.5322 4.69081 21.0795 5.06805L20.652 3.43334L22.5633 4.28842Z" fill="black"/>
<path d="M11.1961 2.42747C10.517 1.89934 3.8273 0.189182 9.30986 1.01911C10.2655 1.5724 14.5158 2.50292 11.1961 2.42747Z" fill="black"/>
<path d="M25.0534 38.3656C24.8522 38.1896 24.651 38.0136 24.4749 37.8124L26.2857 36.0016C25.8581 36.7812 25.4557 37.5609 25.0534 38.3405V38.3656Z" fill="black"/>
<path d="M63.4059 55.1404C59.7089 55.1907 62.7772 53.4554 59.4071 53.7069C58.6527 52.9776 62.1736 53.4806 61.3688 52.8518C63.4562 53.8075 64.6634 53.6315 63.4059 55.1404Z" fill="black"/>
<path d="M61.394 52.8267C61.0671 52.6758 60.715 52.4998 60.3378 52.2735C60.9414 52.5249 61.218 52.701 61.394 52.8267Z" fill="black"/>
<path d="M158.621 24.6846C159.2 24.0308 159.728 23.3266 160.357 22.723C160.055 23.2511 159.803 23.8296 159.527 24.3828L158.621 24.6595V24.6846Z" fill="black"/>
<path d="M163.651 23.4523L163.249 21.7673L165.311 22.1697C164.808 22.4212 163.827 22.9242 163.676 23.4523H163.651Z" fill="black"/>
<path d="M79.3255 103.503L79.6775 103.301C79.929 103.251 80.0548 103.301 80.1554 103.402L88.9325 93.0154C88.6559 93.0154 88.2786 92.9903 87.8259 92.94L89.0079 92.5627L79.7278 103.528C79.6021 103.528 79.4512 103.503 79.3255 103.478V103.503Z" fill="black"/>
<path d="M50.5545 87.5829L51.485 87.6835C51.2587 88.1362 51.1078 88.614 50.9821 89.0918C50.806 88.5889 50.6551 88.0607 50.5294 87.5577L50.5545 87.5829Z" fill="black"/>
<path d="M46.9079 113.713C45.8516 111.802 45.0468 109.488 44.0157 107.602C45.9019 111.903 48.9198 113.613 46.9079 113.713Z" fill="black"/>
</svg>
