<svg width="346" height="263" viewBox="0 0 346 263" fill="none" xmlns="http://www.w3.org/2000/svg">
<path d="M319.821 262.231C317.958 262.285 318.625 262.699 318.347 262.793C321.519 262.539 319.728 262.118 319.821 262.231Z" fill="black"/>
<path d="M342.076 244.154L342.063 244.717C342.248 243.993 342.439 243.277 342.525 242.533L342.69 241.435L342.769 240.892L342.795 240.336C342.769 240.986 342.604 241.609 342.498 242.252L342.32 243.21C342.261 243.531 342.149 243.832 342.069 244.147L342.076 244.154Z" fill="black"/>
<path d="M343.496 217.43C342.744 219.921 343.615 226.981 343.351 231.676L343.179 232.453L343.787 234.569C343.688 228.863 343.285 221.448 343.496 217.43Z" fill="black"/>
<path d="M345.129 203.378C344.837 204.249 344.877 200.337 345.036 206.653C345.069 206.338 345.089 206.244 345.109 206.057C345.109 205.488 345.109 204.704 345.129 203.371V203.378Z" fill="black"/>
<path d="M345.109 206.057C345.129 208.83 345.355 204.242 345.109 206.057V206.057Z" fill="black"/>
<path d="M344.944 193.237L345.208 196.894C345.379 196.131 345.419 192.876 345.544 194.088C345.399 190.337 345.228 191.108 344.944 193.244V193.237Z" fill="black"/>
<path d="M344.389 189.775L344.501 191.67C344.573 191.335 344.6 190.84 344.389 189.775Z" fill="black"/>
<path d="M344.738 195.689L344.507 191.67C344.388 192.199 344.144 192.253 344.593 193.512C344.369 193.184 344.586 193.981 344.745 195.682L344.738 195.689Z" fill="black"/>
<path d="M344.619 197.959C344.454 200.009 344.355 202.661 344.091 198.991C344.197 205.983 344.725 204.952 344.619 197.959Z" fill="black"/>
<path d="M342.717 216.084L342.499 218.823L342.75 221.194C342.624 220.008 342.954 215.909 342.717 216.084Z" fill="black"/>
<path d="M345.333 170.465C345.174 170.237 344.904 171.697 344.699 171.965L344.884 174.664C344.996 173.278 345.095 170.646 345.333 170.465Z" fill="black"/>
<path d="M344.699 171.965L344.421 167.926C344.388 171.537 344.52 172.193 344.699 171.965Z" fill="black"/>
<path d="M343.556 189.125L344.13 195.763L343.543 187.846L343.556 189.125Z" fill="black"/>
<path d="M345.353 155.033L345.722 157.324L345.161 153.245L345.353 155.033Z" fill="black"/>
<path d="M345.287 144.792C345.597 146.487 345.809 142.468 346 144.263C345.947 141.484 345.683 139.106 345.446 136.969C345.578 139.24 345.545 141.664 345.294 144.792H345.287Z" fill="black"/>
<path d="M345.096 133.379C345.168 134.511 345.3 135.69 345.439 136.969C345.366 135.764 345.267 134.578 345.096 133.379Z" fill="black"/>
<path d="M344.501 161.041C344.6 160.726 344.851 160.123 344.956 157.86L344.507 159.447C344.507 159.929 344.507 160.478 344.501 161.041Z" fill="black"/>
<path d="M344.494 159.507L344.507 159.454C344.52 157.726 344.527 156.534 344.533 156.018C344.533 156.46 344.514 157.511 344.494 159.507Z" fill="black"/>
<path d="M344.5 161.442C344.5 161.295 344.5 161.188 344.5 161.041C344.455 161.195 344.442 161.288 344.5 161.442Z" fill="black"/>
<path d="M343.965 178.529C343.714 176.158 343.443 171.208 343.054 175.997C343.364 177.699 343.582 174.959 343.965 178.529Z" fill="black"/>
<path d="M343.939 163.419L343.833 167.712C343.952 167.625 344.124 166.855 344.249 168.027L343.933 163.419H343.939Z" fill="black"/>
<path d="M343.794 161.316L343.939 163.419L343.972 161.825L343.794 161.316Z" fill="black"/>
<path d="M344.672 140.733C344.474 138.878 344.461 136.849 344.428 134.558C344.342 137.016 344.289 139.555 344.289 141.966C344.428 142.307 344.685 143.366 344.672 140.733Z" fill="black"/>
<path d="M344.547 149.855C344.541 149.728 344.527 149.561 344.521 149.44C344.481 149.694 344.468 149.895 344.547 149.855Z" fill="black"/>
<path d="M344.429 112.006C344.402 112.133 344.376 112.24 344.349 112.367C344.376 112.394 344.402 112.414 344.429 112.454V112.006Z" fill="black"/>
<path d="M344.21 142.374C344.124 144.223 344.237 145.321 344.376 146.373C344.33 144.993 344.303 143.533 344.297 141.959C344.23 141.805 344.19 141.778 344.21 142.374Z" fill="black"/>
<path d="M344.884 127.09C344.791 128.048 344.712 129.139 344.633 130.285C344.778 129.347 344.996 127.431 344.884 127.09Z" fill="black"/>
<path d="M344.646 148.824C344.653 148.918 344.66 148.998 344.666 149.098C344.767 148.497 344.72 148.57 344.646 148.824Z" fill="black"/>
<path d="M344.646 148.824C344.58 147.873 344.468 147.13 344.369 146.38C344.402 147.505 344.454 148.543 344.52 149.447C344.553 149.22 344.6 148.992 344.646 148.824Z" fill="black"/>
<path d="M341.527 105.175C341.944 105.503 342.334 110.352 341.884 114.538C342.201 118.658 343.576 115.965 344.342 112.368C344.157 112.241 343.992 112.241 343.741 108.001C343.51 109.488 343.206 117.412 342.829 113.835C342.611 108.216 342.975 109.234 343.199 106.501C342.677 108.825 342.439 99.3545 341.673 100.58L341.944 105.51C341.825 105.604 341.633 103.815 341.527 105.182V105.175Z" fill="black"/>
<path d="M344.302 120.452L344.355 122.201C344.428 120.211 344.593 118.785 344.923 116.166C344.718 113.259 344.567 112.656 344.421 112.462L344.362 121.055L344.302 120.459V120.452Z" fill="black"/>
<path d="M344.362 130.03C343.906 128.671 343.714 124.478 343.219 127.043C343.252 132.167 343.602 130.633 343.8 133.694C343.688 125.429 344.051 136.065 344.315 130.097C344.395 131.725 344.415 133.185 344.434 134.565C344.487 133.078 344.56 131.645 344.639 130.292C344.626 130.365 344.619 130.419 344.613 130.479V130.519V130.513C344.553 130.868 344.52 130.988 344.553 130.586C344.553 130.56 344.547 130.459 344.547 130.412C344.481 130.359 344.428 130.205 344.375 130.037C344.467 127.646 344.494 129.662 344.547 130.412C344.567 130.439 344.593 130.506 344.613 130.513C344.613 130.506 344.613 130.493 344.613 130.479L344.362 122.201C344.296 123.956 344.309 126.146 344.362 130.037V130.03Z" fill="black"/>
<path d="M342.076 171.575C342.115 171.321 342.149 171.328 342.182 171.308C342.129 170.773 342.089 170.573 342.076 171.575Z" fill="black"/>
<path d="M342.347 168.174C342.413 168.777 342.591 169.279 342.545 171.235C342.406 172.93 342.327 171.228 342.175 171.315C342.294 172.494 342.499 175.441 342.723 171.744L342.664 171.161C342.822 167.826 343.391 163.546 343.45 164.129C343.04 165.1 342.75 165.957 342.347 168.174Z" fill="black"/>
<path d="M343.238 148.864L343.014 141.972L342.618 145.482L342.855 145.301C342.763 149.219 343.053 148.376 343.238 148.864Z" fill="black"/>
<path d="M344.659 111.216L345.134 112.134L344.461 108.149L344.659 111.216Z" fill="black"/>
<path d="M344.6 102.261L345.016 102.589L344.765 100.225L344.6 102.261Z" fill="black"/>
<path d="M6.11157 88.6111L6.23109 90.6405C6.19125 89.6827 6.15141 89.0665 6.11157 88.6111Z" fill="black"/>
<path d="M6.14525 73.9422L5.93982 73.5813C6.05248 74.2563 6.13863 74.537 6.14525 73.9422Z" fill="black"/>
<path d="M211.804 1.17006C208.89 0.775727 205.639 0.160839 205.989 0.635372L206.881 1.09654C208.917 1.01634 210.476 1.06312 211.797 1.16337L211.804 1.17006Z" fill="black"/>
<path d="M63.1296 3.94383C63.4071 3.99061 63.6978 4.0374 63.982 4.08418C64.689 3.92378 65.3564 3.77674 65.9511 3.64307C65.1053 3.73664 64.1406 3.83689 63.1362 3.94383H63.1296Z" fill="black"/>
<path d="M61.0817 5.86595L57.2426 5.56519C58.1082 5.67212 59.3372 5.77238 61.0817 5.86595Z" fill="black"/>
<path d="M6.60034 168.71L7.06899 171.074C7.06899 167.377 6.83137 169.005 6.60034 168.71Z" fill="black"/>
<path d="M337.913 10.2805C336.235 8.01664 334.457 6.59001 332.865 5.43799C333.532 5.96711 334.113 6.53643 334.669 7.03876C335.217 7.5411 335.646 8.09032 336.076 8.51897C336.287 8.7333 336.479 8.94094 336.664 9.12847C336.836 9.32271 336.994 9.50355 337.14 9.6576C337.437 9.9657 337.695 10.1867 337.913 10.2872V10.2805Z" fill="black"/>
<path d="M1.24799 82.8375C1.33379 84.0766 1.4262 84.6058 1.52522 84.5723C1.44601 83.293 1.3602 82.5763 1.24799 82.8375Z" fill="black"/>
<path d="M325.51 2.03564C325.741 2.11602 325.973 2.20309 326.21 2.28346C326.435 2.38393 326.66 2.4844 326.891 2.59156C327.38 2.75231 327.869 2.91306 328.358 3.0805C328.854 3.25464 329.323 3.49576 329.818 3.71679C330.829 4.13875 331.794 4.76165 332.858 5.43812C330.895 3.86414 328.246 2.49109 325.503 2.03564H325.51Z" fill="black"/>
<path d="M210.575 257.041C210.786 257.061 211.037 257.075 211.222 257.096C211.288 257.034 210.997 257.027 210.575 257.041Z" fill="black"/>
<path d="M294.071 261.729C293.251 261.757 291.91 261.757 290.641 261.764C291.256 261.799 292.293 261.792 294.071 261.729Z" fill="black"/>
<path d="M344.798 66.207C344.83 68.1092 344.85 66.5084 344.798 66.207V66.207Z" fill="black"/>
<path d="M342.988 75.4484C342.935 75.0473 342.869 74.7399 342.763 74.6931C342.875 74.8468 342.942 75.1142 342.988 75.4484Z" fill="black"/>
<path d="M306.162 3.9043C306.11 3.9043 306.063 3.9043 305.997 3.9043C306.552 3.9992 306.459 3.97886 306.162 3.9043Z" fill="black"/>
<path d="M344.594 69.067C344.653 68.3504 344.699 67.5332 344.732 66.6357C344.699 67.0309 344.653 67.7677 344.594 69.067Z" fill="black"/>
<path d="M344.804 68.6851C344.785 69.3414 344.772 69.8572 344.758 70.3461C344.837 70.5872 344.883 70.3729 344.804 68.6851Z" fill="black"/>
<path d="M344.772 63.5615C344.778 64.6466 344.758 65.6646 344.725 66.6358C344.758 66.2607 344.785 66.1067 344.798 66.2072C344.798 65.6512 344.785 64.8609 344.772 63.5615Z" fill="black"/>
<path d="M57.0111 258.287C57.1367 258.3 57.2754 258.314 57.4142 258.334C59.304 258.139 58.478 258.172 57.0111 258.287Z" fill="black"/>
<path d="M163.012 5.99482C163.098 5.98795 163.144 5.98107 163.224 5.9742C163.138 5.9742 163.025 5.96045 162.946 5.96045L163.012 6.0017V5.99482Z" fill="black"/>
<path d="M156.279 6.34229C159.147 5.76628 160.779 5.83326 162.947 5.95382L160.72 4.61426L156.279 6.34229Z" fill="black"/>
<path d="M6.24356 123.728L6.65324 118.932C7.33383 124.719 7.09595 128.905 7.67744 124.404C6.24356 123.728 7.53207 105.777 6.09819 105.108L6.40214 101.946C6.38893 102.851 6.47483 102.998 6.46161 103.889C7.14882 97.7468 5.42419 99.3208 5.62903 91.404C5.74137 88.6445 5.94621 86.7223 6.11801 88.5976L5.76119 82.4491C5.78762 80.6608 6.03872 81.0961 6.01228 82.8777L5.89995 73.5008L5.9396 73.5678C5.71494 72.2282 5.36472 69.2008 5.21935 67.7206C5.42419 65.3362 5.37133 68.9128 5.54974 68.3033L5.19953 63.1125C5.56956 60.996 5.93299 65.3027 5.88013 68.886C7.31401 64.0368 5.5167 64.5793 6.35589 54.1107L6.5409 59.0135C7.35366 55.8521 7.06292 52.0277 7.5651 46.4819C7.30079 47.7947 6.2832 57.5801 5.92638 51.9406C6.03211 50.3532 6.08497 48.2568 5.79423 45.2227C6.30302 45.1959 6.17748 42.2288 6.15105 38.5115L6.82504 38.766C6.6268 34.7474 6.2832 35.0689 5.97925 32.7045C6.01228 30.4675 6.15765 29.1145 6.35589 28.1902C6.4484 27.708 6.58055 27.4133 6.7061 27.1521C6.83165 26.8909 6.95719 26.6765 7.08274 26.4555C7.11578 26.0737 7.10917 25.7522 7.14882 25.491C7.18846 25.2298 7.21489 25.0289 7.23472 24.8681C7.26776 24.5533 7.25454 24.4194 7.2215 24.4127C7.14882 24.3993 6.9638 24.8681 6.77217 25.3169C6.57394 25.7656 6.46822 26.201 6.36249 26.0402C6.32285 25.9599 6.25016 25.7321 6.2832 25.2901C6.32285 24.848 6.3691 24.1916 6.52108 23.254C7.18846 20.6686 8.10033 18.5923 9.25008 16.5026C10.4263 14.433 11.9064 12.3098 14.3579 10.1866C14.7543 9.92534 15.0385 9.7311 15.2565 9.62394C15.4812 9.52347 15.6133 9.46989 15.686 9.45649C15.8314 9.4297 15.7257 9.55696 15.5539 9.71771C15.2103 10.0325 14.6883 10.6018 15.2631 10.2669C15.6464 9.86506 16.0825 9.53687 16.4988 9.15509C16.7102 8.97425 16.9151 8.77332 17.1397 8.61257L17.8269 8.13033C18.567 7.78204 18.3952 8.04996 18.3159 8.19061C18.9106 7.82223 19.2344 7.64809 19.4128 7.50074C19.5912 7.35339 19.6375 7.24622 19.73 7.11896C19.9216 6.88454 20.2718 6.48267 22.459 5.85308C22.7101 5.55838 23.4501 5.47131 24.4677 5.35075C24.9765 5.27037 25.5646 5.33735 26.199 5.35075C26.5161 5.36414 26.8465 5.37754 27.1835 5.39093C27.5469 5.42442 27.917 5.45791 28.3002 5.4914C31.3662 5.75261 35.0137 6.00713 38.007 5.57847C39.4805 5.77271 37.2934 6.00043 37.7427 6.26165C45.9495 5.69903 44.7799 5.85308 51.5198 5.09623L57.262 5.54498C53.0462 5.02925 58.4315 4.41975 63.1561 3.91742C61.6627 3.6696 60.3808 3.44857 59.5218 3.3481L67.0547 2.97973C67.9665 3.09359 67.2066 3.32801 65.971 3.61602C66.4864 3.55574 66.9688 3.49546 67.352 3.44857C70.048 3.70309 68.6471 4.09826 66.7177 4.48003C65.7992 4.33938 64.8873 4.19203 64.0019 4.05807C62.1385 4.47333 60.4007 4.93548 60.7905 5.33735C61.2795 5.25698 62.2244 5.19 63.2618 5.14981C62.7728 5.26367 62.4623 5.36414 62.6869 5.43112C62.9446 5.50479 63.731 5.35075 64.96 5.1766L66.6714 5.94015L67.0877 5.63875L76.9464 6.11429C83.9969 5.34405 90.1289 4.21212 101.322 3.89732C98.5472 4.45994 100.728 4.81492 100.576 5.478C97.523 4.77473 91.9064 5.7794 86.1048 5.63205C89.1311 5.70573 88.4637 6.02052 87.6973 6.13439L98.045 5.4981C97.8137 6.04062 100.239 5.90666 102.948 6.12769C100.906 5.05604 110.659 5.41103 114.868 5.08283C115.133 5.44451 114.122 5.81289 108.987 5.72582C114.657 6.53626 116.309 4.46664 121.873 5.14981C120.617 5.15651 119.943 5.10293 119.447 5.28377C122.375 4.96227 129.538 5.21679 127.853 5.53159H126.604C134.929 5.66554 151.944 5.54498 153.187 4.63408C153.273 4.75464 152.096 5.73252 151.594 5.92006L166.448 2.85247C165.14 3.63611 170.162 5.4981 163.257 5.94015C165.239 6.05401 167.691 6.18127 171.873 5.90666C170.519 5.7928 168.503 4.77473 170.354 4.70106C175.428 5.57177 173.875 5.16991 180.126 5.91336C178.098 5.74592 180.351 4.52022 183.556 4.56041C183.054 4.74125 183.82 5.77271 182.651 5.89996L190.626 4.69436C188.637 4.90869 190.276 5.71912 192.06 6.05401C191.234 5.81959 198.952 6.07411 201.08 5.95355L197.703 5.67224C206.703 5.85308 206.597 3.9777 215.524 4.03798C214.44 4.2858 212.855 5.57177 217.394 5.71912C219.476 5.10293 226.612 2.752 234.508 2.27646L236.021 2.63144L242.081 2.22957C238.308 3.16057 227.715 5.10962 221.927 5.87317C225.297 6.15448 222.865 6.28844 227.907 6.25495C229.691 6.58314 225.158 6.75728 223.671 6.77738L235.42 6.9917C234.898 6.26834 244.4 6.26834 243.951 5.67224L231.191 6.4157C230.676 5.69903 238.565 4.37287 246.891 4.50013C249.006 4.78813 245.305 5.7794 245.484 6.02052C246.561 5.77271 253.38 5.54498 254.146 5.72582L250.618 6.11429C255.25 6.38221 258.177 5.15651 263.747 5.84638C265.67 5.89327 269.483 6.77738 269.82 6.34872C266.688 5.52489 266.073 2.98642 268.161 2.36353C268.835 2.41711 278.251 3.14717 280.445 3.55574C283.61 4.19872 275.694 5.08953 278.39 5.64545C278.509 5.45121 280.254 5.20339 280.98 5.12972C282.996 5.29716 280.148 5.73922 284.529 5.65215C285.262 4.92209 293.449 5.71243 286.604 5.03595C290.892 4.82832 291.163 5.1833 296.198 5.15651C294.592 4.68766 300.718 3.54904 305.019 3.34141C304.768 3.52894 305.733 3.77007 306.196 3.87723C310.59 3.91072 313.973 4.01119 317.277 4.09826C320.561 4.17863 323.752 4.5872 327.473 6.16788C327.77 6.42239 328.781 6.98501 329.462 7.50074C330.129 8.04996 330.519 8.43843 329.752 8.15712C330.77 8.63267 331.827 8.96086 333.671 10.6018C334.054 11.064 334.279 11.3453 334.378 11.506C334.464 11.6735 334.444 11.7003 334.351 11.6333C334.153 11.4993 333.611 11.0439 333.056 10.5482C332.917 10.4277 332.772 10.3004 332.633 10.1799C332.481 10.0727 332.336 9.97222 332.197 9.87846C331.92 9.69092 331.682 9.53687 331.517 9.4498C331.186 9.28235 331.16 9.39621 331.741 10.0794C331.992 9.98562 333.314 10.8228 334.734 12.1825C336.215 13.4886 337.576 15.4577 338.534 16.9379C338.574 16.3083 337.589 14.4597 336.036 12.6781C334.483 10.8764 332.283 9.36272 330.776 8.49871C330.836 8.40494 330.975 8.35806 331.193 8.35806C331.404 8.36475 331.682 8.44513 332.032 8.57238C332.382 8.69964 332.798 8.88048 333.281 9.10821C333.75 9.35603 334.246 9.70431 334.814 10.0794C335.402 10.4411 335.944 10.9568 336.558 11.4993C337.199 12.0217 337.748 12.7116 338.382 13.4149C338.706 13.7565 338.977 14.165 339.267 14.5669C339.552 14.9755 339.855 15.3907 340.14 15.8328C340.391 16.2949 340.655 16.7638 340.919 17.246C341.045 17.4872 341.19 17.7283 341.309 17.9828C341.415 18.244 341.527 18.5052 341.64 18.7664C342.36 20.4409 342.525 21.5594 342.67 22.1957C342.803 22.8387 342.71 23.0664 342.651 23.0999C342.505 23.1602 342.234 22.5038 342.386 23.0999C342.492 23.9304 342.637 24.7007 342.703 25.424C342.75 26.1474 342.796 26.8239 342.836 27.4468C342.888 28.6725 342.921 29.6905 342.994 30.6014C343.12 32.4098 343.305 33.7226 343.463 34.9684C343.794 37.4533 344.058 39.6702 343.734 45.0486C343.166 49.3218 342.604 45.2428 342.195 46.1872C341.977 40.5611 342.558 37.5537 342.532 33.7427L342.261 38.4379C342.069 36.6495 341.93 32.8921 342.096 30.8493C341.587 34.4326 341.996 52.7577 341.527 62.7575C341.719 64.5325 341.917 67.6001 342.142 66.1533L342.062 62.9853C342.518 60.0784 342.697 68.9396 342.908 64.9343C343.232 69.1807 343.734 73.9429 343.477 79.9173L342.829 81.0425C343.021 80.9153 343.212 77.1377 343.021 75.4566C343.305 77.9481 342.142 84.6191 342.994 87.3518L343.444 83.159C343.767 87.4255 344.454 92.69 344.25 97.9879C344.891 95.5767 344.177 96.769 344.924 93.0048C343.992 96.2666 344.963 79.4551 343.985 84.6928C344.858 80.8282 344.355 78.0084 345.095 72.9583C344.884 73.1123 344.686 74.7466 344.792 70.2993C344.732 70.0983 344.653 69.6228 344.6 69.3214C344.606 69.1874 344.606 69.1405 344.613 69.02C344.606 69.1071 344.6 69.174 344.587 69.2678C344.554 69.0736 344.547 69.0602 344.58 69.3616C344.488 70.4198 344.375 71.2771 344.256 71.6254C343.767 69.4152 343.78 62.3423 343.529 59.9512C343.629 57.3122 343.774 61.0563 344.005 59.6163L343.622 56.0464C344.098 55.6914 344.408 49.0338 344.686 55.2493L344.706 49.6567C344.97 46.3613 345.076 41.8336 344.877 39.034C344.983 36.395 344.349 32.3696 344.725 34.667L344.58 30.2799L344.507 28.0831C344.507 27.7348 344.468 27.3128 344.435 26.9109L344.336 25.7053L344.448 25.6049C344.448 25.0021 344.329 24.406 344.243 23.8099C344.137 23.2138 344.084 22.6043 343.919 22.0149C343.761 21.4255 343.602 20.836 343.437 20.2466C343.298 19.6505 343.021 19.0879 342.816 18.5119C342.413 17.3398 341.792 16.2615 341.237 15.1429C340.563 14.0914 339.948 12.9996 339.142 12.0217C338.408 10.9903 337.51 10.0928 336.657 9.1417C335.712 8.28438 334.801 7.37348 333.743 6.60993C331.695 5.02255 329.422 3.60932 326.904 2.54437C326.151 2.26306 325.352 2.12911 324.532 1.93487C323.713 1.72054 322.841 1.63347 321.902 1.50621C320.971 1.33877 319.96 1.35886 318.856 1.28518C318.281 1.245 317.799 1.25839 317.237 1.245C316.689 1.2316 316.12 1.21821 315.519 1.20481L314.581 0.789547C310.887 0.936899 303.493 0.374284 301.907 0.809641C297.923 -0.308891 283.987 0.56852 277.492 0.367586L277.247 0.910107C272.78 0.876619 268.492 1.03067 262.941 1.2517L263.285 1.73394C258.501 2.12911 250.988 1.39235 243.422 1.43923C243.937 1.25839 245.854 1.30528 247.215 1.41244C238.175 0.327399 228.145 2.20278 219.945 1.41244C217.903 1.58658 216.423 1.5263 214.989 1.41244C215.181 1.41244 215.352 1.40574 215.498 1.38565C215.286 1.38565 214.976 1.38565 214.659 1.38565C213.753 1.30528 212.828 1.21821 211.824 1.13113C212.683 1.245 213.496 1.34546 214.209 1.38565C212.637 1.39235 210.245 1.45263 207.899 1.57319L206.901 1.05746C206.709 1.05746 206.557 1.06416 206.359 1.07085C204.06 0.883316 204.509 1.31198 205.738 1.70045C204.562 1.78752 203.478 1.88799 202.639 2.00855C200.769 1.17802 196.494 2.28985 193.943 1.39905C192.364 1.8344 182.168 1.72724 180.919 2.63814C180.84 2.51758 180.146 2.464 181.415 2.4573C178.805 2.35013 176.195 2.24967 173.849 2.50418L172.739 1.8478L167.036 2.73191C163.574 2.33004 162.134 2.10231 165.576 1.59328C157.27 2.37023 158.836 1.88799 151.773 2.65823L152.116 2.23627C149.592 2.24967 145.555 2.81898 144.035 2.47069C138.385 1.66696 116.091 2.35683 101.593 1.60668C104.408 2.85247 94.8534 1.04406 94.2786 2.01524C93.4328 1.72054 91.4108 1.5531 93.7632 1.29858C86.3625 1.58658 82.6489 0.829734 77.5411 1.64686C76.6954 1.35216 79.127 1.21151 78.3737 1.03737C77.779 1.10434 76.0214 1.29188 75.2549 1.11774C74.5016 0.943596 76.3385 0.869921 77.5081 0.742663C69.9488 0.789547 69.189 1.70045 68.6339 2.55777C64.8014 2.1559 62.8918 2.20948 60.1297 2.77209C58.795 2.49079 56.5748 2.20278 61.2663 2.10231C58.6232 2.06213 45.1301 1.69375 44.8592 2.37692C44.0333 2.20278 41.1655 2.32334 40.4717 2.40372C34.5445 2.36353 34.0225 2.30325 28.2011 2.36353L29.8134 2.47739C28.6504 2.90605 27.4875 2.89265 25.9016 2.95293C25.5117 2.95293 25.0955 2.96633 24.6593 2.97303C24.2232 3.01991 23.7673 3.0735 23.2849 3.12708C22.307 3.20075 21.2564 3.48876 20.0802 3.82365L20.1925 3.70979C17.4569 4.41975 15.8843 5.21009 14.8667 5.7794C13.8689 6.3956 13.3403 6.7037 12.8909 7.11227C12.6597 7.3065 12.4218 7.49404 12.1377 7.72846C11.8535 7.96958 11.4835 8.19731 11.0606 8.59248C10.6377 8.98095 10.0694 9.42301 9.40206 10.0526C8.76771 10.7224 7.90871 11.4792 7.03649 12.6045L7.80298 12.4236C7.94175 13.1939 6.26338 14.9487 4.81628 17.7618C4.43964 18.4516 4.12908 19.2286 3.77226 20.0055C3.44848 20.8026 3.2106 21.6532 2.93968 22.5038C2.74145 23.3678 2.58947 24.2519 2.45732 25.1226C2.40445 26 2.38463 26.8574 2.39785 27.6812L2.80092 25.3437C2.82735 25.7924 2.81413 26.2747 2.77449 26.7904C2.72163 27.2994 2.66876 27.8419 2.60929 28.4046C2.48375 29.5097 2.28551 30.7019 2.06746 31.8941C1.63135 34.2785 1.13577 36.6696 1.06969 38.3776C0.977181 39.121 0.917711 37.1988 0.845026 36.1539C0.204074 45.1222 1.51241 37.3126 1.66439 43.997C1.30757 45.2294 0.752517 42.4096 0.68644 46.9039C0.395699 49.1476 1.8494 59.9512 1.1622 66.0863C1.43972 64.7334 1.71064 63.3938 1.92209 66.4949C2.0212 71.2504 0.878064 79.3547 1.75029 83.6547C1.6776 84.2575 1.60492 84.4852 1.53223 84.512C1.75689 88.1489 1.90227 96.3336 2.37802 98.5238C0.62697 101.886 3.23042 121.136 1.61152 121.048L1.69743 132.234L1.53223 131.939C1.42651 139.092 1.80976 141.617 2.19961 144.129C2.08728 145.783 1.94191 144.578 1.85601 144.437C1.53223 154.886 1.59831 155.924 2.40445 164.685L1.88244 165.595C2.1864 167.967 1.06308 180.699 1.67099 190.947C1.61152 190.846 1.51241 190.632 1.43312 189.821C2.04764 201.348 -0.0205892 217.423 1.88905 221.649L2.3582 229.258C2.50357 219.412 3.18417 230.725 3.50134 226.673C3.61367 230.544 2.92647 236.679 2.82735 231.924L2.91986 231.18C2.66876 230.745 2.52339 231.287 2.43749 232.352C2.39124 232.882 2.3582 233.545 2.33838 234.268C2.31855 234.998 2.28551 235.782 2.33838 236.652C2.37142 237.51 2.37142 238.38 2.51679 239.184C2.64233 239.995 2.68859 240.772 2.85378 241.408C3.1247 242.7 3.26346 243.571 3.10488 243.551C3.8978 246.029 5.07398 248.347 6.50786 250.477L7.6444 252.031L8.91308 253.471C9.31616 253.966 9.81835 254.368 10.2743 254.817L10.9747 255.466C11.2126 255.681 11.4769 255.862 11.7214 256.063C13.6905 257.677 15.9371 258.929 18.2829 259.854L19.1683 260.195L19.611 260.363L20.067 260.49L21.8907 260.992C22.5052 261.126 23.1264 261.213 23.7475 261.32C24.058 261.367 24.3686 261.434 24.6792 261.468L25.6175 261.528C26.232 261.561 26.8928 261.622 27.4742 261.628L29.2121 261.655C30.3684 261.675 31.5182 261.689 32.6679 261.709C34.9674 261.742 37.2603 261.769 39.54 261.803C44.0993 261.863 48.619 261.903 53.0991 261.916L51.0375 261.133L57.2818 261.18C58.9205 261.361 59.4822 261.796 55.0285 261.762C57.3677 262.204 62.4953 261.387 62.6275 261.22C71.3497 261.535 59.2179 262.131 61.894 262.151L65.5283 262.091L64.7089 261.997C67.6493 261.675 67.9137 261.334 73.2659 261.374C76.6557 261.528 75.0038 261.856 76.3385 261.89C76.3319 261.943 76.7813 261.97 78.3803 261.91L86.2435 261.977L83.0983 261.361C86.5872 261.052 90.4923 261.394 86.8647 260.691C92.1905 261.769 116.203 261.079 119.474 261.414C124.357 260.965 129.174 260.972 135.147 261.026C133.661 260.898 132.775 260.202 137.923 260.289C136.04 261.722 147.352 260.912 151.515 261.943C147.795 261.26 166.158 261.776 160.316 260.805C164.611 260.918 160.581 261.34 163.838 261.682C174.067 261.126 186.377 262.044 199.018 261.856C199.216 261.669 197.095 261.381 199.811 261.099L206.485 262.044C208.982 261.95 208.784 260.959 213.344 261.608C212.703 261.448 211.738 261.213 213.41 261.153C238.175 262.071 264.018 260.403 289.167 262.124C285.758 261.756 288.031 261.722 290.634 261.709C288.943 261.622 290.674 261.24 290.344 260.985L300.87 261.695C302.786 260.985 312.156 261.649 313.259 260.972L309.922 261.093C314.356 260.296 303.718 259.318 304.365 258.286C299.403 259.197 291.275 256.94 283.128 258.239C281.331 258.032 284.661 257.911 283.703 257.67C281.635 258.112 279.143 258.199 274.525 258.005L275.047 257.898C262.062 258.005 256.499 257.57 241.909 257.282L242.986 257.791C239.854 257.724 239.193 257.563 237.726 257.436C234.132 258.206 246.528 257.476 243.25 258.326C239.094 257.295 221.147 258.313 218.339 257.134C213.515 257.134 219.753 257.724 214.929 257.717L213.654 257.402L212.438 257.811C209.28 257.744 207.681 257.349 207.562 257.074C208.328 257.107 209.742 257 210.562 256.974C206.465 256.598 199.005 257.101 197.597 256.974L202.229 257.168C189.073 257.462 173.003 257.047 160.29 257.697L161.255 257.938C151.548 258.38 153.477 257.677 142.819 257.878L143.209 257.817C141.075 258.059 138.227 258.179 135.313 258.152C138.002 257.871 130.251 257.61 133.78 257.295C123.254 257.771 128.573 257.67 121.621 258.561L120.016 258.166C117.644 258.527 117.445 258.715 112.126 258.815C116.494 258.474 108.73 258.213 113.619 257.757C102.452 256.886 97.034 258.635 91.9064 257.362C86.7788 258.46 101.574 257.971 98.6991 258.206C101.104 258.568 94.4636 259.03 90.9615 258.916C87.3933 258.889 84.8956 257.509 75.9156 257.529C76.8077 257.529 76.8672 257.449 77.7592 257.456C74.4025 257.174 71.1779 257.837 67.0547 257.382C64.7419 258.045 61.7024 257.342 61.0416 258.192L69.2749 257.998C64.6098 258.219 60.2289 259.211 52.5374 258.728C53.1387 258.554 55.425 258.333 56.9977 258.206C54.751 257.958 52.6696 258.373 50.3371 258.112C51.0044 257.262 60.3412 257.925 65.3432 257.282C62.9314 256.92 55.881 257.898 58.3985 256.98C54.7841 258.152 49.5573 256.833 43.4782 257.724L43.8813 257.215C42.9166 257.295 40.9276 257.536 39.1567 257.523L42.3615 256.866C37.4387 257.429 32.8728 256.377 28.1548 256.679C38.04 256.665 30.375 257.288 34.5511 257.663C31.505 257.831 29.5425 257.838 28.102 257.744C27.7452 257.717 27.4082 257.697 27.1174 257.657C26.8399 257.61 26.5822 257.556 26.3377 257.503C25.8553 257.395 25.4325 257.282 25.0029 257.168C24.5801 257.007 24.1572 256.833 23.6616 256.665C23.4171 256.578 23.1528 256.505 22.8686 256.397C22.5911 256.277 22.2806 256.156 21.9436 256.029C21.6132 255.895 21.2299 255.801 20.8335 255.627C20.437 255.453 20.0075 255.266 19.5251 255.071C19.4062 255.024 19.2806 254.978 19.1551 254.924C19.0362 254.864 18.9106 254.797 18.7851 254.73C18.5274 254.602 18.263 254.469 17.9855 254.328C17.4106 254.08 16.8424 253.698 16.1948 253.33C16.5516 253.517 17.0274 253.859 17.5494 254.167C18.0846 254.455 18.6265 254.777 19.056 255.051C19.948 255.513 20.3709 255.821 19.1154 255.487C18.5868 255.239 18.045 254.904 17.4899 254.602C16.9283 254.301 16.4327 253.872 15.9239 253.531C15.4085 253.196 15.0054 252.747 14.6156 252.406C14.4306 252.225 14.2521 252.057 14.0936 251.903C13.9416 251.736 13.8226 251.568 13.7103 251.428C13.3403 251.1 13.0165 250.812 12.739 250.57C12.4614 250.323 12.2698 250.081 12.0782 249.901C11.7148 249.532 11.4901 249.318 11.3646 249.224C11.1069 249.03 11.2522 249.298 11.4967 249.68C11.9659 250.443 12.8513 251.696 11.5694 250.497C10.8227 249.271 10.2346 248.487 9.44831 247.677C9.08489 247.242 8.70164 246.786 8.26553 246.264C7.86906 245.708 7.45938 245.051 7.02988 244.228L7.49242 244.007C7.1356 242.881 6.80521 242.024 6.65984 241.307C6.48804 240.604 6.28981 240.095 6.21712 239.7C6.01889 238.91 5.84709 238.648 5.6819 238.407C5.596 238.287 5.5167 238.173 5.4308 238.005C5.36472 237.831 5.30525 237.603 5.25239 237.248C5.19953 236.894 5.15328 236.418 5.12024 235.748C5.12024 235.038 5.14006 234.127 5.19292 232.955L5.54974 234.944C5.65547 235.628 5.81405 236.224 5.95942 236.813L5.8537 235.708L5.80744 234.482L5.71493 232.031L6.29642 233.042C5.86691 227.711 5.97925 226.05 6.13783 220.826C5.78101 222.038 5.21275 220.142 5.19292 215.514C5.49688 212.359 5.67529 217.282 5.6026 210.725C5.91978 212.205 6.32285 213.826 5.8537 216.68C6.01889 216.974 6.17087 218.14 6.33606 218.441C6.68627 215.045 6.41536 209.901 6.40875 207.53C6.38893 208.448 6.36249 209.54 6.28981 210.096L5.58278 200.591C5.77441 199.098 5.92638 200.283 6.07836 201.455C6.0255 199.527 5.78762 198.2 5.74797 195.367C6.16426 196.097 6.59377 195.923 6.78539 199.935L6.32285 190.88C6.50126 190.277 6.81843 186.231 6.97041 187.41C7.21489 182.387 6.16426 175.093 6.48804 168.435C6.40875 168.087 6.32946 167.397 6.26999 165.977C6.36249 159.722 6.87129 154.176 6.30302 146.761L7.04309 142.555C6.87129 136.748 6.10479 148.248 5.82727 138.583C5.58939 131.738 6.46161 136.025 6.66645 133.627C6.28981 130.224 5.52992 124.304 6.13122 118.014C6.26999 120.097 6.16426 121.732 6.21712 123.674L6.24356 123.728ZM5.91317 52.1013C6.01889 53.4878 6.34928 56.254 6.05193 57.272C5.47045 55.6914 5.74797 54.4657 5.91317 52.1013ZM73.5368 4.93548C72.5193 5.10962 70.9466 5.02255 69.1691 4.82832C70.4576 4.78813 71.918 4.80822 73.5368 4.93548ZM344.388 45.3768C344.382 45.3165 344.369 45.2763 344.362 45.2294C344.56 42.135 344.481 43.2335 344.388 45.3768ZM344.17 51.8067C344.243 52.4496 344.309 52.4095 344.382 52.1348C344.25 51.6861 344.243 50.2394 344.283 48.5984C344.151 49.0539 344.058 49.8844 344.17 51.8067ZM77.0323 261.762L75.7967 261.628C78.5852 261.481 77.8055 261.615 77.0323 261.762Z" fill="black"/>
<path d="M61.3578 5.64399C60.9683 5.5574 60.8627 5.46416 60.7703 5.36426C60.2357 5.45084 60.2225 5.55074 61.3578 5.64399Z" fill="black"/>
<path d="M6.51434 168.275V168.495C6.54075 168.616 6.56715 168.676 6.60015 168.716L6.51434 168.281V168.275Z" fill="black"/>
<path d="M280.874 5.94561C279.566 5.87235 278.839 5.7791 278.357 5.6792C278.284 5.80574 278.879 5.91231 280.874 5.94561Z" fill="black"/>
<path d="M345.029 85.8784L344.897 81.7593C344.924 83.7485 344.811 84.4652 344.732 85.4699C344.851 85.3761 345.023 84.5924 345.029 85.8784Z" fill="black"/>
<path d="M341.87 121.625C341.93 122.227 341.877 122.904 341.943 123.493L342.181 123.326C342.168 120.761 341.976 118.972 341.877 121.618L341.87 121.625Z" fill="black"/>
<path d="M343.338 89.6895C342.909 90.0176 343.054 92.5963 343.133 95.483V94.974C343.734 95.8246 343.536 92.7503 343.338 89.6895Z" fill="black"/>
<path d="M343.146 96.1528C343.166 97.0436 343.179 97.9478 343.159 98.8186C343.398 99.1535 343.213 97.7402 343.146 96.1528Z" fill="black"/>
<path d="M344.448 59.9646C344.336 61.331 344.996 60.8219 344.824 61.5989C345.372 63.126 344.164 52.4765 344.448 59.9646Z" fill="black"/>
<path d="M341.924 92.0271L342.452 90.9889L342.023 89.3748L341.924 92.0271Z" fill="black"/>
<path d="M342.314 69.2479L342.168 73.856C342.254 73.789 342.308 74.3717 342.347 75.0884C342.367 72.2485 342.473 69.1341 342.314 69.2412V69.2479Z" fill="black"/>
<path d="M342.347 75.095C342.334 76.5752 342.347 77.9817 342.432 78.8055C342.432 78.0085 342.406 76.2805 342.347 75.095Z" fill="black"/>
<path d="M341.765 85.7244L341.871 84.3647L341.91 81.1096L341.765 85.7244Z" fill="black"/>
<path d="M341.045 19.6911L340.576 18.4988C340.431 18.097 340.199 17.7353 340.014 17.3468L339.433 16.2149C339.215 15.8532 338.977 15.4982 338.752 15.1366C338.541 14.9624 338.594 15.1901 338.818 15.6523C338.924 15.8867 339.109 16.1613 339.268 16.5163C339.433 16.8646 339.624 17.2598 339.842 17.675C339.994 17.9362 340.193 18.2242 340.325 18.5323C340.464 18.8337 340.602 19.1284 340.715 19.3696C340.946 19.8451 341.098 20.0862 341.045 19.6911Z" fill="black"/>
<path d="M340.959 34.915C341.071 33.5553 341.19 33.4615 341.361 32.698L340.708 32.5439L340.959 34.915Z" fill="black"/>
<path d="M339.71 20.7157C339.472 20.2469 336.578 14.6274 338.957 20.0593C339.043 20.1531 339.208 20.5014 339.4 20.9033C339.585 21.3051 339.717 21.7874 339.849 22.1156C340.087 22.7786 340.219 22.8523 339.704 20.7157H339.71Z" fill="black"/>
<path d="M273.196 4.11846L274.458 4.11176L274.28 3.02002L273.196 4.11846Z" fill="black"/>
<path d="M207.291 6.73053C213.172 6.99175 208.685 6.05406 214.005 6.38225C215.386 6.12104 209.663 6.11434 211.077 5.89331C207.529 6.16792 205.666 6.01387 207.298 6.73053H207.291Z" fill="black"/>
<path d="M211.077 5.89218C211.645 5.85232 212.247 5.79916 212.888 5.72607C211.857 5.79252 211.374 5.84567 211.077 5.89218Z" fill="black"/>
<path d="M307.921 262.318L311.707 262.545L309.262 262.178L307.921 262.318Z" fill="black"/>
<path d="M315.182 261.508L316.074 262.203L318.347 261.575C317.495 261.608 315.836 261.668 315.182 261.508Z" fill="black"/>
<path d="M7.30044 41.4519L7.13543 41.1572C6.95721 41.7533 6.94401 42.6508 6.9176 44.4458L7.30044 41.4519Z" fill="black"/>
<path d="M6.78469 93.4405L6.79789 92.543L6.17743 94.2174L6.78469 93.4405Z" fill="black"/>
<path d="M7.57816 137.07C7.60456 135.288 7.46595 133.198 7.49235 131.41C7.60456 135.295 6.80588 137.552 7.57816 137.07Z" fill="black"/>
</svg>
