<svg width="381" height="164" viewBox="0 0 381 164" fill="none" xmlns="http://www.w3.org/2000/svg">
<path d="M355.685 4.28345H23.2628C12.268 4.28345 3.35498 13.1965 3.35498 24.1912V140.193C3.35498 151.188 12.268 160.101 23.2628 160.101H355.685C366.68 160.101 375.593 151.188 375.593 140.193V24.1912C375.593 13.1965 366.68 4.28345 355.685 4.28345Z" fill="#1C2129"/>
<path d="M357.046 162.967C355.324 163.003 355.938 163.485 355.685 163.582C358.636 163.329 356.962 162.835 357.046 162.967Z" fill="#1C2129"/>
<path d="M376.629 145.757L376.701 146.275C376.773 145.601 376.906 144.938 376.93 144.264C376.942 143.59 376.978 142.927 376.966 142.265C376.906 143.421 376.858 144.601 376.629 145.757Z" fill="#1C2129"/>
<path d="M377.388 122.068C376.532 124.272 377.532 130.51 377.219 134.653L377.026 135.34L377.713 137.207C377.604 132.16 377.147 125.609 377.388 122.068Z" fill="#1C2129"/>
<path d="M379.242 109.651C378.905 110.422 378.953 106.966 379.134 112.542C379.182 112.265 379.194 112.18 379.218 112.012C379.218 111.506 379.218 110.819 379.242 109.639V109.651Z" fill="#1C2129"/>
<path d="M379.23 112.024C379.254 114.481 379.507 110.422 379.23 112.024V112.024Z" fill="#1C2129"/>
<path d="M379.037 100.691L379.339 103.918C379.531 103.244 379.579 100.366 379.724 101.438C379.555 98.1256 379.363 98.8 379.037 100.691Z" fill="#1C2129"/>
<path d="M378.411 97.6318L378.544 99.3059C378.628 99.0168 378.652 98.5712 378.411 97.6318Z" fill="#1C2129"/>
<path d="M378.797 102.859L378.532 99.3059C378.387 99.7756 378.11 99.8238 378.628 100.932C378.375 100.643 378.628 101.341 378.797 102.847V102.859Z" fill="#1C2129"/>
<path d="M378.664 104.87C378.471 106.677 378.363 109.025 378.062 105.785C378.182 111.964 378.784 111.06 378.664 104.87Z" fill="#1C2129"/>
<path d="M376.496 120.876L376.243 123.296L376.532 125.392C376.388 124.344 376.761 120.719 376.496 120.876Z" fill="#1C2129"/>
<path d="M379.483 80.5664C379.302 80.3616 379.001 81.6503 378.76 81.8912L378.965 84.2758C379.086 83.0473 379.206 80.7229 379.471 80.5664H379.483Z" fill="#1C2129"/>
<path d="M378.76 81.8911L378.447 78.3263C378.411 81.5178 378.556 82.0959 378.76 81.8911Z" fill="#1C2129"/>
<path d="M377.448 97.0537L378.11 102.919L377.448 95.9216V97.0537Z" fill="#1C2129"/>
<path d="M379.507 66.9332L379.929 68.9564L379.29 65.3555L379.507 66.9332Z" fill="#1C2129"/>
<path d="M379.423 57.8886C379.772 59.382 380.013 55.8292 380.23 57.4189C380.17 54.9621 379.868 52.8665 379.591 50.9757C379.748 52.987 379.7 55.1186 379.423 57.8886Z" fill="#1C2129"/>
<path d="M379.206 47.7961C379.29 48.7957 379.435 49.8435 379.603 50.9636C379.519 49.8917 379.411 48.8439 379.206 47.7961Z" fill="#1C2129"/>
<path d="M378.532 72.2443C378.64 71.9673 378.929 71.4374 379.049 69.4382L378.532 70.8473C378.532 71.2809 378.532 71.7626 378.532 72.2564V72.2443Z" fill="#1C2129"/>
<path d="M378.532 70.8834V70.8352C378.568 69.3057 378.568 68.2579 378.58 67.8003C378.58 68.1857 378.556 69.113 378.532 70.8834Z" fill="#1C2129"/>
<path d="M378.532 72.5936C378.532 72.4612 378.532 72.3648 378.532 72.2444C378.484 72.3769 378.459 72.4612 378.532 72.5936Z" fill="#1C2129"/>
<path d="M377.917 87.696C377.628 85.6004 377.315 81.2287 376.882 85.4559C377.231 86.9614 377.484 84.5406 377.917 87.696Z" fill="#1C2129"/>
<path d="M377.893 74.34L377.773 78.1336C377.905 78.0614 378.11 77.3749 378.255 78.4106L377.893 74.34Z" fill="#1C2129"/>
<path d="M377.725 72.4852L377.893 74.3399L377.929 72.9308L377.725 72.4852Z" fill="#1C2129"/>
<path d="M378.724 54.2997C378.496 52.6618 378.483 50.8673 378.447 48.844C378.351 51.0118 378.291 53.2519 378.291 55.3836C378.447 55.6847 378.748 56.624 378.724 54.2997Z" fill="#1C2129"/>
<path d="M378.58 62.3568C378.58 62.2484 378.556 62.1039 378.556 61.9955C378.508 62.2243 378.495 62.3929 378.58 62.3568Z" fill="#1C2129"/>
<path d="M378.447 28.912C378.411 29.0204 378.387 29.1167 378.351 29.2372C378.375 29.2612 378.411 29.2853 378.435 29.3094V28.912H378.447Z" fill="#1C2129"/>
<path d="M378.194 55.745C378.098 57.3708 378.218 58.3463 378.375 59.2737C378.327 58.0573 378.291 56.7566 378.291 55.3716C378.218 55.2391 378.17 55.215 378.194 55.7329V55.745Z" fill="#1C2129"/>
<path d="M378.965 42.2441C378.857 43.0992 378.773 44.0507 378.688 45.0623C378.857 44.2313 379.11 42.5332 378.965 42.2441Z" fill="#1C2129"/>
<path d="M378.7 61.4414C378.7 61.5257 378.712 61.598 378.724 61.6823C378.833 61.1524 378.784 61.2126 378.7 61.4414Z" fill="#1C2129"/>
<path d="M378.7 61.4414C378.628 60.5984 378.495 59.948 378.387 59.2856C378.423 60.2732 378.483 61.2005 378.556 61.9954C378.592 61.7907 378.652 61.5859 378.7 61.4414Z" fill="#1C2129"/>
<path d="M375.087 22.9024C375.653 23.1313 376.075 27.4549 375.557 31.1522C375.918 34.7893 377.484 32.4167 378.363 29.2373C378.158 29.1289 377.966 29.1289 377.676 25.3713C377.412 26.6841 377.062 33.6813 376.641 30.5259C376.388 25.552 376.821 26.4673 377.05 24.0345C376.773 25.1064 376.556 23.4444 376.135 21.7101C375.689 19.9759 374.858 18.3019 374.593 18.9402C374.822 19.6146 375.063 20.3011 375.196 21.0116L375.436 22.0714C375.497 22.4327 375.533 22.794 375.581 23.1554C375.448 23.2397 375.159 21.6981 375.087 22.9024Z" fill="#1C2129"/>
<path d="M378.315 36.3791L378.375 37.9206C378.459 36.1623 378.652 34.9098 379.025 32.5854C378.797 30.0201 378.616 29.4902 378.459 29.3096L378.387 36.909L378.315 36.3791Z" fill="#1C2129"/>
<path d="M378.375 44.8455C377.857 43.6412 377.64 39.9318 377.074 42.208C377.11 46.7364 377.508 45.3755 377.737 48.0852C377.604 40.7869 378.026 50.1808 378.315 44.9058C378.399 46.3389 378.435 47.6276 378.447 48.856C378.508 47.5433 378.592 46.2787 378.688 45.0744C378.676 45.1466 378.664 45.1828 378.652 45.243V45.2791C378.592 45.5922 378.544 45.7006 378.58 45.3393C378.58 45.3152 378.58 45.2309 378.58 45.1828C378.508 45.1346 378.447 45.0021 378.387 44.8576C378.495 42.7379 378.52 44.5204 378.58 45.1828C378.604 45.2068 378.628 45.2671 378.652 45.2671V45.243L378.375 37.9326C378.303 39.4862 378.315 41.4252 378.375 44.8576V44.8455Z" fill="#1C2129"/>
<path d="M375.762 81.554C375.81 81.3252 375.846 81.3372 375.882 81.3252C375.822 80.8555 375.774 80.6748 375.762 81.554Z" fill="#1C2129"/>
<path d="M376.087 78.5431C376.159 79.073 376.364 79.5186 376.316 81.2528C376.159 82.7583 376.063 81.2529 375.894 81.3251C376.027 82.3729 376.267 84.9743 376.52 81.6985L376.448 81.1806C376.629 78.2299 377.279 74.4483 377.339 74.9662C376.87 75.8213 376.545 76.58 376.087 78.5431Z" fill="#1C2129"/>
<path d="M377.098 61.4776L376.846 55.3837L376.4 58.4909L376.665 58.3343C376.556 61.8028 376.894 61.0561 377.098 61.4776Z" fill="#1C2129"/>
<path d="M378.712 28.2136L379.254 29.0205L378.483 25.5038L378.712 28.2136Z" fill="#1C2129"/>
<path d="M378.207 19.735L378.724 19.9879C378.52 19.193 378.158 18.4343 377.881 17.6755C377.99 18.3741 378.122 19.0485 378.194 19.747L378.207 19.735Z" fill="#1C2129"/>
<path d="M6.22119 79.8799L6.35367 81.6744C6.31754 80.8313 6.26937 80.2773 6.22119 79.8799Z" fill="#1C2129"/>
<path d="M6.24543 66.9091L6.0166 66.5959C6.14908 67.1981 6.24543 67.439 6.24543 66.9091Z" fill="#1C2129"/>
<path d="M188.631 1.27247C186.03 0.826867 183.115 0.140392 183.428 0.670302L184.223 1.18817C186.042 1.09182 187.439 1.15204 188.631 1.26043V1.27247Z" fill="#1C2129"/>
<path d="M55.4669 4.40382C55.7198 4.452 55.9727 4.51222 56.2256 4.56039C56.8639 4.37974 57.454 4.21113 57.984 4.05457C57.2252 4.16296 56.3581 4.27135 55.4548 4.39178L55.4669 4.40382Z" fill="#1C2129"/>
<path d="M53.6243 6.55951L50.1919 6.22229C50.9627 6.34272 52.0707 6.45111 53.6243 6.55951Z" fill="#1C2129"/>
<path d="M9.00342 148.455C9.46107 148.852 9.88259 149.262 10.3764 149.587C8.91911 147.419 9.35268 148.491 9.00342 148.455Z" fill="#1C2129"/>
<path d="M301.984 1.41701C299.732 1.21227 297.949 1.12797 296.371 1.10388C299.081 1.40497 301.273 1.85057 301.984 1.41701Z" fill="#1C2129"/>
<path d="M0.669189 74.7734C0.765537 75.8694 0.873928 76.3391 0.982318 76.3029C0.898014 75.1709 0.789624 74.5326 0.669189 74.7734Z" fill="#1C2129"/>
<path d="M289.868 1.10378C290.265 1.13991 290.651 1.18808 291.06 1.22421C292.71 1.13991 294.36 1.06765 296.371 1.10378C294.372 0.874955 292.072 0.742478 289.868 1.10378Z" fill="#1C2129"/>
<path d="M259.157 157.114C259.35 157.138 259.567 157.162 259.735 157.174C259.796 157.102 259.531 157.102 259.157 157.114Z" fill="#1C2129"/>
<path d="M333.935 162.389C333.2 162.426 331.996 162.426 330.864 162.426C331.418 162.462 332.345 162.462 333.935 162.389Z" fill="#1C2129"/>
<path d="M351.205 0.995419C351.47 0.935201 352.879 0.959288 351.205 0.995419V0.995419Z" fill="#1C2129"/>
<path d="M359.575 3.44031C359.19 3.44031 358.901 3.47644 358.829 3.58483C358.985 3.47644 359.25 3.44031 359.575 3.44031Z" fill="#1C2129"/>
<path d="M273.14 4.35559C273.14 4.35559 273.055 4.35559 272.995 4.35559C273.489 4.45194 273.405 4.43989 273.14 4.35559Z" fill="#1C2129"/>
<path d="M353.734 1.23628C353.108 1.17606 352.373 1.11584 351.591 1.07971C351.94 1.11584 352.59 1.17606 353.734 1.23628Z" fill="#1C2129"/>
<path d="M353.397 0.98345C353.975 1.00754 354.433 1.01958 354.866 1.03162C355.083 0.94732 354.89 0.887103 353.397 0.98345Z" fill="#1C2129"/>
<path d="M348.869 1.01957C349.832 1.01957 350.723 1.03161 351.59 1.07979C351.265 1.04366 351.121 1.01957 351.217 0.995483C350.723 0.995483 350.025 1.00753 348.881 1.01957H348.869Z" fill="#1C2129"/>
<path d="M121.621 158.523C121.73 158.535 121.862 158.56 121.983 158.572C123.681 158.355 122.934 158.391 121.621 158.523Z" fill="#1C2129"/>
<path d="M144.925 6.70406C144.998 6.70406 145.046 6.69201 145.118 6.67997C145.034 6.67997 144.937 6.66793 144.865 6.65588L144.925 6.70406Z" fill="#1C2129"/>
<path d="M138.904 7.08938C141.469 6.43904 142.926 6.52334 144.877 6.65582L142.878 5.15039L138.904 7.08938Z" fill="#1C2129"/>
<path d="M6.36582 110.904L6.83552 106.664C7.6063 111.771 7.34134 115.48 8.00373 111.494C6.36582 110.892 7.83512 95.0305 6.19722 94.4404L6.54647 91.6463C6.53443 92.4412 6.63078 92.5736 6.60669 93.3685C7.38951 87.9369 5.42644 89.3339 5.65526 82.3367C5.7757 79.9039 6.01656 78.1938 6.20926 79.8558L5.79978 74.4242C5.83591 72.8465 6.11291 73.2319 6.08883 74.7975L5.95635 66.5117L6.00452 66.5719C5.75161 65.3916 5.35418 62.7059 5.18557 61.4053C5.41439 59.2976 5.35418 62.4651 5.55892 61.9231L5.16148 57.3346C5.583 55.4678 5.99248 59.2736 5.93226 62.441C7.57017 58.1535 5.52278 58.6353 6.47421 49.3859L6.67895 53.7215C7.6063 50.9275 7.26908 47.5433 7.84717 42.6536C7.54608 43.8098 6.38991 52.457 5.98043 47.4831C6.10087 46.086 6.16109 44.2313 5.83591 41.5457C6.414 41.5216 6.26948 38.8961 6.24539 35.6203L7.01617 35.8491C6.79939 32.2963 6.40195 32.5853 6.0527 30.4898C6.12496 26.5395 6.72713 25.7206 7.23295 24.7812C7.23295 24.3717 7.23295 24.0586 7.25704 23.8659C7.25704 23.6491 7.26908 23.4805 7.26908 23.348C7.26908 23.0831 7.23295 22.9747 7.19682 22.9747C7.11252 22.9747 6.968 23.3721 6.81143 23.7575C6.64282 24.1188 6.4983 24.5765 6.38991 24.4319C6.26948 24.2393 6.17313 23.6491 6.29356 22.0353C6.73917 19.8193 7.3293 18.0008 8.19642 16.1581C9.08764 14.3396 10.2077 12.4247 12.243 10.4857C14.9889 8.76346 12.0744 11.1962 13.1342 10.6784C13.7364 9.93167 14.447 9.29337 15.1937 8.65507C15.832 8.36602 15.7115 8.63098 15.6513 8.76346C16.6629 8.12516 16.6629 7.95655 16.7954 7.70364C16.8677 7.57116 16.9761 7.43868 17.3013 7.23394C17.6144 7.00512 18.1684 6.77629 19.1198 6.48725C19.3245 6.18617 19.9628 6.06573 20.8661 5.99347C21.3117 5.93325 21.8296 5.98143 22.3836 6.01756C22.6606 6.04164 22.9496 6.05369 23.2507 6.07778C23.5759 6.11391 23.9131 6.15004 24.2503 6.18617C26.9962 6.48725 30.26 6.76425 32.9457 6.28251C34.2704 6.49929 32.3074 6.75221 32.7168 7.05329C40.0633 6.42703 39.0155 6.59564 45.0493 5.74056L50.1918 6.24638C46.4102 5.6683 51.2396 4.98182 55.4669 4.41578C54.13 4.13878 52.9859 3.89792 52.2151 3.77748L58.9594 3.36801C59.7784 3.50048 59.0919 3.75339 57.9839 4.07857C58.4416 4.00631 58.8751 3.94609 59.2244 3.89792C61.6331 4.18696 60.3806 4.63256 58.6584 5.05408C57.8394 4.89752 57.0205 4.72891 56.2256 4.58439C54.5636 5.05408 52.998 5.57195 53.3472 6.01756C53.7808 5.93325 54.6359 5.84895 55.5632 5.81282C55.1296 5.9453 54.8526 6.05369 55.0453 6.12595C55.2742 6.21025 55.9727 6.04164 57.0807 5.83691L58.6102 6.69199L58.9835 6.35477L67.8114 6.89673C74.1221 6.0296 79.626 4.76504 89.6461 4.40374C87.1531 5.03 89.1162 5.42743 88.9716 6.17412C86.2378 5.37926 81.2036 6.51134 76.0129 6.35477C78.7227 6.43908 78.1326 6.78834 77.4341 6.92081L86.6954 6.19821C86.4907 6.81242 88.6585 6.65586 91.0792 6.90877C89.2486 5.70443 97.9922 6.10186 101.762 5.74056C101.991 6.15004 101.087 6.55951 96.4867 6.46316C101.557 7.36642 103.05 5.04204 108.024 5.81282C106.904 5.81282 106.29 5.76465 105.857 5.96938C108.482 5.60808 114.889 5.89712 113.384 6.24638H112.264C119.719 6.40295 134.965 6.25843 136.073 5.23474C136.146 5.36721 135.098 6.47521 134.64 6.67995L147.948 3.23553C146.78 4.1147 151.272 6.21025 145.094 6.70403C146.864 6.82447 149.068 6.98103 152.814 6.6679C151.597 6.54747 149.791 5.3913 151.453 5.31904C155.993 6.29456 154.608 5.83691 160.208 6.67995C158.39 6.48725 160.413 5.1143 163.28 5.15043C162.834 5.35517 163.52 6.51134 162.473 6.65586L169.614 5.307C167.832 5.54786 169.301 6.45112 170.903 6.83651C170.156 6.57156 177.081 6.8606 178.984 6.72812L175.961 6.41499C184.018 6.61973 183.922 4.51213 191.919 4.58439C190.955 4.86139 189.522 6.3066 193.593 6.47521C195.46 5.77669 201.843 3.13918 208.924 2.60927L210.285 3.0067L215.717 2.54905C212.332 3.59683 202.842 5.78873 197.664 6.64382C200.674 6.95694 198.507 7.11351 203.023 7.07738C204.613 7.45073 200.554 7.64342 199.229 7.66751L209.743 7.90838C209.273 7.10147 217.788 7.10147 217.391 6.42703L205.961 7.27007C205.504 6.46316 212.573 4.96978 220.016 5.1143C221.907 5.43947 218.595 6.55951 218.752 6.82447C219.715 6.54747 225.821 6.29456 226.508 6.48725L223.34 6.92081C227.495 7.2219 230.109 5.84895 235.094 6.61973C236.817 6.6679 240.237 7.66751 240.526 7.18577C237.72 6.25843 237.166 3.40414 239.045 2.70562C239.647 2.76583 248.077 3.58479 250.052 4.04244C252.883 4.76504 245.801 5.76465 248.21 6.3909C248.318 6.17412 249.884 5.89712 250.534 5.81282C252.341 6.00551 249.787 6.4993 253.714 6.40295C254.364 5.58399 261.698 6.47521 255.568 5.70443C259.41 5.4756 259.651 5.87304 264.167 5.83691C262.734 5.307 268.214 4.03039 272.068 3.80157C271.839 4.00631 272.706 4.28331 273.128 4.40374C281.004 4.476 285.231 4.84935 292.578 4.86139C293.252 5.06613 296.793 5.29495 295.288 5.65626C296.347 5.51173 297.311 5.23474 299.575 5.21065C303.959 5.92121 294.529 5.31904 297.865 6.17412C298.154 5.69239 303.718 5.51173 306.946 5.22269C305.958 4.48804 299.491 5.07817 296.263 5.37926C296.251 4.36761 301.875 3.29574 309.547 2.82605C315.653 2.57314 312.196 3.48844 313.256 3.34392C324.71 3.52457 323.023 1.57354 332.526 2.30818C336.295 2.95853 332.694 3.59683 333.537 4.06652C328.563 4.30739 325.914 3.65705 322.542 3.68113L326.685 3.98222C325.107 4.199 321.783 4.35557 319.977 4.17491C323.144 4.753 339.33 4.28331 348.17 4.82526C349.736 4.60848 352.458 4.37965 351.169 4.12674L348.375 4.22309C345.81 3.70522 353.638 3.50048 350.097 3.25961C351.988 3.09101 353.927 2.81401 356.179 2.71766C358.54 2.58518 361.189 2.99466 363.803 4.21104C364.055 4.54826 364.26 4.95774 364.477 5.31904C364.477 5.25882 364.272 5.10226 363.959 4.89752C363.634 4.70482 363.176 4.51213 362.67 4.28331C362.165 4.05448 361.599 3.87383 361.045 3.75339C360.503 3.63296 359.997 3.48844 359.599 3.51253C360.189 3.51253 360.996 3.78953 361.9 4.07857C362.779 4.476 363.778 4.88548 364.694 5.46356C365.645 5.96938 366.5 6.63177 367.331 7.11351C368.102 7.69159 368.885 8.07698 369.499 8.35398C368.62 7.36642 367.656 6.43908 366.573 5.63217C368.439 6.47521 370.463 7.71568 372.269 9.42585C374.088 11.124 375.665 13.352 376.556 15.857C376.436 14.5925 376.231 14.3275 376.027 13.894C375.822 13.4483 375.521 12.8944 374.834 11.0276C375.304 12.7257 373.522 9.73897 371.173 7.59525C368.837 5.40334 366.235 4.07857 368.174 5.88508C366.849 4.43987 365.38 3.50048 363.67 2.80196C361.972 2.04323 360.033 1.51332 357.468 0.85093C357.54 0.971364 357.986 1.11589 357.853 1.1761C357.781 1.21223 357.564 1.22428 357.082 1.20019C356.625 1.20019 355.77 1.11589 354.842 1.10384C354.662 1.1761 354.252 1.26041 353.975 1.32062C353.855 1.32062 353.819 1.32062 353.71 1.29654C353.794 1.29654 353.843 1.32062 353.927 1.32062C353.758 1.35675 353.746 1.3688 354.011 1.32062C354.963 1.42901 355.673 1.53741 356.059 1.70601C354.023 2.22388 347.833 2.23592 345.701 2.51292C343.365 2.39249 346.677 2.23592 345.4 1.97097L342.245 2.40453C341.932 1.86258 336.054 1.50127 341.546 1.18815L336.596 1.16406C333.682 0.862974 329.684 0.742539 327.215 0.971364C324.878 0.85093 321.325 1.57354 323.361 1.15202L315.605 1.48923L315.533 1.35675C307.885 1.28449 299.78 2.24797 291.036 1.27245C288.459 1.40493 285.797 1.57354 281.486 1.41697L280.643 0.947278C277.331 1.11589 270.707 0.477584 269.286 0.971364C265.721 -0.293195 253.232 0.694366 247.415 0.477584L247.198 1.0918C243.2 1.05567 239.358 1.23632 234.384 1.47719L234.685 2.01914C230.398 2.46475 223.665 1.63375 216.897 1.69397C217.355 1.48923 219.077 1.53741 220.293 1.66988C212.2 0.453497 203.216 2.5611 195.869 1.66988C194.038 1.86258 192.714 1.80236 191.437 1.66988C191.606 1.66988 191.762 1.66988 191.895 1.6458C191.702 1.6458 191.425 1.6458 191.148 1.6458C190.341 1.54945 189.51 1.46514 188.607 1.35675C189.378 1.48923 190.112 1.59762 190.751 1.6458C189.342 1.6458 187.198 1.7301 185.102 1.86258L184.211 1.28449C184.042 1.28449 183.898 1.28449 183.729 1.29654C181.67 1.07976 182.079 1.57354 183.175 2.0071C182.115 2.10345 181.152 2.21184 180.405 2.35636C178.731 1.41697 174.901 2.66949 172.613 1.66988C171.204 2.15162 162.063 2.03119 160.943 3.05488C160.871 2.9224 160.257 2.86218 161.389 2.85014C159.052 2.7297 156.716 2.62131 154.62 2.91036L153.633 2.17571L148.526 3.16327C145.419 2.71766 144.143 2.45271 147.214 1.88666C139.771 2.75379 141.18 2.21184 134.857 3.07896L135.17 2.59723C132.906 2.62131 129.293 3.25961 127.932 2.86218C122.874 1.95893 102.906 2.74175 89.9231 1.89871C92.4402 3.30779 83.8893 1.27245 83.3715 2.35636C82.6127 2.01914 80.8062 1.83849 82.9138 1.54945C76.2899 1.87462 72.9539 1.01954 68.3774 1.93484C67.6187 1.59762 69.7985 1.4531 69.1241 1.24836C68.5942 1.32062 67.0165 1.53741 66.33 1.34471C65.6556 1.15202 67.3055 1.06771 68.3533 0.923191C61.5849 0.983408 60.8984 2.0071 60.4047 2.95853C56.9723 2.50088 55.2621 2.57314 52.7812 3.1994C51.5889 2.88627 49.5897 2.5611 53.8049 2.44066C51.4444 2.39249 39.3528 1.98301 39.1119 2.75379C38.3652 2.5611 35.7999 2.69357 35.1857 2.78992C29.8746 2.74175 29.4049 2.66949 24.1901 2.74175L25.6353 2.86218C24.5875 3.34392 23.5638 3.33187 22.1186 3.38005C20.6975 3.36801 18.9632 3.51253 16.8436 4.18696L16.9399 4.05448C15.7115 4.40374 14.7119 4.71687 13.9411 5.07817C13.1463 5.3913 12.5802 5.72852 12.1226 6.00551C11.1952 6.52338 10.7978 6.93286 10.3642 7.27007C9.93068 7.60729 9.53324 7.98064 8.76246 8.67915C8.35299 9.00433 7.89534 9.46198 7.30521 10.0521C6.691 10.6181 6.02861 11.413 5.20966 12.4247C5.46257 12.3644 5.72752 12.3163 5.99248 12.2922C6.24539 13.0389 4.84835 14.6888 3.63197 17.2541C3.00571 18.5186 2.48784 20.0361 2.18676 21.6017C2.00611 22.3846 1.99406 23.1915 1.93385 23.9743C1.89771 24.7451 1.93385 25.4436 1.99406 26.1421L2.33128 24.1429C2.74075 27.1658 0.633156 32.5733 0.476591 35.5962C0.3682 36.2586 0.307983 34.5484 0.223679 33.6331C-0.510969 41.5577 0.982415 34.6568 1.15102 40.5701C0.741547 41.654 0.115289 39.1731 0.0430281 43.1354C-0.282144 45.1105 1.3678 54.6609 0.584982 60.0805C0.898111 58.8882 1.21124 57.6959 1.45211 60.4418C1.5605 64.6449 0.25981 71.8108 1.25941 75.6044C1.17511 76.1344 1.09081 76.3391 1.01855 76.3632C1.27146 79.5788 1.44006 86.8048 1.98202 88.7438C-0.0171891 91.7185 2.95754 108.724 1.11489 108.652L1.21124 118.539L1.01855 118.286C0.898111 124.609 1.34372 126.837 1.77728 129.065C1.65685 130.522 1.4762 129.463 1.37985 129.342C1.1992 133.955 1.12694 136.496 1.21124 138.844C1.23533 139.447 1.24737 139.977 1.31963 140.639C1.40393 141.289 1.46415 141.964 1.59663 142.674C1.9218 144.083 2.35537 145.697 3.29475 147.552L3.04184 148.588C3.6681 149.539 4.87244 153.128 8.22051 156.464C9.85842 158.126 11.9781 159.716 14.4108 160.763C16.8316 161.835 19.5413 162.377 22.0584 162.329C21.9621 162.389 21.7453 162.498 20.9263 162.534C21.6369 162.534 22.3715 162.546 23.1182 162.558C23.7927 162.558 24.4671 162.534 25.1656 162.534C26.5386 162.534 27.9356 162.558 29.3567 162.594C32.1749 162.678 35.0292 162.847 37.6667 162.955C42.9537 163.184 47.4459 163.232 49.3127 162.148L56.0329 161.619C47.3375 161.45 57.3336 160.679 53.7446 160.318C57.165 160.185 62.5845 160.968 58.3814 161.089L57.719 160.98C56.1774 162.112 68.5219 161.378 68.2931 162.148C85.4068 162.088 102.087 162.715 118.117 162.763L116.274 161.884L121.862 161.932C123.332 162.136 123.837 162.618 119.839 162.582C121.934 163.076 126.523 162.161 126.643 161.968C134.46 162.329 123.596 162.992 125.993 163.016L129.245 162.955L128.51 162.847C131.148 162.486 131.377 162.1 136.17 162.148C139.205 162.329 137.723 162.69 138.916 162.727C138.916 162.787 139.313 162.823 140.746 162.751L147.792 162.823L144.974 162.124C148.093 161.787 151.597 162.161 148.346 161.378C153.115 162.594 174.624 161.811 177.551 162.197C181.923 161.691 186.246 161.703 191.594 161.763C190.269 161.619 189.474 160.836 194.087 160.932C192.401 162.546 202.529 161.631 206.263 162.799C202.927 162.028 219.378 162.606 214.151 161.51C218.005 161.643 214.38 162.112 217.306 162.498C226.471 161.871 237.491 162.907 248.812 162.69C248.993 162.474 247.09 162.161 249.523 161.835L255.496 162.895C257.736 162.787 257.555 161.667 261.638 162.413C261.06 162.233 260.205 161.968 261.698 161.896C283.882 162.931 307.03 161.053 329.551 162.992C326.504 162.582 328.527 162.546 330.864 162.522C329.346 162.425 330.9 162.004 330.599 161.715L340.029 162.51C341.751 161.715 350.145 162.462 351.121 161.691L348.134 161.823C352.108 160.92 342.582 159.824 343.16 158.668C338.716 159.692 331.43 157.15 324.144 158.62C322.53 158.379 325.516 158.246 324.661 157.981C322.807 158.475 320.579 158.584 316.436 158.355L316.905 158.234C305.271 158.355 300.298 157.873 287.23 157.548L288.194 158.114C285.388 158.042 284.798 157.861 283.485 157.716C280.269 158.584 291.373 157.765 288.435 158.716C284.713 157.56 268.635 158.704 266.118 157.379C261.795 157.379 267.383 158.042 263.071 158.03L261.927 157.668L260.831 158.126C258.001 158.054 256.568 157.608 256.472 157.307C257.158 157.343 258.423 157.223 259.157 157.199C255.484 156.777 248.8 157.343 247.547 157.199L251.702 157.415C239.912 157.753 225.532 157.283 214.139 158.006L215.006 158.27C206.311 158.764 208.045 157.969 198.495 158.21L198.844 158.15C196.929 158.415 194.388 158.56 191.774 158.523C194.183 158.21 187.234 157.909 190.401 157.56C180.971 158.09 185.741 157.981 179.514 158.981L178.081 158.535C175.961 158.945 175.781 159.15 171.011 159.27C174.926 158.885 167.964 158.584 172.348 158.078C162.34 157.102 157.487 159.065 152.898 157.632C148.31 158.873 161.557 158.319 158.98 158.584C161.136 158.993 155.186 159.511 152.043 159.378C148.852 159.354 146.611 157.801 138.566 157.825C139.361 157.825 139.422 157.741 140.216 157.741C137.206 157.427 134.315 158.162 130.63 157.656C128.558 158.403 125.837 157.608 125.246 158.572L132.617 158.355C128.438 158.608 124.512 159.716 117.623 159.174C118.165 158.981 120.212 158.728 121.621 158.584C119.61 158.307 117.743 158.764 115.66 158.487C116.25 157.536 124.62 158.283 129.1 157.548C126.945 157.15 120.622 158.234 122.874 157.211C119.634 158.523 114.949 157.042 109.506 158.054L109.867 157.488C109 157.572 107.217 157.849 105.64 157.837L108.506 157.09C104.098 157.717 100.003 156.536 95.7762 156.885C104.628 156.873 97.7634 157.572 101.509 157.993C90.5855 158.764 95.2342 156.5 83.0102 156.777C84.6601 156.693 89.2246 157.126 86.6352 157.379C84.3108 157.259 81.2398 157.042 79.8066 156.741C71.7134 156.861 81.0471 157.331 77.6027 157.68C74.8447 156.982 73.6283 157.969 70.0755 158.186L70.0514 157.608C60.8262 157.235 67.6066 158.824 59.2967 158.367L62.8133 157.56L58.4777 157.765L59.3689 157.102C54.6599 157.596 53.1906 157.464 48.566 157.283C49.6378 157.692 47.9638 158.343 43.869 158.355C41.087 158.006 45.4347 157.801 39.6418 157.885C40.9545 157.524 42.3877 157.066 44.9048 157.596C45.1577 157.403 46.1934 157.235 46.4584 157.042C43.4596 156.645 38.9071 156.946 36.8116 156.958C37.6185 156.982 38.582 157.006 39.0758 157.09L30.6815 157.897C29.3567 157.68 30.4045 157.5 31.4523 157.331C29.7541 157.391 28.5739 157.656 26.0689 157.716C26.7192 157.247 26.5626 156.753 30.1034 156.536L26.105 156.801L24.1058 156.934C23.7806 156.958 23.4073 156.982 23.1303 156.994L22.2872 157.018C21.8055 156.91 18.9994 155.958 19.8785 155.97C18.1684 155.476 16.0367 154.922 13.9532 153.718C11.8817 152.55 9.89455 150.695 8.83473 148.467C8.59386 148.311 8.3289 147.877 7.79899 146.95C6.91982 144.782 6.65487 142.554 6.72713 140.278C6.79939 137.544 6.78734 134.677 6.46217 131.402L7.30521 127.68C7.11252 122.55 6.23335 132.714 5.92022 124.164C5.65526 118.118 6.64282 121.899 6.88369 119.78C6.46217 116.769 5.583 111.542 6.28152 105.978C6.43808 107.821 6.31765 109.266 6.37787 110.976L6.36582 110.904ZM5.99248 47.6155C6.11291 48.844 6.48626 51.2888 6.14904 52.18C5.48665 50.783 5.79978 49.699 5.99248 47.6155ZM64.7885 5.51173C63.8732 5.70443 62.4641 5.60808 60.8744 5.3913C62.0305 5.34313 63.3433 5.36721 64.7885 5.51173ZM332.803 1.46514C332.803 1.46514 332.718 1.48923 332.67 1.48923C329.936 1.26041 330.9 1.35675 332.803 1.46514ZM338.487 1.71806C339.053 1.63375 339.017 1.56149 338.776 1.47719C338.379 1.62171 337.102 1.63375 335.657 1.59762C336.054 1.75419 336.789 1.85053 338.487 1.7301V1.71806ZM139.554 162.425L138.446 162.269C140.939 162.1 140.24 162.257 139.554 162.425Z" fill="#1C2129"/>
<path d="M53.8771 6.30666C53.5278 6.21031 53.4315 6.10192 53.3472 5.99353C52.8654 6.08988 52.8534 6.19827 53.8771 6.30666Z" fill="#1C2129"/>
<path d="M8.75049 148.226L8.83479 148.371C8.90705 148.431 8.96727 148.455 9.01544 148.455L8.76253 148.226H8.75049Z" fill="#1C2129"/>
<path d="M250.486 6.64374C249.318 6.55943 248.667 6.45104 248.234 6.34265C248.174 6.48717 248.703 6.60761 250.486 6.64374Z" fill="#1C2129"/>
<path d="M369.836 5.51169C369.246 5.10221 368.668 4.69274 368.03 4.35552C367.403 4.00626 366.801 3.64496 366.139 3.38C367.09 3.78948 367.632 4.24713 368.114 4.56026C368.584 4.87339 368.909 5.18652 369.294 5.53578C369.294 5.36717 368.752 4.71682 369.836 5.51169Z" fill="#1C2129"/>
<path d="M375.545 37.4147C375.617 37.9446 375.545 38.5467 375.629 39.0646L375.894 38.9201C375.882 36.6559 375.653 35.0662 375.545 37.4147Z" fill="#1C2129"/>
<path d="M371.366 9.47412C371.209 10.0402 373.028 11.666 374.413 14.0506C374.328 13.9061 374.244 13.7736 374.16 13.6411C375.159 14.0386 373.57 11.4372 371.366 9.48616V9.47412Z" fill="#1C2129"/>
<path d="M374.702 14.6165L375.268 15.7485C375.449 16.1339 375.569 16.5314 375.701 16.9288C376.051 17.1456 375.461 15.9171 374.69 14.6165H374.702Z" fill="#1C2129"/>
<path d="M345.689 1.39287C346.894 1.51331 346.448 0.766617 347.134 0.971355C348.483 0.345097 339.077 1.71805 345.689 1.39287Z" fill="#1C2129"/>
<path d="M371.522 12.1597C371.498 11.7984 371.486 11.413 371.426 11.0517L370.089 10.3051C370.583 10.9193 371.113 11.4974 371.522 12.1718V12.1597Z" fill="#1C2129"/>
<path d="M353.891 3.83772C355.24 3.87385 356.625 3.95816 357.986 4.15085C357.937 4.04246 358.467 4.06655 359.118 4.11472C357.853 3.86181 356.504 3.80159 355.493 3.75342C354.505 3.75342 353.843 3.75342 353.891 3.84977V3.83772Z" fill="#1C2129"/>
<path d="M359.118 4.10266C359.78 4.18697 360.406 4.37966 360.972 4.50009C361.538 4.60848 362.032 4.74096 362.393 4.83731C362.056 4.70483 361.502 4.53622 360.9 4.41579C360.298 4.27127 359.66 4.12675 359.118 4.10266Z" fill="#1C2129"/>
<path d="M367.476 8.40211C367.175 8.13715 366.898 7.83606 366.573 7.60724C365.766 7.08937 364.959 6.57151 364.08 6.17407C364.682 6.4872 365.284 6.80033 365.838 7.19776L366.681 7.7638L367.476 8.40211Z" fill="#1C2129"/>
<path d="M310.113 3.71729L305.669 3.88589C305.211 4.09063 306.428 4.22311 308.078 4.13881C309.137 3.99428 310.787 3.90998 310.113 3.71729Z" fill="#1C2129"/>
<path d="M323.553 5.3672C322.349 5.24676 322.265 5.10224 321.59 4.90955L321.458 5.65624L323.553 5.3672Z" fill="#1C2129"/>
<path d="M310.595 5.54797C310.149 5.75271 304.139 6.1381 309.776 6.10197C310.221 5.89723 314.677 5.72862 310.595 5.54797Z" fill="#1C2129"/>
<path d="M243.621 4.59643L244.741 4.58439L244.585 3.35596L243.621 4.59643Z" fill="#1C2129"/>
<path d="M184.584 7.53509C189.847 7.82413 185.837 6.77635 190.594 7.1497C191.834 6.86066 186.704 6.84861 187.969 6.5957C184.789 6.89679 183.115 6.72818 184.584 7.53509Z" fill="#1C2129"/>
<path d="M187.969 6.59569C188.474 6.54752 189.016 6.4873 189.594 6.41504C188.679 6.4873 188.246 6.54752 187.969 6.59569Z" fill="#1C2129"/>
<path d="M346.352 163.052L349.736 163.305L347.544 162.895L346.352 163.052Z" fill="#1C2129"/>
<path d="M352.855 162.136L353.65 162.919L355.685 162.209C354.914 162.245 353.433 162.305 352.855 162.136Z" fill="#1C2129"/>
<path d="M7.57012 38.2096L7.37742 37.9567C7.17269 38.4866 7.16064 39.2694 7.12451 40.8591L7.55808 38.2096H7.57012Z" fill="#1C2129"/>
<path d="M6.97993 84.1432L7.00402 83.3484L6.29346 84.8297L6.97993 84.1432Z" fill="#1C2129"/>
<path d="M7.88335 122.694C7.90744 121.117 7.75088 119.274 7.78701 117.696C7.91948 121.129 7.00418 123.128 7.88335 122.694Z" fill="#1C2129"/>
</svg>
