<svg width="180" height="137" viewBox="0 0 180 137" fill="none" xmlns="http://www.w3.org/2000/svg">
<rect x="2.74609" y="2.62183" width="174.351" height="131.401" rx="12" fill="#1C2129"/>
<path d="M165.933 136.043C164.967 136.071 165.313 136.285 165.169 136.334C166.813 136.202 165.885 135.984 165.933 136.043Z" fill="#1C2129"/>
<path d="M177.468 126.673L177.461 126.965C177.557 126.59 177.656 126.219 177.7 125.833L177.786 125.264L177.827 124.983L177.841 124.695C177.827 125.031 177.741 125.354 177.687 125.687L177.594 126.184C177.563 126.35 177.505 126.507 177.464 126.67L177.468 126.673Z" fill="#1C2129"/>
<path d="M178.204 112.822C177.814 114.113 178.265 117.772 178.129 120.206L178.04 120.609L178.354 121.706C178.303 118.748 178.094 114.905 178.204 112.822Z" fill="#1C2129"/>
<path d="M179.05 105.539C178.899 105.99 178.92 103.963 179.002 107.236C179.019 107.073 179.03 107.025 179.04 106.927C179.04 106.632 179.04 106.226 179.05 105.535V105.539Z" fill="#1C2129"/>
<path d="M179.04 106.927C179.167 105.987 179.05 108.365 179.04 106.927Z" fill="#1C2129"/>
<path d="M178.954 100.283L179.091 102.178C179.18 101.782 179.2 100.095 179.265 100.724C179.19 98.7795 179.101 99.1787 178.954 100.286V100.283Z" fill="#1C2129"/>
<path d="M178.666 98.488L178.725 99.4705C178.762 99.2969 178.776 99.04 178.666 98.488Z" fill="#1C2129"/>
<path d="M178.848 101.553L178.728 99.4705C178.666 99.7447 178.54 99.7725 178.772 100.425C178.656 100.255 178.769 100.668 178.851 101.55L178.848 101.553Z" fill="#1C2129"/>
<path d="M178.786 102.73C178.7 103.792 178.649 105.167 178.512 103.265C178.567 106.889 178.841 106.354 178.786 102.73Z" fill="#1C2129"/>
<path d="M177.8 112.124L177.687 113.544L177.817 114.773C177.752 114.158 177.923 112.034 177.8 112.124Z" fill="#1C2129"/>
<path d="M179.156 88.4796C179.074 88.3616 178.933 89.1184 178.827 89.2572L178.923 90.6563C178.981 89.9377 179.033 88.5733 179.156 88.4796Z" fill="#1C2129"/>
<path d="M178.827 89.257L178.683 87.1637C178.666 89.0349 178.735 89.3751 178.827 89.257Z" fill="#1C2129"/>
<path d="M178.235 98.1512L178.532 101.592L178.228 97.4882L178.235 98.1512Z" fill="#1C2129"/>
<path d="M179.166 80.4811L179.358 81.6684L179.067 79.5542L179.166 80.4811Z" fill="#1C2129"/>
<path d="M179.132 75.173C179.293 76.0513 179.402 73.9684 179.502 74.8988C179.474 73.4581 179.337 72.2257 179.214 71.1183C179.283 72.2951 179.266 73.5518 179.136 75.173H179.132Z" fill="#1C2129"/>
<path d="M179.033 69.2576C179.071 69.8443 179.139 70.4552 179.211 71.1183C179.173 70.4934 179.122 69.879 179.033 69.2576Z" fill="#1C2129"/>
<path d="M178.724 83.5949C178.776 83.4317 178.906 83.1193 178.961 81.9459L178.728 82.7687C178.728 83.0186 178.728 83.3033 178.724 83.5949Z" fill="#1C2129"/>
<path d="M178.721 82.8L178.728 82.7722C178.735 81.8766 178.738 81.2586 178.741 80.9913C178.741 81.2205 178.731 81.7655 178.721 82.8Z" fill="#1C2129"/>
<path d="M178.724 83.8031C178.724 83.7269 178.724 83.6714 178.724 83.5952C178.701 83.6749 178.694 83.7234 178.724 83.8031Z" fill="#1C2129"/>
<path d="M178.447 92.6592C178.317 91.4303 178.176 88.8648 177.974 91.347C178.135 92.2288 178.248 90.8089 178.447 92.6592Z" fill="#1C2129"/>
<path d="M178.433 84.8275L178.379 87.0528C178.44 87.0076 178.529 86.6084 178.594 87.2159L178.43 84.8275H178.433Z" fill="#1C2129"/>
<path d="M178.358 83.7373L178.433 84.8274L178.45 84.0011L178.358 83.7373Z" fill="#1C2129"/>
<path d="M178.813 73.0694C178.711 72.1078 178.704 71.0559 178.687 69.8687C178.642 71.1427 178.615 72.4584 178.615 73.7082C178.687 73.8852 178.82 74.4337 178.813 73.0694Z" fill="#1C2129"/>
<path d="M178.749 77.7976C178.745 77.7317 178.738 77.6449 178.735 77.5824C178.714 77.7143 178.707 77.8184 178.749 77.7976Z" fill="#1C2129"/>
<path d="M178.687 58.1799C178.674 58.2459 178.66 58.3014 178.646 58.3674C178.66 58.3813 178.674 58.3917 178.687 58.4125V58.1799Z" fill="#1C2129"/>
<path d="M178.574 73.92C178.529 74.8781 178.588 75.4475 178.66 75.9925C178.636 75.2773 178.622 74.5205 178.619 73.7047C178.584 73.6249 178.564 73.611 178.574 73.92Z" fill="#1C2129"/>
<path d="M178.923 65.9979C178.875 66.4944 178.834 67.0602 178.793 67.6539C178.868 67.1678 178.981 66.175 178.923 65.9979Z" fill="#1C2129"/>
<path d="M178.8 77.2631C178.803 77.3117 178.807 77.3533 178.81 77.4054C178.862 77.093 178.838 77.1312 178.8 77.2631Z" fill="#1C2129"/>
<path d="M178.8 77.263C178.765 76.77 178.707 76.3847 178.656 75.9958C178.673 76.5791 178.7 77.1172 178.735 77.5858C178.752 77.4678 178.776 77.3497 178.8 77.263Z" fill="#1C2129"/>
<path d="M177.183 54.6389C177.399 54.809 177.601 57.3224 177.368 59.4921C177.533 61.6271 178.245 60.2316 178.642 58.3674C178.546 58.3014 178.461 58.3014 178.331 56.1039C178.211 56.8746 178.053 60.9814 177.858 59.1276C177.745 56.215 177.933 56.7427 178.05 55.3263C177.779 56.5309 177.656 51.6222 177.259 52.2575L177.399 54.8125C177.337 54.8611 177.238 53.9342 177.183 54.6424V54.6389Z" fill="#1C2129"/>
<path d="M178.622 62.5576L178.649 63.4636C178.687 62.4326 178.772 61.6931 178.943 60.3358C178.837 58.8291 178.759 58.5167 178.683 58.416L178.653 62.87L178.622 62.561V62.5576Z" fill="#1C2129"/>
<path d="M178.653 67.5219C178.416 66.8171 178.317 64.644 178.06 65.9736C178.077 68.6293 178.259 67.8343 178.361 69.4208C178.303 65.1369 178.492 70.6497 178.629 67.5566C178.67 68.4002 178.68 69.157 178.69 69.8721C178.718 69.1014 178.755 68.3585 178.796 67.6572C178.79 67.6954 178.786 67.7232 178.783 67.7544V67.7753V67.7718C178.752 67.9558 178.735 68.0183 178.752 67.81C178.752 67.7961 178.748 67.744 178.748 67.7197C178.714 67.692 178.687 67.6121 178.659 67.5253C178.707 66.286 178.721 67.3309 178.748 67.7197C178.759 67.7336 178.772 67.7683 178.783 67.7718C178.783 67.7683 178.783 67.7614 178.783 67.7544L178.653 63.4636C178.618 64.3732 178.625 65.5084 178.653 67.5253V67.5219Z" fill="#1C2129"/>
<path d="M177.468 89.055C177.488 88.9233 177.505 88.9268 177.522 88.9164C177.495 88.6393 177.474 88.5354 177.468 89.055Z" fill="#1C2129"/>
<path d="M177.608 87.2922C177.642 87.6047 177.735 87.865 177.711 88.8787C177.639 89.757 177.598 88.8753 177.519 88.9204C177.581 89.5314 177.687 91.0589 177.803 89.1426L177.772 88.8405C177.855 87.1117 178.149 84.8934 178.18 85.1954C177.968 85.6988 177.817 86.1432 177.608 87.2922Z" fill="#1C2129"/>
<path d="M178.07 77.2838L177.954 73.7115L177.748 75.5306L177.872 75.4369C177.824 77.4678 177.974 77.0303 178.07 77.2838Z" fill="#1C2129"/>
<path d="M178.807 57.7704L179.053 58.246L178.704 56.1804L178.807 57.7704Z" fill="#1C2129"/>
<path d="M178.776 53.1288L178.992 53.2989L178.862 52.0735L178.776 53.1288Z" fill="#1C2129"/>
<path d="M3.33356 46.0538L3.39551 47.1057C3.37486 46.6093 3.35421 46.2899 3.33356 46.0538Z" fill="#1C2129"/>
<path d="M3.35117 38.4507L3.24469 38.2637C3.30308 38.6136 3.34773 38.759 3.35117 38.4507Z" fill="#1C2129"/>
<path d="M109.946 0.732128C108.436 0.527743 106.751 0.209039 106.932 0.454995L107.395 0.694022C108.45 0.652452 109.258 0.676702 109.943 0.728664L109.946 0.732128Z" fill="#1C2129"/>
<path d="M32.8867 2.1698C33.0306 2.19405 33.1813 2.2183 33.3285 2.24255C33.695 2.15941 34.0409 2.0832 34.3491 2.01392C33.9108 2.06241 33.4107 2.11438 32.8901 2.1698H32.8867Z" fill="#1C2129"/>
<path d="M31.8254 3.16614L29.8356 3.01025C30.2842 3.06568 30.9213 3.11764 31.8254 3.16614Z" fill="#1C2129"/>
<path d="M3.5871 87.5699L3.83 88.7954C3.83 86.8791 3.70684 87.7227 3.5871 87.5699Z" fill="#1C2129"/>
<path d="M175.31 5.45414C174.44 4.28076 173.519 3.54132 172.693 2.94421C173.039 3.21847 173.341 3.51355 173.628 3.77391C173.913 4.03428 174.135 4.31894 174.358 4.54112C174.468 4.65221 174.567 4.75983 174.663 4.85703C174.752 4.95771 174.834 5.05144 174.909 5.13128C175.063 5.29098 175.197 5.40554 175.31 5.45761V5.45414Z" fill="#1C2129"/>
<path d="M0.812866 43.0614C0.857342 43.7036 0.905239 43.9778 0.956557 43.9605C0.915503 43.2974 0.871027 42.926 0.812866 43.0614Z" fill="#1C2129"/>
<path d="M168.881 1.18079C169.001 1.22244 169.121 1.26757 169.244 1.30923C169.361 1.36131 169.477 1.41338 169.597 1.46892C169.851 1.55224 170.104 1.63556 170.357 1.72235C170.614 1.81261 170.858 1.93758 171.114 2.05214C171.638 2.27085 172.138 2.5937 172.69 2.94433C171.673 2.12852 170.299 1.41685 168.878 1.18079H168.881Z" fill="#1C2129"/>
<path d="M109.309 133.353C109.419 133.363 109.549 133.371 109.644 133.381C109.679 133.349 109.528 133.346 109.309 133.353Z" fill="#1C2129"/>
<path d="M152.586 135.783C152.161 135.797 151.466 135.797 150.809 135.801C151.127 135.819 151.665 135.815 152.586 135.783Z" fill="#1C2129"/>
<path d="M178.879 34.4415C178.905 34.5981 178.895 35.4295 178.879 34.4415Z" fill="#1C2129"/>
<path d="M177.941 39.2322C177.913 39.0239 177.879 38.8643 177.824 38.84C177.882 38.9198 177.917 39.0587 177.941 39.2322Z" fill="#1C2129"/>
<path d="M158.853 2.14929C158.826 2.14929 158.802 2.14929 158.768 2.14929C159.055 2.19848 159.007 2.18794 158.853 2.14929Z" fill="#1C2129"/>
<path d="M178.773 35.924C178.803 35.5525 178.827 35.129 178.845 34.6638C178.827 34.8686 178.803 35.2505 178.773 35.924Z" fill="#1C2129"/>
<path d="M178.882 35.726C178.872 36.0662 178.865 36.3335 178.858 36.5869C178.899 36.7119 178.923 36.6008 178.882 35.726Z" fill="#1C2129"/>
<path d="M178.865 33.0702C178.868 33.6326 178.858 34.1603 178.841 34.6636C178.858 34.4692 178.872 34.3894 178.878 34.4415C178.878 34.1533 178.872 33.7437 178.865 33.0702Z" fill="#1C2129"/>
<path d="M29.7155 133.999C29.7805 134.006 29.8524 134.013 29.9244 134.023C30.9039 133.922 30.4758 133.939 29.7155 133.999Z" fill="#1C2129"/>
<path d="M84.6571 3.23294C84.7017 3.22937 84.7257 3.2258 84.7668 3.22223C84.7223 3.22223 84.664 3.21509 84.6229 3.21509L84.6571 3.23651V3.23294Z" fill="#1C2129"/>
<path d="M81.1672 3.41311C82.6536 3.11456 83.4996 3.14928 84.6229 3.21176L83.4687 2.51746L81.1672 3.41311Z" fill="#1C2129"/>
<path d="M3.4021 64.2551L3.61445 61.7694C3.96721 64.7688 3.84391 66.9386 4.1453 64.6057C3.4021 64.2551 4.06995 54.9513 3.32676 54.6042L3.4843 52.9656C3.47745 53.4343 3.52197 53.5106 3.51512 53.9724C3.87131 50.789 2.97742 51.6048 3.08359 47.5014C3.14181 46.0711 3.24798 45.0748 3.33703 46.0468L3.15209 42.86C3.16579 41.9331 3.29593 42.1587 3.28223 43.0821L3.22401 38.222L3.24456 38.2567C3.12811 37.5624 2.9466 35.9932 2.87125 35.226C2.97742 33.9902 2.95002 35.844 3.04249 35.5281L2.86097 32.8376C3.05277 31.7406 3.24113 33.9728 3.21374 35.8301C3.95693 33.3167 3.02537 33.5979 3.46033 28.1719L3.55622 30.713C3.97748 29.0745 3.82679 27.0922 4.08708 24.2178C3.95008 24.8982 3.42265 29.9701 3.23771 27.0471C3.29251 26.2243 3.31991 25.1377 3.16921 23.5651C3.43293 23.5512 3.36786 22.0134 3.35416 20.0866L3.70349 20.2186C3.60075 18.1356 3.42265 18.3023 3.26511 17.0768C3.28223 15.9173 3.35758 15.2161 3.46033 14.737C3.50827 14.4871 3.57677 14.3343 3.64184 14.1989C3.70692 14.0635 3.77199 13.9524 3.83706 13.8379C3.85419 13.64 3.85076 13.4734 3.87131 13.338C3.89186 13.2026 3.90556 13.0984 3.91583 13.0151C3.93296 12.852 3.92611 12.7825 3.90898 12.7791C3.87131 12.7721 3.77541 13.0151 3.67609 13.2477C3.57335 13.4803 3.51855 13.706 3.46375 13.6226C3.4432 13.581 3.40553 13.4629 3.42265 13.2338C3.4432 13.0047 3.46718 12.6645 3.54595 12.1785C3.89186 10.8385 4.36449 9.76228 4.96042 8.67916C5.57005 7.60646 6.33722 6.50598 7.60784 5.4055C7.81333 5.27011 7.9606 5.16944 8.07362 5.11389C8.19007 5.06182 8.25857 5.03405 8.29624 5.0271C8.37159 5.01322 8.31679 5.07918 8.22774 5.16249C8.04965 5.32566 7.77908 5.62074 8.07705 5.44716C8.27569 5.23887 8.50173 5.06876 8.7175 4.87088C8.82709 4.77715 8.93326 4.67301 9.04971 4.58969L9.4059 4.33974C9.78948 4.15922 9.70044 4.29808 9.65934 4.37098C9.96757 4.18005 10.1354 4.08979 10.2279 4.01341C10.3203 3.93704 10.3443 3.88149 10.3923 3.81554C10.4916 3.69403 10.6731 3.48574 11.8067 3.15941C11.9369 3.00667 12.3205 2.96154 12.8479 2.89905C13.1116 2.85739 13.4164 2.89211 13.7452 2.89905C13.9096 2.90599 14.0808 2.91293 14.2555 2.91988C14.4439 2.93724 14.6357 2.95459 14.8343 2.97195C16.4235 3.10734 18.314 3.23926 19.8654 3.01708C20.6292 3.11776 19.4956 3.23579 19.7284 3.37118C23.9821 3.07957 23.3759 3.15941 26.8693 2.76713L29.8455 2.99972C27.6604 2.73241 30.4517 2.4165 32.9005 2.15614C32.1265 2.02769 31.462 1.91313 31.0168 1.86106L34.9212 1.67012C35.3938 1.72914 34.9999 1.85064 34.3595 1.99992C34.6266 1.96868 34.8766 1.93743 35.0753 1.91313C36.4726 2.04505 35.7466 2.24987 34.7465 2.44775C34.2704 2.37485 33.7978 2.29847 33.3389 2.22904C32.3731 2.44428 31.4723 2.68381 31.6744 2.89211C31.9278 2.85045 32.4176 2.81573 32.9553 2.7949C32.7018 2.85392 32.5409 2.90599 32.6573 2.94071C32.7909 2.97889 33.1985 2.89905 33.8355 2.80879L34.7225 3.20454L34.9383 3.04832L40.0482 3.2948C43.7025 2.89558 46.8808 2.30889 52.6825 2.14572C51.2441 2.43733 52.3743 2.62133 52.2955 2.96501C50.7132 2.6005 47.8021 3.12123 44.7951 3.04485C46.3636 3.08304 46.0177 3.2462 45.6204 3.30522L50.9838 2.97542C50.8639 3.25662 52.1208 3.18719 53.525 3.30175C52.4668 2.7463 57.5219 2.93029 59.7035 2.76019C59.8405 2.94765 59.3165 3.13859 56.6554 3.09346C59.5939 3.51351 60.4501 2.44081 63.3339 2.7949C62.6831 2.79837 62.3338 2.7706 62.0769 2.86433C63.5942 2.6977 67.3067 2.82962 66.4334 2.99278H65.7861C70.1014 3.06221 78.9204 2.99972 79.5643 2.52759C79.6088 2.59008 78.9992 3.09693 78.7389 3.19413L86.438 1.60416C85.7599 2.01033 88.3628 2.97542 84.7838 3.20454C85.8113 3.26356 87.0819 3.32952 89.2498 3.18719C88.5477 3.12817 87.5032 2.6005 88.4621 2.56231C91.0924 3.01361 90.2876 2.80532 93.5275 3.19066C92.4761 3.10387 93.6439 2.46858 95.305 2.48941C95.0447 2.58314 95.442 3.11776 94.8358 3.18371L98.9696 2.55884C97.9387 2.66993 98.7881 3.08998 99.7128 3.26356C99.2847 3.14206 103.285 3.27397 104.388 3.21149L102.638 3.06568C107.302 3.15941 107.248 2.18738 111.875 2.21863C111.313 2.34707 110.491 3.01361 112.844 3.08998C113.923 2.7706 117.621 1.55209 121.714 1.30561L122.498 1.4896L125.639 1.28131C123.683 1.76385 118.193 2.77407 115.193 3.16983C116.94 3.31563 115.68 3.38506 118.293 3.36771C119.217 3.53781 116.868 3.62807 116.097 3.63849L122.187 3.74958C121.916 3.37465 126.841 3.37465 126.608 3.06568L119.995 3.45102C119.728 3.07957 123.817 2.3922 128.132 2.45816C129.228 2.60744 127.31 3.12123 127.403 3.2462C127.961 3.11776 131.496 2.99972 131.893 3.09346L130.064 3.2948C132.465 3.43367 133.982 2.79837 136.869 3.15594C137.866 3.18024 139.842 3.63849 140.017 3.41631C138.393 2.98931 138.075 1.67359 139.157 1.35074C139.506 1.37851 144.387 1.75691 145.524 1.96868C147.164 2.30194 143.061 2.76366 144.459 3.0518C144.52 2.95112 145.425 2.82267 145.801 2.78449C146.846 2.87128 145.37 3.1004 147.64 3.05527C148.021 2.67687 152.264 3.08651 148.716 2.73589C150.939 2.62827 151.079 2.81226 153.689 2.79837C152.856 2.55537 156.031 1.9652 158.261 1.85759C158.131 1.95479 158.631 2.07976 158.871 2.13531C161.148 2.15267 162.902 2.20474 164.614 2.24987C166.316 2.29153 167.97 2.50329 169.899 3.32258C170.053 3.4545 170.577 3.7461 170.93 4.01341C171.275 4.29808 171.477 4.49943 171.08 4.35362C171.608 4.6001 172.156 4.77021 173.111 5.62074C173.31 5.86027 173.426 6.00608 173.478 6.08939C173.522 6.17618 173.512 6.19007 173.464 6.15535C173.361 6.08592 173.08 5.84986 172.793 5.59296C172.721 5.53048 172.645 5.46452 172.573 5.40203C172.495 5.34648 172.419 5.29441 172.347 5.24581C172.204 5.14861 172.08 5.06876 171.995 5.02363C171.823 4.93684 171.81 4.99586 172.111 5.34996C172.241 5.30135 172.926 5.7353 173.663 6.44002C174.43 7.11697 175.135 8.1376 175.632 8.90481C175.652 8.57849 175.142 7.62034 174.337 6.69691C173.532 5.76307 172.392 4.9785 171.611 4.53067C171.642 4.48207 171.714 4.45777 171.827 4.45777C171.936 4.46124 172.08 4.5029 172.262 4.56886C172.443 4.63482 172.659 4.72855 172.909 4.84658C173.152 4.97503 173.409 5.15555 173.704 5.34996C174.008 5.53742 174.289 5.80473 174.608 6.08592C174.94 6.3567 175.224 6.71427 175.553 7.07878C175.721 7.25583 175.861 7.4676 176.012 7.67589C176.159 7.88765 176.317 8.10289 176.464 8.33201C176.594 8.57155 176.731 8.81455 176.868 9.0645C176.933 9.18948 177.009 9.31446 177.07 9.44637C177.125 9.58176 177.183 9.71715 177.242 9.85254C177.615 10.7204 177.7 11.3002 177.776 11.63C177.844 11.9632 177.796 12.0813 177.766 12.0986C177.69 12.1299 177.55 11.7897 177.629 12.0986C177.683 12.5291 177.759 12.9283 177.793 13.3033C177.817 13.6782 177.841 14.0288 177.861 14.3517C177.889 14.987 177.906 15.5146 177.944 15.9868C178.009 16.9241 178.105 17.6045 178.187 18.2502C178.358 19.5381 178.495 20.6872 178.327 23.4749C178.033 25.6897 177.742 23.5755 177.529 24.065C177.416 21.1489 177.718 19.5902 177.704 17.6149L177.563 20.0485C177.464 19.1216 177.392 17.174 177.478 16.1152C177.214 17.9725 177.426 27.4706 177.183 32.6536C177.283 33.5736 177.385 35.1635 177.502 34.4137L177.461 32.7717C177.697 31.265 177.79 35.8579 177.899 33.7819C178.067 35.9828 178.327 38.4511 178.194 41.5477L177.858 42.1309C177.957 42.065 178.057 40.107 177.957 39.2357C178.105 40.5271 177.502 43.9847 177.944 45.4011L178.177 43.2279C178.344 45.4393 178.701 48.1679 178.594 50.9139C178.927 49.6642 178.557 50.2821 178.944 48.3311C178.461 50.0217 178.964 41.3082 178.457 44.0229C178.909 42.0198 178.649 40.5583 179.033 37.9408C178.923 38.0206 178.82 38.8677 178.875 36.5626C178.844 36.4584 178.803 36.2119 178.776 36.0557C178.779 35.9863 178.779 35.962 178.783 35.8995C178.779 35.9446 178.776 35.9794 178.769 36.028C178.752 35.9273 178.748 35.9203 178.766 36.0766C178.718 36.6251 178.659 37.0694 178.598 37.2499C178.344 36.1043 178.351 32.4384 178.221 31.199C178.272 29.8313 178.348 31.7718 178.468 31.0255L178.269 29.1751C178.516 28.9911 178.677 25.5404 178.82 28.762L178.831 25.8633C178.968 24.1553 179.022 21.8085 178.92 20.3574C178.975 18.9896 178.646 16.9032 178.841 18.094L178.766 15.8201L178.728 14.6815C178.728 14.5009 178.707 14.2822 178.69 14.0739L178.639 13.4491L178.697 13.397C178.697 13.0845 178.635 12.7756 178.591 12.4666C178.536 12.1576 178.509 11.8417 178.423 11.5362C178.341 11.2307 178.259 10.9253 178.173 10.6198C178.101 10.3108 177.957 10.0192 177.851 9.72063C177.642 9.11311 177.32 8.55419 177.033 7.97444C176.683 7.42941 176.365 6.86355 175.947 6.3567C175.567 5.82209 175.101 5.3569 174.659 4.86394C174.169 4.41958 173.697 3.94745 173.149 3.5517C172.087 2.72894 170.909 1.99645 169.604 1.44447C169.214 1.29867 168.799 1.22924 168.375 1.12856C167.95 1.01747 167.498 0.972344 167.011 0.906384C166.529 0.819596 166.005 0.83001 165.433 0.791823C165.135 0.770994 164.885 0.777937 164.594 0.770994C164.309 0.764051 164.015 0.757108 163.703 0.750165L163.217 0.534929C161.302 0.611303 157.47 0.319694 156.648 0.545344C154.583 -0.0344032 147.36 0.420369 143.993 0.316222L143.866 0.597417C141.551 0.580059 139.328 0.659905 136.451 0.774466L136.629 1.02442C134.15 1.22924 130.256 0.847368 126.334 0.871669C126.601 0.777937 127.595 0.802238 128.3 0.857783C123.615 0.295393 118.416 1.26742 114.166 0.857783C113.107 0.948043 112.34 0.916799 111.597 0.857783C111.696 0.857783 111.785 0.854311 111.861 0.843896C111.751 0.843896 111.59 0.843896 111.426 0.843896C110.957 0.802238 110.477 0.757108 109.957 0.711978C110.402 0.770994 110.823 0.823067 111.193 0.843896C110.378 0.847368 109.138 0.878612 107.922 0.9411L107.405 0.673791C107.306 0.673791 107.227 0.677263 107.124 0.680734C105.932 0.583531 106.165 0.80571 106.802 1.00706C106.193 1.05219 105.631 1.10426 105.196 1.16675C104.227 0.736279 102.011 1.31255 100.689 0.85084C99.8704 1.07649 94.5858 1.02095 93.9385 1.49307C93.8974 1.43059 93.5378 1.40281 94.1953 1.39934C92.8425 1.3438 91.4897 1.29173 90.2739 1.42364L89.6985 1.08343L86.7428 1.54168C84.9482 1.33338 84.2016 1.21535 85.9859 0.951514C81.6809 1.35421 82.4926 1.10426 78.8314 1.50349L79.0095 1.28478C77.7012 1.29173 75.6086 1.58681 74.8209 1.40629C71.8926 0.989701 60.3371 1.34727 52.8229 0.958457C54.2819 1.60416 49.3296 0.666848 49.0316 1.17022C48.5932 1.01747 47.5452 0.930685 48.7645 0.798766C44.9286 0.948043 43.0038 0.555759 40.3564 0.979287C39.918 0.826539 41.1784 0.753636 40.788 0.663376C40.4797 0.698092 39.5687 0.795295 39.1714 0.705035C38.781 0.614775 39.7331 0.576588 40.3393 0.510629C36.4213 0.534929 36.0274 1.00706 35.7397 1.45142C33.7533 1.24312 32.7635 1.2709 31.3319 1.56251C30.6401 1.4167 29.4893 1.26742 31.921 1.21535C30.551 1.19452 23.5574 1.00359 23.417 1.35768C22.9889 1.26742 21.5025 1.32991 21.1429 1.37157C18.0708 1.35074 17.8002 1.3195 14.7829 1.35074L15.6186 1.40976C15.0158 1.63194 14.4131 1.62499 13.5911 1.65624C13.389 1.65624 13.1733 1.66318 12.9472 1.66665C12.7212 1.69095 12.4849 1.71872 12.2348 1.7465C11.728 1.78468 11.1834 1.93396 10.5738 2.10754L10.632 2.04852C9.2141 2.4165 8.39899 2.82615 7.87156 3.12123C7.3544 3.44061 7.08041 3.6003 6.84752 3.81206C6.72765 3.91274 6.60435 4.00994 6.45709 4.13145C6.30982 4.25642 6.11802 4.37445 5.89883 4.57927C5.67964 4.78062 5.3851 5.00975 5.03919 5.33607C4.7104 5.68322 4.26517 6.07551 3.81309 6.65873L4.21037 6.565C4.28229 6.96422 3.41238 7.87377 2.66233 9.33181C2.46711 9.68938 2.30615 10.0921 2.1212 10.4948C1.95338 10.9079 1.83009 11.3488 1.68967 11.7897C1.58692 12.2375 1.50815 12.6957 1.43965 13.147C1.41226 13.6018 1.40198 14.0462 1.40883 14.4732L1.61775 13.2616C1.63145 13.4942 1.6246 13.7441 1.60405 14.0114C1.57665 14.2753 1.54925 14.5565 1.51843 14.8481C1.45335 15.4209 1.35061 16.0388 1.23759 16.6568C1.01155 17.8926 0.754681 19.132 0.720432 20.0172C0.672484 20.4026 0.64166 19.4062 0.603987 18.8647C0.271775 23.5131 0.949899 19.4652 1.02867 22.9298C0.843728 23.5686 0.556039 22.1071 0.52179 24.4365C0.371096 25.5995 1.12457 31.199 0.768381 34.379C0.912225 33.6777 1.05264 32.9834 1.16224 34.5907C1.21361 37.0555 0.621111 41.2561 1.07319 43.4848C1.03552 43.7973 0.997847 43.9153 0.960173 43.9292C1.07662 45.8142 1.15197 50.0565 1.39856 51.1917C0.490966 52.9344 1.84036 62.9116 1.00127 62.8664L1.04579 68.6639L0.960173 68.5112C0.905375 72.2188 1.10402 73.5275 1.30608 74.8294C1.24786 75.6868 1.17251 75.062 1.12799 74.9891C0.960173 80.4047 0.994422 80.9428 1.41226 85.4835L1.14169 85.9557C1.29924 87.1846 0.717008 93.784 1.0321 99.0954C1.00127 99.0434 0.949899 98.9323 0.9088 98.5122C1.22731 104.487 0.155329 112.818 1.14512 115.009L1.38828 118.953C1.46363 113.849 1.81639 119.713 1.98078 117.613C2.03901 119.619 1.68282 122.799 1.63145 120.334L1.6794 119.949C1.54925 119.723 1.4739 120.005 1.42938 120.556C1.40541 120.831 1.38828 121.174 1.37801 121.549C1.36773 121.928 1.35061 122.334 1.37801 122.785C1.39513 123.23 1.39513 123.681 1.47048 124.097C1.53555 124.518 1.55952 124.92 1.64515 125.25C1.78557 125.92 1.85749 126.371 1.77529 126.361C2.18628 127.645 2.7959 128.847 3.5391 129.95L4.12818 130.756L4.78575 131.502C4.99467 131.759 5.25496 131.967 5.49127 132.2L5.85431 132.537C5.9776 132.648 6.1146 132.742 6.24132 132.846C7.26193 133.682 8.42638 134.332 9.64221 134.811L10.1011 134.988L10.3306 135.074L10.5669 135.14L11.5122 135.401C11.8307 135.47 12.1526 135.515 12.4746 135.571C12.6355 135.595 12.7965 135.63 12.9575 135.647L13.4438 135.679C13.7623 135.696 14.1048 135.727 14.4062 135.731L15.3069 135.744C15.9063 135.755 16.5022 135.762 17.0982 135.772C18.29 135.79 19.4784 135.804 20.66 135.821C23.0232 135.852 25.3658 135.873 27.6878 135.88L26.6193 135.474L29.8558 135.498C30.7051 135.592 30.9963 135.817 28.6879 135.8C29.9003 136.029 32.558 135.606 32.6265 135.519C37.1473 135.682 30.8593 135.991 32.2463 136.001L34.13 135.97L33.7053 135.922C35.2294 135.755 35.3664 135.578 38.1405 135.599C39.8975 135.679 39.0413 135.849 39.7331 135.866C39.7297 135.894 39.9626 135.908 40.7914 135.876L44.867 135.911L43.2367 135.592C45.0451 135.432 47.0692 135.609 45.1889 135.245C47.9494 135.804 60.3953 135.446 62.0906 135.62C64.6216 135.387 67.1183 135.39 70.2144 135.418C69.4438 135.352 68.9849 134.991 71.6529 135.036C70.6768 135.779 76.5402 135.359 78.6978 135.894C76.7696 135.54 86.2873 135.807 83.2597 135.304C85.4859 135.363 83.3967 135.581 85.0852 135.758C90.3869 135.47 96.7674 135.946 103.319 135.849C103.422 135.751 102.323 135.602 103.73 135.456L107.189 135.946C108.484 135.897 108.381 135.383 110.744 135.72C110.412 135.637 109.912 135.515 110.779 135.484C123.615 135.96 137.01 135.095 150.045 135.987C148.277 135.797 149.456 135.779 150.805 135.772C149.928 135.727 150.826 135.529 150.654 135.397L156.11 135.765C157.103 135.397 161.96 135.741 162.532 135.39L160.802 135.453C163.1 135.04 157.586 134.533 157.922 133.998C155.35 134.47 151.137 133.301 146.914 133.974C145.983 133.866 147.709 133.804 147.212 133.679C146.14 133.908 144.849 133.953 142.455 133.852L142.726 133.797C135.996 133.853 133.112 133.627 125.55 133.478L126.108 133.741C124.485 133.707 124.142 133.623 123.382 133.557C121.519 133.957 127.944 133.578 126.245 134.019C124.091 133.485 114.789 134.012 113.334 133.401C110.833 133.401 114.066 133.707 111.566 133.703L110.905 133.54L110.275 133.752C108.638 133.717 107.809 133.512 107.748 133.37C108.145 133.387 108.878 133.332 109.302 133.318C107.179 133.123 103.312 133.384 102.583 133.318L104.984 133.419C98.1648 133.571 89.8355 133.356 83.246 133.693L83.7461 133.818C78.7149 134.047 79.715 133.682 74.1907 133.787L74.3928 133.755C73.2865 133.88 71.8104 133.943 70.3 133.929C71.694 133.783 67.6766 133.648 69.5055 133.485C64.0497 133.731 66.8067 133.679 63.2037 134.141L62.3715 133.936C61.1419 134.123 61.0392 134.22 58.2822 134.273C60.546 134.096 56.5218 133.96 59.0562 133.724C53.2682 133.273 50.4598 134.179 47.8021 133.519C45.1444 134.089 52.8127 133.835 51.3228 133.957C52.5695 134.144 49.1275 134.384 47.3123 134.325C45.4629 134.311 44.1683 133.596 39.5139 133.606C39.9763 133.606 40.0071 133.564 40.4694 133.568C38.7296 133.422 37.0583 133.766 34.9212 133.53C33.7225 133.873 32.147 133.509 31.8045 133.95L36.0719 133.849C33.654 133.964 31.3833 134.477 27.3967 134.227C27.7084 134.137 28.8934 134.023 29.7085 133.957C28.5441 133.828 27.4652 134.043 26.2562 133.908C26.6022 133.467 31.4415 133.811 34.0341 133.478C32.784 133.29 29.1297 133.797 30.4346 133.321C28.5612 133.929 25.8521 133.245 22.7012 133.707L22.9102 133.443C22.4101 133.485 21.3792 133.609 20.4614 133.603L22.1224 133.262C19.5709 133.554 17.2043 133.009 14.759 133.165C19.8826 133.158 15.9097 133.481 18.0742 133.675C16.4954 133.762 15.4782 133.766 14.7316 133.717C14.5466 133.703 14.372 133.693 14.2213 133.672C14.0774 133.648 13.9438 133.62 13.8171 133.592C13.5671 133.537 13.3479 133.478 13.1253 133.419C12.9061 133.335 12.6869 133.245 12.4301 133.158C12.3033 133.113 12.1663 133.075 12.0191 133.019C11.8752 132.957 11.7143 132.894 11.5396 132.828C11.3683 132.759 11.1697 132.71 10.9642 132.62C10.7587 132.53 10.5361 132.433 10.2861 132.332C10.2244 132.308 10.1594 132.283 10.0943 132.256C10.0326 132.224 9.96757 132.19 9.9025 132.155C9.76893 132.089 9.63194 132.02 9.48809 131.947C9.19013 131.818 8.89559 131.62 8.55995 131.429C8.7449 131.527 8.99149 131.704 9.26205 131.863C9.53947 132.013 9.82031 132.179 10.0429 132.322C10.5053 132.561 10.7245 132.721 10.0737 132.547C9.79976 132.419 9.51892 132.245 9.23123 132.089C8.94011 131.933 8.68325 131.711 8.41953 131.534C8.15239 131.36 7.94348 131.127 7.74141 130.95C7.64551 130.857 7.55304 130.77 7.47085 130.69C7.39207 130.603 7.33043 130.516 7.2722 130.443C7.08041 130.273 6.91259 130.124 6.76875 129.999C6.6249 129.871 6.52558 129.746 6.42626 129.652C6.23789 129.461 6.12145 129.35 6.05638 129.301C5.92281 129.201 5.99815 129.339 6.12487 129.537C6.36804 129.933 6.82697 130.582 6.16255 129.961C5.77554 129.326 5.47072 128.919 5.06316 128.499C4.8748 128.274 4.67615 128.038 4.45011 127.767C4.24462 127.479 4.03228 127.139 3.80966 126.712L4.0494 126.597C3.86446 126.014 3.69322 125.569 3.61787 125.198C3.52882 124.833 3.42608 124.57 3.3884 124.365C3.28566 123.955 3.19661 123.82 3.11099 123.695C3.06647 123.632 3.02537 123.573 2.98084 123.486C2.9466 123.396 2.91577 123.278 2.88837 123.094C2.86097 122.91 2.837 122.664 2.81988 122.317C2.81988 121.949 2.83015 121.476 2.85755 120.869L3.04249 121.9C3.09729 122.254 3.17949 122.563 3.25483 122.869L3.20004 122.296L3.17606 121.66L3.12811 120.39L3.4295 120.914C3.20689 118.151 3.26511 117.29 3.34731 114.582C3.16236 115.21 2.86782 114.228 2.85755 111.829C3.01509 110.194 3.10757 112.746 3.06989 109.347C3.23429 110.114 3.4432 110.954 3.20004 112.433C3.28566 112.586 3.36443 113.19 3.45005 113.346C3.63157 111.586 3.49115 108.92 3.48773 107.691C3.47745 108.167 3.46375 108.732 3.42608 109.021L3.05962 104.094C3.15894 103.32 3.23771 103.935 3.31648 104.542C3.28908 103.542 3.16579 102.855 3.14524 101.387C3.36101 101.765 3.58362 101.675 3.68294 103.754L3.4432 99.0607C3.53567 98.7483 3.70007 96.6515 3.77884 97.2625C3.90556 94.6588 3.36101 90.8783 3.52882 87.4276C3.48773 87.2471 3.44663 86.8895 3.4158 86.1535C3.46375 82.9111 3.72747 80.0367 3.43293 76.1937L3.81651 74.0136C3.72747 71.0037 3.33018 76.9644 3.18634 71.9549C3.06304 68.407 3.51512 70.6288 3.6213 69.386C3.42608 67.6225 3.03222 64.5536 3.34388 61.2938C3.4158 62.3735 3.36101 63.2205 3.3884 64.2273L3.4021 64.2551ZM3.23086 27.1304C3.28566 27.849 3.4569 29.2828 3.30278 29.8104C3.00139 28.9911 3.14524 28.3559 3.23086 27.1304ZM38.281 2.68381C37.7535 2.77407 36.9384 2.72894 36.0171 2.62827C36.685 2.60744 37.4419 2.61785 38.281 2.68381ZM178.666 23.645C178.663 23.6137 178.656 23.5929 178.653 23.5686C178.755 21.9647 178.714 22.5341 178.666 23.645ZM178.553 26.9777C178.591 27.3109 178.625 27.2901 178.663 27.1478C178.594 26.9152 178.591 26.1653 178.611 25.3148C178.543 25.5509 178.495 25.9813 178.553 26.9777ZM40.0927 135.8L39.4523 135.731C40.8976 135.654 40.4934 135.724 40.0927 135.8Z" fill="#1C2129"/>
<path d="M31.9693 3.05142C31.7671 3.00645 31.7122 2.95802 31.6642 2.90613C31.3865 2.9511 31.3797 3.00299 31.9693 3.05142Z" fill="#1C2129"/>
<path d="M3.54236 87.3442V87.4588C3.55607 87.5213 3.56979 87.5525 3.58693 87.5733L3.54236 87.3477V87.3442Z" fill="#1C2129"/>
<path d="M145.746 3.2073C145.068 3.16932 144.692 3.12099 144.441 3.06921C144.404 3.1348 144.712 3.19004 145.746 3.2073Z" fill="#1C2129"/>
<path d="M178.998 44.6376L178.93 42.5026C178.944 43.5336 178.886 43.9051 178.844 44.4258C178.906 44.3772 178.995 43.971 178.998 44.6376Z" fill="#1C2129"/>
<path d="M177.361 63.1651C177.392 63.4775 177.365 63.8282 177.399 64.1337L177.522 64.0469C177.515 62.7173 177.416 61.7904 177.365 63.1616L177.361 63.1651Z" fill="#1C2129"/>
<path d="M178.122 46.6127C177.899 46.7828 177.975 48.1193 178.016 49.6156V49.3517C178.327 49.7926 178.224 48.1992 178.122 46.6127Z" fill="#1C2129"/>
<path d="M178.022 49.9628C178.033 50.4245 178.039 50.8931 178.029 51.3444C178.153 51.518 178.057 50.7855 178.022 49.9628Z" fill="#1C2129"/>
<path d="M178.697 31.206C178.639 31.9142 178.981 31.6503 178.892 32.053C179.176 32.8446 178.55 27.3248 178.697 31.206Z" fill="#1C2129"/>
<path d="M177.389 47.8243L177.663 47.2862L177.44 46.4496L177.389 47.8243Z" fill="#1C2129"/>
<path d="M177.591 36.0178L177.516 38.4062C177.56 38.3715 177.588 38.6735 177.608 39.045C177.619 37.5731 177.674 35.9588 177.591 36.0143V36.0178Z" fill="#1C2129"/>
<path d="M177.608 39.0482C177.601 39.8154 177.608 40.5445 177.652 40.9715C177.652 40.5583 177.639 39.6627 177.608 39.0482Z" fill="#1C2129"/>
<path d="M177.307 44.5574L177.361 43.8527L177.382 42.1655L177.307 44.5574Z" fill="#1C2129"/>
<path d="M176.933 10.3317L176.69 9.71379C176.615 9.5055 176.495 9.31804 176.399 9.11669L176.098 8.53C175.985 8.34253 175.861 8.15854 175.745 7.97108C175.635 7.88082 175.663 7.99885 175.779 8.23839C175.834 8.35989 175.93 8.50222 176.012 8.68622C176.098 8.86674 176.197 9.07156 176.31 9.28679C176.389 9.42218 176.491 9.57146 176.56 9.73115C176.632 9.88737 176.704 10.0401 176.762 10.1651C176.882 10.4116 176.961 10.5365 176.933 10.3317Z" fill="#1C2129"/>
<path d="M176.889 18.2225C176.947 17.5177 177.008 17.4691 177.097 17.0734L176.759 16.9935L176.889 18.2225Z" fill="#1C2129"/>
<path d="M176.241 10.863C176.118 10.62 174.618 7.70737 175.851 10.5228C175.896 10.5714 175.981 10.7519 176.081 10.9602C176.176 11.1685 176.245 11.4184 176.313 11.5886C176.437 11.9322 176.505 11.9704 176.238 10.863H176.241Z" fill="#1C2129"/>
<path d="M141.767 2.26037L142.421 2.2569L142.328 1.69104L141.767 2.26037Z" fill="#1C2129"/>
<path d="M107.607 3.61424C110.655 3.74963 108.33 3.26361 111.087 3.43372C111.803 3.29833 108.837 3.29486 109.57 3.1803C107.731 3.32263 106.765 3.24279 107.611 3.61424H107.607Z" fill="#1C2129"/>
<path d="M109.57 3.1796C109.864 3.15894 110.176 3.13139 110.508 3.09351C109.974 3.12794 109.724 3.15549 109.57 3.1796Z" fill="#1C2129"/>
<path d="M159.765 136.088L161.727 136.206L160.46 136.015L159.765 136.088Z" fill="#1C2129"/>
<path d="M163.528 135.668L163.991 136.029L165.169 135.703C164.727 135.72 163.867 135.751 163.528 135.668Z" fill="#1C2129"/>
<path d="M3.94983 21.6106L3.8643 21.4579C3.77193 21.7669 3.76509 22.232 3.7514 23.1624L3.94983 21.6106Z" fill="#1C2129"/>
<path d="M3.68255 48.5567L3.68939 48.0916L3.3678 48.9594L3.68255 48.5567Z" fill="#1C2129"/>
<path d="M4.09393 71.1704C4.10761 70.247 4.03577 69.1638 4.04945 68.2369C4.10761 70.2504 3.69365 71.4203 4.09393 71.1704Z" fill="#1C2129"/>
</svg>
