<svg width="31" height="35" viewBox="0 0 31 35" fill="none" xmlns="http://www.w3.org/2000/svg">
<path fill-rule="evenodd" clip-rule="evenodd" d="M3.40908 1.10728C2.28526 1.47037 1.46686 2.29867 1.11322 3.4308C0.92488 4.03353 0.920654 4.30778 0.920654 15.8582C0.920654 27.4086 0.92488 27.6829 1.11322 28.2856C1.35814 29.0699 1.84095 29.7304 2.48176 30.158C3.46613 30.8149 3.0759 30.793 13.8108 30.793C22.9669 30.793 23.4911 30.7838 23.489 30.6233C23.4879 30.53 23.3173 29.8657 23.1101 29.1472C22.9028 28.4286 22.7471 27.8268 22.7641 27.8096C22.781 27.7925 23.2433 28.2567 23.7913 28.8412C24.3393 29.4257 25.3724 30.4421 26.087 31.1C27.9211 32.7887 30.3044 34.9086 30.4118 34.9469C30.4683 34.9671 30.5024 29.1902 30.5024 19.5718C30.5024 2.49699 30.5401 3.51798 29.8735 2.4997C29.4501 1.85266 28.7959 1.36514 28.0192 1.11785C27.4218 0.927573 27.1582 0.9235 15.6774 0.92864C4.68013 0.933489 3.91245 0.944642 3.40908 1.10728ZM13.0994 9.11543C13.0834 9.16731 12.7678 9.31104 12.398 9.43469C11.5102 9.73183 10.1262 10.4376 9.46863 10.9287C8.87027 11.3757 8.88862 11.3731 10.1409 10.8323C11.4078 10.2855 12.6996 9.96865 14.1963 9.83792C16.845 9.60673 19.1189 9.97263 21.492 11.0119C21.9576 11.2158 22.3386 11.3631 22.3386 11.3393C22.3386 11.3154 21.9713 11.054 21.5223 10.7586C20.6328 10.1731 19.813 9.77149 18.9511 9.49908C17.7265 9.11203 18.9463 8.98732 20.3005 9.36117C21.1568 9.59761 22.203 10.0837 22.8052 10.5249C23.1429 10.7724 23.3044 11.0061 23.6421 11.7358C24.7339 14.0948 25.4451 16.9831 25.6499 19.8891L25.7118 20.7684L24.9966 21.4544C23.8812 22.5242 22.4631 23.1332 21.0939 23.1304L20.4657 23.129L19.9615 22.5071C19.6842 22.165 19.4573 21.8601 19.4573 21.8295C19.4573 21.7989 19.5283 21.7739 19.6153 21.7739C19.9879 21.7739 21.2169 21.0593 21.8136 20.4956C22.1581 20.1704 22.4234 19.8877 22.4034 19.8675C22.3834 19.8472 22.0041 20.0256 21.5605 20.2638C19.8594 21.1769 17.8238 21.6759 15.7962 21.6766C13.8822 21.6772 12.0352 21.2209 10.1534 20.2822L9.26771 19.8404L9.47555 20.1351C9.87884 20.707 11.4633 21.7739 11.9093 21.7739C12.1916 21.7739 12.1315 21.9353 11.6061 22.5886L11.0708 23.2543L10.3897 23.1999C8.97496 23.0869 7.66539 22.464 6.60045 21.3977L5.98259 20.779L6.04214 19.6036C6.11225 18.2188 6.3612 16.6978 6.77208 15.1432C7.24702 13.3461 8.21995 10.9435 8.59357 10.6448C9.40159 9.99881 10.9195 9.34896 12.1491 9.12231C12.95 8.97471 13.1432 8.97335 13.0994 9.11543ZM12.0845 15.2722C10.2993 15.7116 10.1023 18.1939 11.796 18.9084C12.5 19.2054 13.3602 19.0047 13.9046 18.4161C14.2411 18.0525 14.3669 17.6993 14.3669 17.1189C14.3669 16.5375 14.2404 16.1838 13.9046 15.8253C13.4379 15.3272 12.7321 15.1128 12.0845 15.2722ZM18.4261 15.2776C17.1466 15.5686 16.6388 17.3812 17.5449 18.4231C18.6313 19.6725 20.5138 18.861 20.5138 17.1431C20.5138 16.5381 20.3907 16.1873 20.0514 15.8253C19.5982 15.3416 19.0125 15.1442 18.4261 15.2776Z" fill="#120536"/>
</svg>
