<svg width="35" height="35" viewBox="0 0 41 41" fill="none" xmlns="http://www.w3.org/2000/svg">
<path fill-rule="evenodd" clip-rule="evenodd" d="M20.0221 37.6799C29.2617 37.6799 36.7519 30.1897 36.7519 20.95C36.7519 11.7104 29.2617 4.22021 20.0221 4.22021C10.7824 4.22021 3.29224 11.7104 3.29224 20.95C3.29224 30.1897 10.7824 37.6799 20.0221 37.6799ZM26.4929 18.0102C26.4929 18.0102 25.8832 17.2229 25.6611 16.9375C25.6261 16.8931 25.5884 16.85 25.5427 16.8137C25.4862 16.7693 25.4175 16.737 25.3448 16.7302C25.2327 16.7196 25.1365 16.779 25.0457 16.8351L25.0433 16.8366C24.9908 16.8689 24.9397 16.9039 24.8886 16.9389L21.6058 19.1462C21.3501 11.2112 21.2761 11.2193 21.2761 11.2193C21.268 11.1748 21.2532 11.1304 21.2317 11.0914C21.1496 10.9433 20.9786 10.9285 20.8265 10.9258L20.7609 10.9237C20.6953 10.9214 20.6297 10.9191 20.5641 10.9191C20.3931 10.9191 20.2209 10.9191 20.0499 10.9205C19.9646 10.9205 19.8793 10.9201 19.7939 10.9198C19.7081 10.9194 19.6221 10.9191 19.5358 10.9191H19.3016C19.2491 10.9191 19.1966 10.9206 19.1441 10.922C19.1091 10.923 19.0741 10.924 19.0391 10.9245C18.8871 10.9272 18.7161 10.942 18.634 11.09C18.6125 11.1291 18.5977 11.1735 18.5896 11.2179C18.5896 11.2179 18.5169 11.2098 18.2598 19.1448L14.9771 16.9375C14.926 16.9025 14.8748 16.8675 14.8223 16.8352L14.8215 16.8347C14.7289 16.7783 14.6322 16.7195 14.5209 16.7289C14.4482 16.7356 14.3795 16.7679 14.323 16.8123C14.2772 16.8473 14.2409 16.8918 14.2046 16.9362L14.2046 16.9362L13.3728 18.0102C13.214 18.2054 13.1951 18.4059 13.323 18.5647C13.3957 18.6549 13.4926 18.7586 13.6298 18.8905C13.9758 19.2202 14.3243 19.5459 14.677 19.869C15.0323 20.192 15.3903 20.511 15.7524 20.8259C16.1144 21.1395 16.4819 21.4504 16.852 21.756C17.2221 22.0615 17.5963 22.363 17.9759 22.6604L18.2424 22.8731L18.2503 22.8794C18.5022 23.0793 18.7619 23.2854 19.023 23.4626C19.093 23.5097 19.163 23.5568 19.2343 23.6026C19.3016 23.6443 19.3689 23.6847 19.4389 23.7224C19.5035 23.756 19.5694 23.787 19.6381 23.8125C19.7013 23.8354 19.7673 23.8543 19.8346 23.8637C19.9127 23.8744 19.9894 23.8718 20.0661 23.8583C20.1334 23.8448 20.1993 23.8246 20.2626 23.7991C20.3312 23.7722 20.3985 23.7385 20.4631 23.7035C20.5331 23.6645 20.6018 23.6228 20.6691 23.5797C20.6844 23.5697 20.6998 23.5596 20.7152 23.5494C20.7287 23.5405 20.7423 23.5315 20.7559 23.5225C20.7848 23.5033 20.8137 23.4841 20.8427 23.4653C21.1038 23.2881 21.3635 23.082 21.6154 22.8821L21.6233 22.8758L21.8898 22.6631C22.2694 22.3657 22.6435 22.0642 23.0137 21.7586C23.3838 21.4531 23.7499 21.1422 24.1133 20.8286C24.4754 20.515 24.8347 20.1947 25.1887 19.8716C25.5413 19.55 25.8899 19.2229 26.2358 18.8932C26.3718 18.7626 26.4687 18.659 26.5427 18.5674C26.6706 18.4059 26.6517 18.204 26.4929 18.0102ZM27.6291 26.6154C27.6291 27.9357 26.5588 29.006 25.2385 29.006L14.7997 29.006C13.4794 29.006 12.4091 27.9357 12.4091 26.6154V24.9592C12.4091 24.4311 12.8372 24.003 13.3654 24.003H14.1664C14.6945 24.003 15.1226 24.4311 15.1226 24.9592V25.3362C15.1226 25.8644 15.5508 26.2925 16.0789 26.2925L23.9593 26.2925C24.4875 26.2925 24.9156 25.8644 24.9156 25.3362V24.9592C24.9156 24.4311 25.3437 24.003 25.8719 24.003H26.6729C27.201 24.003 27.6291 24.4311 27.6291 24.9592V26.6154Z" fill="black"/>
</svg>
