<svg width="35" height="35" viewBox="0 0 36 36" fill="none" xmlns="http://www.w3.org/2000/svg">
<path fill-rule="evenodd" clip-rule="evenodd" d="M17.8335 35.5248C27.4269 35.5248 35.2039 27.7478 35.2039 18.1544C35.2039 8.56095 27.4269 0.783936 17.8335 0.783936C8.24002 0.783936 0.463013 8.56095 0.463013 18.1544C0.463013 27.7478 8.24002 35.5248 17.8335 35.5248ZM17.7218 18.3112L26.3197 13.3479C26.1821 12.1363 25.1533 11.1978 23.9057 11.1978H11.7612C10.473 11.1978 9.41938 12.2018 9.33816 13.4697L17.7218 18.3112ZM26.3355 22.6813V15.6165L18.2159 20.3024C18.2127 20.3043 18.2097 20.3062 18.2068 20.308C18.1993 20.3127 18.1924 20.3172 18.1843 20.3204C17.9451 20.4964 17.6135 20.5257 17.3382 20.3678L9.33139 15.7451V22.6813C9.33139 24.0237 10.4188 25.1111 11.7612 25.1111H23.9057C25.2481 25.1111 26.3355 24.0237 26.3355 22.6813Z" fill="black"/>
</svg>
